<?xml version="1.0" standalone="no"?>
<!DOCTYPE svg PUBLIC "-//W3C//DTD SVG 1.1//EN" "http://www.w3.org/Graphics/SVG/1.1/DTD/svg11.dtd" >
<svg xmlns="http://www.w3.org/2000/svg">
<metadata>
This is a custom SVG webfont generated by Font Squirrel.
Copyright   : c 1996 SoftMaker Software GmbH
</metadata>
<defs>
<font id="DigitalSerialBold" horiz-adv-x="1329" >
<font-face units-per-em="2048" ascent="1638" descent="-410" />
<missing-glyph horiz-adv-x="593" />
<glyph unicode=" "  horiz-adv-x="593" />
<glyph unicode="&#x09;" horiz-adv-x="593" />
<glyph unicode="&#xa0;" horiz-adv-x="593" />
<glyph unicode="!" horiz-adv-x="512" d="M131 129q0 53 35 90t86 37q53 0 92 -37t39 -90q0 -55 -37 -92t-92 -37q-51 0 -87 38t-36 91zM145 326v1151h215v-1151h-215z" />
<glyph unicode="&#x22;" horiz-adv-x="673" d="M55 1339q0 55 39 96.5t96 41.5q55 0 92 -39t37 -101q0 -25 -26 -92l-98 -235h-125l92 207q-107 71 -107 122zM354 1339q0 55 39 96.5t96 41.5q55 0 92 -39t37 -101q0 -25 -26 -92l-100 -235h-125l92 207q-105 71 -105 122z" />
<glyph unicode="#" horiz-adv-x="1294" d="M88 451l23 110h237l74 352h-236l23 111h237l91 428h110l-90 -428h205l92 428h111l-93 -428h238l-25 -111h-235l-76 -352h238l-25 -110h-235l-90 -428h-111l90 428h-207l-90 -428h-111l91 428h-236zM459 561h205l75 352h-207z" />
<glyph unicode="$" horiz-adv-x="1128" d="M86 0v211h440v428h-86q-154 0 -253 87t-99 220v182q0 166 93 257.5t261 91.5h84v84h90v-84h426v-217h-426v-424h86q147 0 239.5 -76t92.5 -197v-239q0 -141 -93 -232.5t-239 -91.5h-86v-203h-90v203h-440zM305 989q0 -152 133 -151h88v422h-92q-59 0 -94 -33t-35 -86 v-152zM616 213h62q61 0 100 35t39 88v188q0 53 -41 86t-112 33h-48v-430z" />
<glyph unicode="%" horiz-adv-x="1505" d="M72 1055v221q0 94 59 147.5t162 53.5h186q102 0 161.5 -53.5t59.5 -147.5v-221q0 -96 -57 -149.5t-164 -53.5h-186q-102 0 -161.5 53.5t-59.5 149.5zM238 0l823 1477h219l-834 -1477h-208zM262 1083q6 -49 74 -49h86q29 0 51.5 14.5t22.5 34.5v19v125v20q0 18 -21.5 31.5 t-52.5 13.5h-86q-31 0 -52.5 -13t-21.5 -32v-20v-125v-19zM807 197v221q0 96 59.5 149.5t161.5 53.5h184q104 0 164 -53.5t60 -149.5v-221q0 -94 -58.5 -147.5t-165.5 -53.5h-184q-102 0 -161.5 53.5t-59.5 147.5zM995 225q10 -45 76 -45h86q31 0 52.5 13.5t21.5 31.5v23 v123v18q0 20 -20.5 34.5t-53.5 14.5h-86q-31 0 -53.5 -14t-22.5 -35v-18v-123v-23z" />
<glyph unicode="&#x26;" horiz-adv-x="1490" d="M86 319v164q0 43 25 90q43 98 96 125l72 37l75 49l-55 64l-47 51q-68 82 -68 186v119q0 41 29 98.5t73 98.5t99 58.5t143 17.5h170q90 0 141.5 -20.5t100.5 -76.5q80 -84 80 -176v-145q0 -57 -39 -118.5t-100 -98.5l-176 -107l315 -315l6 29v49l2 250h211v-295 q0 -72 -6 -107t-33 -104l232 -242h-297l-68 80q-86 -49 -136 -64.5t-128 -15.5h-375q-131 0 -236.5 99t-105.5 220zM293 340q0 -49 39 -82t98 -33h356q39 0 56.5 4t46.5 23l-377 379l-125 -74q-47 -27 -61.5 -45t-23.5 -38.5t-9 -41.5v-92zM397 1114q0 -59 49 -119l99 -100 l182 104q31 16 53.5 48t22.5 61v49q0 45 -33 76t-80 31h-176q-47 0 -82 -33t-35 -76v-41z" />
<glyph unicode="'" horiz-adv-x="374" d="M55 1339q0 55 39 96.5t96 41.5q55 0 92 -39t37 -101q0 -25 -26 -92l-98 -235h-125l92 207q-107 71 -107 122z" />
<glyph unicode="(" horiz-adv-x="546" d="M131 117v1177q0 104 29 185q16 51 29.5 77.5t48.5 73.5h237q-45 -53 -62.5 -82.5t-35.5 -83.5q-33 -90 -33 -190v-1135q0 -100 33 -190q18 -53 35.5 -83t62.5 -83h-237q-31 43 -47.5 73.5t-32 77t-21.5 88.5t-6 95z" />
<glyph unicode=")" horiz-adv-x="546" d="M72 -217q43 51 60.5 82t37.5 84q31 84 31 190v1135q0 55 -6.5 98t-25.5 94.5t-36.5 82t-60.5 81.5h237q31 -43 47.5 -74.5t31.5 -76.5t21.5 -87t6.5 -98v-1177q0 -63 -4 -95t-25 -88q-16 -53 -29.5 -78.5t-48.5 -72.5h-237z" />
<glyph unicode="*" horiz-adv-x="813" d="M78 1233l86 158l242 -242l-89 328h183l-78 -324l229 233l84 -157l-315 -88l315 -88l-86 -158l-235 235l84 -315h-183l88 313l-241 -231l-82 160l313 84z" />
<glyph unicode="+" d="M119 651v178h454l2 471h179l2 -471h452v-178h-452l-2 -469h-179l-2 469h-454z" />
<glyph unicode="," horiz-adv-x="374" d="M55 127q0 55 40 95t95 40q53 0 91 -40t38 -97q0 -27 -26 -94l-98 -238h-125l92 207q-107 78 -107 127z" />
<glyph unicode="-" horiz-adv-x="667" d="M72 469v217l526 -2v-213z" />
<glyph unicode="." horiz-adv-x="364" d="M55 129q0 53 35 90t90 37q53 0 90 -37t37 -90q0 -55 -34.5 -92t-90.5 -37q-53 0 -90 37t-37 92z" />
<glyph unicode="/" horiz-adv-x="1183" d="M72 0l825 1477h217l-831 -1477h-211z" />
<glyph unicode="0" d="M135 414v649q0 106 22.5 175t78.5 126q68 72 130 92.5t218 20.5h159q156 0 219.5 -20.5t131.5 -92.5q55 -57 77.5 -125t22.5 -176v-649q0 -113 -20.5 -177.5t-79.5 -125.5q-68 -70 -130.5 -90.5t-220.5 -20.5h-159q-156 0 -218.5 20.5t-129.5 90.5q-55 57 -78 125.5 t-23 177.5zM348 403q0 -111 41 -149.5t162 -38.5h231q115 0 157 40t42 148v670q0 111 -41 150t-158 39h-231q-117 0 -160 -39t-43 -150v-670z" />
<glyph unicode="1" d="M557 0v1477h213v-1477h-213z" />
<glyph unicode="2" d="M190 0v457q0 154 93.5 257t230.5 103h307q41 0 72 33t31 76v211q0 125 -109 125h-625v215h609q145 0 241.5 -86t96.5 -217v-250q0 -133 -93.5 -226.5t-224.5 -93.5h-282q-27 0 -57.5 -12t-47.5 -29q-25 -29 -24 -88v-260h731v-215h-949z" />
<glyph unicode="3" d="M168 0v215h616q49 0 84 33t35 82v159q0 143 -133 144h-289v215h289q35 0 61 14q35 12 48 29q25 29 24 100v160q0 47 -34.5 82t-84.5 35h-616v209h596q168 0 258 -88q45 -41 69.5 -97.5t24.5 -115.5v-213q0 -45 -13 -90.5t-38 -72t-88 -59.5q45 -27 49 -28q20 -14 33 -27 q25 -27 41 -74t16 -94v-213q0 -129 -100.5 -217t-251.5 -88h-596z" />
<glyph unicode="4" d="M115 608q0 53 28 99l469 770h250l-510 -838l529 -2v840h213v-1477h-213v430h-543q-102 0 -162.5 48t-60.5 130z" />
<glyph unicode="5" d="M184 0v215h590q68 0 109 30.5t41 84.5v272q0 135 -140 135h-598v740h951v-215h-736v-312h392q156 0 250 -92t94 -242v-276q0 -152 -96.5 -246t-254.5 -94h-602z" />
<glyph unicode="6" d="M131 332v805q0 160 86 250t244 90h737v-215h-715q-139 0 -139 -127v-185h500q164 0 258 -96t94 -227v-295q0 -131 -94 -231.5t-219 -100.5h-416q-143 0 -239.5 94.5t-96.5 237.5zM344 352q0 -53 46 -95t108 -42h364q47 0 84 35t37 84v274q0 72 -33 97q-49 31 -106 30 h-357q-66 0 -104.5 -30.5t-38.5 -86.5v-266z" />
<glyph unicode="7" d="M162 1262v215h823q72 0 120 -46.5t48 -115.5q0 -31 -12 -60l-533 -1255h-233l536 1262h-749z" />
<glyph unicode="8" d="M133 309v166q0 57 16.5 114.5t39 87.5t77.5 62q-20 12 -35.5 23.5t-21.5 17.5q-35 31 -55.5 91.5t-20.5 129.5v166q0 133 102.5 221.5t264.5 88.5h327q160 0 264.5 -88.5t104.5 -221.5v-166q0 -57 -17.5 -115.5t-39 -86t-76.5 -60.5l57 -41q35 -33 55.5 -93t20.5 -130 v-166q0 -129 -106.5 -219t-262.5 -90h-327q-156 0 -261.5 89t-105.5 220zM348 350q0 -61 43 -98t119 -37h299q82 0 127 35t45 100v158q0 57 -43 92t-115 35h-329q-66 0 -106 -34t-40 -93v-158zM348 991q0 -66 37 -104.5t98 -38.5h348q68 0 109 39t41 104v135q0 135 -154 136 h-340q-139 0 -139 -136v-135z" />
<glyph unicode="9" d="M131 0v215h715q63 0 101 34t38 95v182h-500q-164 0 -258 95.5t-94 226.5v297q0 131 94.5 231.5t216.5 100.5h418q141 0 238.5 -95.5t97.5 -236.5v-805q0 -162 -87 -251t-243 -89h-737zM346 868q0 -72 33 -96q49 -31 106 -31h357q66 0 104.5 31t38.5 86v266q0 55 -47 96.5 t-109 41.5h-362q-47 0 -84 -35t-37 -84v-275z" />
<glyph unicode=":" horiz-adv-x="421" d="M86 129q0 53 35 90t88 37q51 0 90 -37t39 -90t-36 -91t-91 -38q-53 0 -89 38t-36 91zM86 758q0 53 35 90t88 37q51 0 90 -37t39 -90t-36 -91t-91 -38q-53 0 -89 38t-36 91z" />
<glyph unicode=";" horiz-adv-x="434" d="M86 127q0 53 39 94t94 41q53 0 91 -40t38 -97q0 -18 -5 -35.5t-19 -58.5l-101 -238h-125l92 207q-104 78 -104 127zM86 758q0 53 35 90t88 37q51 0 90 -37t39 -90t-36 -91t-91 -38q-53 0 -89 38t-36 91z" />
<glyph unicode="&#x3c;" horiz-adv-x="579" d="M72 555q0 37 18 70l277 407h133l-326 -471l336 -469h-139l-279 397q-20 31 -20 66z" />
<glyph unicode="=" d="M117 463v219h1093v-219h-1093zM117 799v219h1093v-219h-1093z" />
<glyph unicode="&#x3e;" horiz-adv-x="579" d="M72 92l334 469l-326 471h133l276 -407q8 -14 14.5 -33t6.5 -37q0 -14 -6 -31.5t-17 -34.5l-276 -397h-139z" />
<glyph unicode="?" horiz-adv-x="1073" d="M43 1266v211h637q123 0 215 -88.5t92 -204.5v-252q0 -117 -92 -199t-223 -82h-207v-327h-213v338q0 90 50 142t134 52h215q55 0 90 28.5t35 73.5v164q0 143 -121 144h-612zM233 129q0 53 35 90t86 37q53 0 92 -37t39 -90q0 -55 -36.5 -92t-92.5 -37q-51 0 -87 38t-36 91z " />
<glyph unicode="@" horiz-adv-x="1730" d="M119 786q0 158 63.5 288t184.5 239q180 162 403 186q49 6 96 6q272 0 450.5 -178t178.5 -448q0 -70 -12 -142q-23 -125 -77 -223t-130 -156q-43 -33 -85 -47t-85 -14q-59 0 -105.5 30.5t-60.5 82.5q-2 8 -4 21t-2 38q-12 -37 -41 -70q-74 -88 -170 -88q-43 0 -98 23 q-160 70 -160 364l8 72q14 100 47 175t88 142q49 57 109.5 87t118.5 30q123 0 176 -104l10 -21l18 111h101l-76 -436l-27 -174q-6 -41 -6 -70t2 -41q6 -12 6 -18q20 -57 84 -58q18 0 29 4q29 10 52.5 28.5t60.5 63.5q39 41 67.5 110t42.5 159q4 25 6 55.5t2 58.5 q0 233 -144 380t-372 147q-45 0 -94 -6q-225 -33 -375.5 -218.5t-150.5 -441.5v-47q4 -23 4 -31q25 -264 194.5 -425.5t399.5 -161.5q121 0 237 49q150 61 267 188l51 62l37 -88l-52 -60q-236 -248 -548 -248q-315 0 -517 230.5t-202 584.5zM586 596q0 -37 7 -68.5t19 -56.5 q35 -74 121 -74q53 0 92 39q29 29 46.5 62.5t46.5 113.5q18 51 38 150l2 20l15 86q6 47 6 76q0 31 -2 43q-8 57 -46 91t-89 34q-31 0 -54 -10q-55 -23 -90.5 -71t-72.5 -157q-14 -43 -24.5 -97t-12.5 -91t-2 -90z" />
<glyph unicode="A" horiz-adv-x="1286" d="M-18 0l489 1337q33 88 68.5 122t99.5 34q70 0 106.5 -33t71.5 -123l488 -1337h-230l-110 307h-641l-113 -307h-229zM401 520h484l-246 674z" />
<glyph unicode="B" horiz-adv-x="1308" d="M131 0v1477h748q141 0 225 -97q41 -47 64.5 -105t23.5 -110v-178q0 -45 -17.5 -99t-37 -80t-72.5 -65q12 -6 25.5 -16t23.5 -16q35 -29 57.5 -82.5t22.5 -108.5v-139q0 -164 -96.5 -272.5t-243.5 -108.5h-723zM344 215h481q59 0 106.5 47t47.5 109v139q0 39 -39 72 q-49 45 -111 45h-485v-412zM344 842h487q68 0 108 38t40 103v141q0 59 -43 98.5t-107 39.5h-485v-420z" />
<glyph unicode="C" horiz-adv-x="1177" d="M131 354v758q0 164 92 264.5t246 100.5h623v-215h-594q-154 0 -154 -154v-735q0 -68 43 -113t111 -45h589v-215h-632q-135 0 -229.5 104.5t-94.5 249.5z" />
<glyph unicode="D" horiz-adv-x="1320" d="M131 0v1477h750q135 0 223 -96.5t88 -245.5v-758q0 -160 -100.5 -268.5t-249.5 -108.5h-711zM344 215h485q150 0 150 176v703q0 96 -34 132t-120 36h-481v-1047z" />
<glyph unicode="E" horiz-adv-x="1200" d="M131 397v711q0 211 137 307q53 37 112.5 49.5t180.5 12.5h537v-215h-533h-90q-55 0 -93 -46.5t-38 -113.5v-252h754v-215h-754v-197v-92q0 -51 43 -92q39 -33 76 -39h115h516v-215h-572q-102 0 -171.5 24.5t-124 82t-75 119.5t-20.5 171z" />
<glyph unicode="F" horiz-adv-x="1146" d="M131 0v1087q0 217 117 316q53 45 113.5 59.5t191.5 14.5h551v-215h-574h-63q-37 -4 -68 -25q-55 -41 -55 -125v-270h758v-215h-758v-627h-213z" />
<glyph unicode="G" horiz-adv-x="1316" d="M131 383v707q0 387 391 387h568v-215h-586q-86 0 -123 -37t-37 -123v-731q0 -70 33 -113t84 -43h57h297q72 0 115 39t43 111v477h213v-455q0 -90 -16.5 -147.5t-59.5 -112.5q-57 -72 -121.5 -99.5t-173.5 -27.5h-295q-160 0 -254 78q-78 59 -106.5 124.5t-28.5 180.5z " />
<glyph unicode="H" d="M131 0v1477h213v-635h641v635h215v-1477h-215v627h-641v-627h-213z" />
<glyph unicode="I" horiz-adv-x="473" d="M131 0v1477h213v-1477h-213z" />
<glyph unicode="J" horiz-adv-x="561" d="M10 0v215h62q70 0 112 47q20 23 26.5 48.5t6.5 88.5v1078h213v-1071q0 -193 -92 -299.5t-262 -106.5h-66z" />
<glyph unicode="K" horiz-adv-x="1189" d="M131 0v1477h213v-1477h-213zM356 762q0 45 43 100l58 70l442 545h277l-586 -719l616 -760l-276 2l-484 596q-90 109 -90 166z" />
<glyph unicode="L" horiz-adv-x="1085" d="M131 373v1104h213v-1102q0 -90 37 -125t135 -35h557v-215h-553q-188 0 -288.5 96.5t-100.5 276.5z" />
<glyph unicode="M" horiz-adv-x="1738" d="M131 0v1260q0 240 193 239q106 0 151 -34.5t76 -145.5l313 -1083l322 1083q33 106 76 143t133 37q213 0 213 -239v-1260h-213v1264l-330 -1102q-29 -100 -71 -140t-115 -40q-90 0 -131 36.5t-74 143.5l-330 1102v-1264h-213z" />
<glyph unicode="N" horiz-adv-x="1298" d="M131 0v1272q0 113 44 163t142 50q72 0 114 -32t77 -112l444 -1083v1219h215v-1301q0 -86 -53 -141t-135 -55q-129 0 -191 151l-444 1063v-1194h-213z" />
<glyph unicode="O" horiz-adv-x="1318" d="M131 414v649q0 111 21.5 177.5t78 130t127 85t222.5 21.5h159q158 0 222.5 -20.5t130.5 -88.5q98 -104 98 -305v-649q0 -111 -20.5 -177.5t-79 -130t-129 -85t-222.5 -21.5h-159q-156 0 -223.5 20.5t-129.5 88.5q-96 102 -96 305zM344 403q0 -111 41 -149.5t162 -38.5 h227q119 0 161 38t42 148v672q0 106 -43 147.5t-160 41.5h-227q-117 0 -160 -39t-43 -150v-670z" />
<glyph unicode="P" horiz-adv-x="1241" d="M131 0v1477h637q123 0 188.5 -18.5t126.5 -72.5q100 -88 101 -264v-211q0 -174 -103.5 -271t-287.5 -97h-449v-543h-213zM344 756h447q98 0 140 37.5t42 128.5v190q0 80 -41 115t-137 35h-451v-506z" />
<glyph unicode="Q" horiz-adv-x="1316" d="M131 362v762q0 90 20.5 148.5t69.5 109.5q43 41 108.5 68t127.5 27h405q61 0 124 -25t110 -70q90 -88 90 -258v-762q0 -193 -90 -270q-20 -16 -45 -29.5t-66 -27.5l-20 -8l221 -228h-293l-209 201h-227q-137 0 -236 98q-90 88 -90 264zM344 383q0 -78 41 -123t113 -45 h323q70 0 111 43t41 119v727q0 72 -41 115t-111 43h-323q-68 0 -111 -43t-43 -115v-721z" />
<glyph unicode="R" horiz-adv-x="1277" d="M131 0v1477h746q139 0 239 -109q41 -45 55.5 -86t14.5 -113v-256q0 -113 -85 -199.5t-196 -86.5l-250 2l543 -629h-285l-532 616q-27 29 -27 74q0 70 43 111t117 41h324q55 0 96 34.5t41 84.5v163q0 137 -133 138h-498v-1262h-213z" />
<glyph unicode="S" horiz-adv-x="1124" d="M86 0v215h590q59 0 100 35t41 86v186q0 57 -42 91t-113 34h-222q-152 0 -253 85t-101 214v184q0 111 30.5 176.5t104.5 114.5q45 31 93 43.5t128 12.5h598v-215h-608q-131 0 -131 -121v-148q0 -152 139 -151h258q137 0 235.5 -84t98.5 -201v-231q0 -141 -94 -233.5 t-238 -92.5h-614z" />
<glyph unicode="T" horiz-adv-x="876" d="M10 1262v215h856v-215h-321v-1262h-215v1262h-320z" />
<glyph unicode="U" horiz-adv-x="1310" d="M131 362v1115h213v-1088q0 -96 35 -135t125 -39h303q88 0 124 36t36 126v1100h213v-1115q0 -156 -97.5 -259t-242.5 -103h-369q-147 0 -243.5 102t-96.5 260z" />
<glyph unicode="V" horiz-adv-x="1273" d="M-18 1477h229l422 -1184l430 1184h227l-495 -1371q-25 -66 -63 -96t-97 -30t-95 29.5t-61 96.5z" />
<glyph unicode="W" horiz-adv-x="1744" d="M20 1477h220l258 -1160l202 1004q37 178 174 178q133 0 170 -178l203 -1004l258 1160h219l-299 -1338q-35 -158 -176 -157q-147 0 -178 157l-199 991l-198 -991q-31 -158 -174 -157q-72 0 -118 39.5t-63 117.5z" />
<glyph unicode="X" horiz-adv-x="1345" d="M-18 -4l559 776l-508 705h266l373 -519l372 519h267l-510 -705l563 -772h-266l-426 590l-424 -590z" />
<glyph unicode="Y" horiz-adv-x="1210" d="M-33 1477h254l379 -613l387 613h254l-534 -844v-633h-213l-2 633z" />
<glyph unicode="Z" horiz-adv-x="1093" d="M63 186q0 55 39 111l684 965h-704v215h776q78 0 126 -48.5t48 -125.5q0 -61 -39 -117l-688 -971h709v-215h-758q-82 0 -137.5 53t-55.5 133z" />
<glyph unicode="[" horiz-adv-x="569" d="M131 -221v1843h367v-176h-162v-1491h162v-176h-367z" />
<glyph unicode="\" horiz-adv-x="667" d="M88 1475h184l258 -1475h-184z" />
<glyph unicode="]" horiz-adv-x="569" d="M72 -45h161v1491h-161v176h368v-1843h-368v176z" />
<glyph unicode="^" horiz-adv-x="575" d="M10 1210l162 236h217l174 -234h-160l-118 174l-113 -176h-162z" />
<glyph unicode="_" horiz-adv-x="987" d="M88 0h737v-66h-737v66z" />
<glyph unicode="`" horiz-adv-x="323" d="M-33 1446h203l84 -236h-123z" />
<glyph unicode="a" horiz-adv-x="1181" d="M131 297v133q0 166 72.5 255t208.5 89h456v72q0 78 -110 78h-627v184h655q76 0 113 -12.5t75 -51t59.5 -89t21.5 -103.5v-569q0 -111 -82 -197t-189 -86h-370q-111 0 -197 90t-86 207zM315 293q0 -18 12.5 -46t30.5 -44q29 -18 109 -19h250q84 0 104.5 16.5t33.5 44 t13 48.5v178q0 55 -40 88t-109 33h-256q-66 0 -107 -33t-41 -88v-178z" />
<glyph unicode="b" horiz-adv-x="1173" d="M131 311v1166h184v-369h428q143 0 221 -71.5t78 -209.5v-536q0 -129 -69 -201q-90 -90 -205 -90h-362q-115 0 -195 90t-80 221zM315 317q0 -59 33 -96t88 -37h322q43 0 71.5 33t28.5 84v498q0 125 -121 125h-303q-119 0 -119 -121v-486z" />
<glyph unicode="c" horiz-adv-x="937" d="M131 281v546q0 84 22.5 134.5t79.5 85.5q86 61 203 61h422v-184h-422q-55 0 -88 -33t-33 -88v-481q0 -55 37 -96.5t90 -41.5h420v-184h-424q-131 0 -219 80t-88 201z" />
<glyph unicode="d" horiz-adv-x="1173" d="M131 291v536q0 135 77 208t222 73h428v369h184v-1166q0 -129 -80.5 -220t-193.5 -91h-362q-49 0 -106.5 24.5t-98.5 65.5q-70 70 -70 201zM315 301q0 -47 29 -82t70 -35h323q55 0 88 37t33 96v486q0 121 -119 121h-303q-121 0 -121 -125v-498z" />
<glyph unicode="e" horiz-adv-x="1142" d="M131 293v495q0 319 340 320h274q139 0 216 -75t77 -210v-131l-723 -336v-37l7 -47q6 -23 7 -29.5t9 -19.5q20 -39 102 -39h609v-184h-617q-137 0 -219 80t-82 213zM315 561l537 250v18q0 53 -23.5 74t-89.5 21h-301q-123 0 -123 -140v-223z" />
<glyph unicode="f" horiz-adv-x="518" d="M131 0v1194q0 137 102 223q39 35 79 47.5t116 12.5h76v-187h-76q-113 0 -113 -131v-51h187v-184h-187v-924h-184z" />
<glyph unicode="g" horiz-adv-x="1179" d="M131 -176h596q55 0 65.5 2t32.5 22q41 41 41 103v49h-440q-123 0 -206 87t-83 214v522q0 123 75 204t187 81h392q121 0 189.5 -72.5t68.5 -197.5v-926q0 -125 -84 -198.5t-230 -73.5h-604v184zM322 317q0 -59 32.5 -96t85.5 -37h324q102 0 102 133v482q0 125 -100 125 h-311q-61 0 -97 -34t-36 -91v-482z" />
<glyph unicode="h" horiz-adv-x="1175" d="M131 0v1477h184v-369h459q129 0 199.5 -79t70.5 -185v-844h-182v793q0 61 -30.5 96t-83.5 35h-306q-127 0 -127 -125v-799h-184z" />
<glyph unicode="i" horiz-adv-x="442" d="M92 1348q0 55 35 92t88 37q55 0 93 -38t38 -91t-37 -90t-90 -37t-90 37t-37 90zM129 0v1108h182v-1108h-182z" />
<glyph unicode="j" horiz-adv-x="442" d="M-55 -176h71q113 0 113 119v1165h182v-1165q0 -78 -8 -116t-37 -81q-76 -106 -190 -106h-131v184zM94 1348q0 53 36 91t87 38q55 0 93 -38t38 -91t-37 -90t-90 -37t-90 37t-37 90z" />
<glyph unicode="k" horiz-adv-x="1107" d="M131 0v1477h184v-1477h-184zM324 569q0 35 9 57.5t34 47.5l432 434h260l-531 -535l553 -573h-254l-460 475q-43 49 -43 94z" />
<glyph unicode="l" horiz-adv-x="442" d="M131 0v1477h184v-1477h-184z" />
<glyph unicode="m" horiz-adv-x="1527" d="M131 0v825q0 135 65.5 209t186.5 74h168q45 0 96 -15.5t69.5 -28.5t47.5 -52l39 45q66 51 176 51h166q254 0 254 -283v-825h-187v813q0 104 -108 105h-146q-90 0 -90 -117v-801h-186v801q0 119 -113 119h-147q-57 0 -82 -25t-25 -82v-813h-184z" />
<glyph unicode="n" horiz-adv-x="1175" d="M131 0v823q0 145 96 226q72 59 213 59h293q141 0 215 -59q47 -39 71.5 -95.5t24.5 -130.5v-823h-182v799l-4 51q-2 18 -22 41q-35 29 -101 29h-295q-72 0 -98.5 -27t-26.5 -94v-799h-184z" />
<glyph unicode="o" horiz-adv-x="1189" d="M131 274v574q0 121 78 190.5t217 69.5h338q133 0 214 -70.5t81 -189.5v-576q0 -117 -84 -194.5t-211 -77.5h-338q-131 0 -213 75.5t-82 198.5zM315 332q0 -78 31 -113t100 -35h297q131 0 131 140v467q0 133 -131 133h-297q-131 0 -131 -133v-459z" />
<glyph unicode="p" horiz-adv-x="1185" d="M131 -360v1185q0 137 75 210t212 73h348q137 0 214 -70.5t77 -199.5v-531q0 -131 -82 -219t-203 -88h-457v-360h-184zM315 311q0 -53 29 -90t74 -37h350q47 0 75.5 31t28.5 80v524q0 104 -96 105h-330q-131 0 -131 -113v-500z" />
<glyph unicode="q" horiz-adv-x="1185" d="M131 307v531q0 127 76 198.5t213 71.5h348q137 0 213 -73.5t76 -209.5v-1185h-185v360h-458q-123 0 -203 86t-80 221zM315 295q0 -51 28 -81t75 -30h350q43 0 73.5 37t30.5 90v500q0 113 -133 113h-329q-94 0 -95 -105v-524z" />
<glyph unicode="r" horiz-adv-x="534" d="M131 0v815q0 152 62 219q33 31 93 52.5t117 21.5h105v-186h-90q-102 0 -103 -111v-811h-184z" />
<glyph unicode="s" horiz-adv-x="1013" d="M92 0v184h520h47q76 0 76 111v86q0 104 -108 104h-250q-125 0 -191 52q-39 29 -63.5 79t-24.5 99v139q0 119 65.5 186.5t180.5 67.5h578v-184h-525h-37q-35 0 -57 -22.5t-22 -59.5v-80q0 -39 29.5 -64.5t72.5 -25.5h274q106 0 184.5 -76t78.5 -180v-174q0 -94 -72 -168 t-166 -74h-590z" />
<glyph unicode="t" horiz-adv-x="487" d="M131 0v1477h184v-369h189v-184h-189v-924h-184z" />
<glyph unicode="u" horiz-adv-x="1175" d="M131 283v825h184v-801l2 -51q4 -23 23 -39q31 -29 100 -29h295q72 0 99.5 26t27.5 93v801h182v-825q0 -141 -96 -226q-39 -31 -89 -44t-126 -13h-293q-82 0 -126 12.5t-87 44.5q-96 81 -96 226z" />
<glyph unicode="v" horiz-adv-x="1060" d="M-2 1108h197l333 -901l338 901h197l-379 -1016q-23 -63 -57.5 -87.5t-98.5 -24.5q-61 0 -96 24.5t-57 87.5z" />
<glyph unicode="w" horiz-adv-x="1529" d="M20 1108h181l213 -883l213 809q10 43 47 67.5t90 24.5q51 0 90 -25.5t49 -66.5l213 -809l213 883h180l-245 -1026q-10 -45 -48 -72.5t-94 -27.5q-125 0 -157 120l-197 781l-203 -781q-35 -121 -159 -120q-53 0 -91.5 27.5t-48.5 72.5z" />
<glyph unicode="x" horiz-adv-x="1038" d="M10 0l398 571l-373 537h231l252 -373l256 373h230l-373 -537l397 -571h-227l-285 412l-278 -412h-228z" />
<glyph unicode="y" horiz-adv-x="1173" d="M131 -176h614q113 0 113 117v59h-461q-115 0 -190.5 78t-75.5 192v838h184v-786q0 -137 129 -138h289q125 0 125 117v807h184v-1157q0 -147 -75.5 -229t-210.5 -82h-625v184z" />
<glyph unicode="z" horiz-adv-x="1112" d="M70 141q0 59 36 97l687 686h-691v184h795q66 0 104.5 -39t38.5 -104q0 -59 -24 -84l-699 -697h703v-184h-821q-129 0 -129 141z" />
<glyph unicode="{" horiz-adv-x="718" d="M88 737q57 0 94 41t37 107v667q0 74 44 116t128 42h187v-108h-25q-68 0 -92.5 -25t-24.5 -92v-578q0 -74 -55 -125q-43 -39 -98 -45q29 -4 53 -14q100 -49 100 -156v-577q0 -70 23.5 -93.5t93.5 -23.5h25v-109h-187q-82 0 -127 41t-45 117v668q0 66 -37 106.5t-94 40.5z " />
<glyph unicode="|" horiz-adv-x="389" d="M88 0v1475h184v-1475h-184z" />
<glyph unicode="}" horiz-adv-x="718" d="M88 -127h25q70 0 94 24.5t24 92.5v577q0 109 101 156q23 10 53 14q-31 4 -53 15q-100 47 -101 155v578q0 70 -23.5 93.5t-94.5 23.5h-25v108h186q84 0 129.5 -41t45.5 -117v-667q0 -63 35.5 -105.5t93.5 -42.5q-55 0 -92 -41t-37 -106v-668q0 -74 -46.5 -116t-128.5 -42 h-186v109z" />
<glyph unicode="~" horiz-adv-x="686" d="M10 1591v133l27 17q74 45 158 45q61 0 127 -33l67 -35l47 -24q12 -6 39 -6q43 0 96 26l103 58v-127l-68 -41q-49 -35 -121 -35q-35 0 -69.5 8t-57.5 22l-69 43l-37 25q-23 14 -49 14q-51 0 -101 -30z" />
<glyph unicode="&#xa1;" horiz-adv-x="512" d="M131 1348q0 55 35 92t90 37q53 0 90 -37t37 -92q0 -53 -37 -90t-88 -37q-53 0 -90 37t-37 90zM152 0v1151h213v-1151h-213z" />
<glyph unicode="&#xa2;" horiz-adv-x="940" d="M131 274v549q0 88 22.5 136.5t84.5 89.5q90 59 202 59h97v98h88v-98h237v-184h-237v-738l237 -2v-184h-237v-162h-88v162h-97q-133 0 -221 77.5t-88 196.5zM315 317q0 -55 36 -93t93 -38h93v738h-97q-59 0 -92 -33t-33 -92v-482z" />
<glyph unicode="&#xa3;" horiz-adv-x="1265" d="M55 854h250v320q0 141 81 222t220 81l125 -2q119 0 201 -84t82 -205v-139h-221v100q0 45 -30 81t-65 36h-80q-102 0 -102 -117v-295h391v-209h-391v-145q0 -43 -12 -105q-8 -55 -22.5 -90t-53.5 -92h455q51 0 90 45t39 109v67h215v-84q0 -156 -90 -252t-236 -96l-844 -4 v213q78 20 113 39.5t74 66.5q61 68 61 172v156h-248z" />
<glyph unicode="&#xa4;" horiz-adv-x="1011" d="M88 434l123 123q-27 35 -43 87t-16 99q0 98 59 181l-121 116q29 41 68 76l127 -123q84 61 184 62q102 0 184 -60l123 123l21 -16q29 -25 51 -62l-121 -114q59 -84 59 -187q0 -102 -61 -186l123 -123l-17 -16l-16 -19l-41 -37l-121 123q-84 -61 -184 -61q-102 0 -184 63 l-127 -123l-19 17l-16 18l-19 19zM258 737q0 -84 61.5 -147.5t149.5 -63.5t149.5 61.5t61.5 149.5t-61.5 149.5t-149.5 61.5t-149.5 -61.5t-61.5 -149.5z" />
<glyph unicode="&#xa5;" horiz-adv-x="1300" d="M10 1477h256l379 -613l387 613h254l-375 -607h340v-145h-428l-73 -92l6 -92h493v-150h-493l-6 -391h-211l-2 391h-478v154h478v88l-54 92h-422v147h330z" />
<glyph unicode="&#xa7;" horiz-adv-x="1732" d="M131 0v1116q0 166 93 263.5t251 97.5h168q57 0 105.5 -13.5t68 -27t49.5 -56.5l31 39q61 57 195 58h165q160 0 253.5 -97.5t93.5 -263.5v-1116h-213v1126q0 80 -33 111t-119 31h-123q-80 0 -115 -37q-27 -29 -26 -94v-1137h-215v1137q0 66 -27 94q-35 37 -117 37h-124 q-82 0 -115 -31t-33 -111v-1126h-213z" />
<glyph unicode="&#xa8;" horiz-adv-x="569" d="M-18 1348q0 55 34.5 92t87.5 37t92.5 -37t39.5 -92q0 -53 -37 -90t-90 -37t-90 37t-37 90zM334 1348q0 55 34.5 92t90.5 37q53 0 90 -37t37 -92q0 -53 -35 -90t-90 -37q-53 0 -90 37t-37 90z" />
<glyph unicode="&#xa9;" horiz-adv-x="1908" d="M119 739q0 152 57 291t167 249t249 166t291 56q150 0 289 -55t251 -168q223 -223 224 -539q0 -317 -223.5 -540.5t-540.5 -223.5t-540.5 223.5t-223.5 540.5zM229 739q0 -133 49.5 -255t142.5 -216t214 -144t248 -50t246.5 49t213 143t143.5 219t50 252q0 131 -48 252 t-141.5 216t-215 145.5t-248.5 50.5q-129 0 -247 -47t-214 -146q-193 -197 -193 -469zM424 723q0 45 8 94t27 96q53 143 174 226.5t276 83.5h38q15 0 54 -9q131 -23 232 -106l-68 -96q-76 63 -168 82q-18 2 -34.5 5t-38.5 3q-135 0 -236.5 -86t-122.5 -221q-4 -16 -4 -36 v-30q0 -137 83 -238.5t216 -123.5q14 -2 28.5 -3.5t29.5 -1.5q109 0 198 58l47 33l68 -97q-66 -55 -143.5 -84.5t-165.5 -29.5q-211 0 -354.5 139t-143.5 342z" />
<glyph unicode="&#xaa;" horiz-adv-x="987" d="M88 1135q0 158 98.5 260t233.5 102q31 0 61 -6q113 -25 174 -117l11 -18l8 -15v134h151v-687h-153v142l-6 -17l-9 -16q-33 -57 -96 -92t-141 -35q-66 0 -127 27q-164 63 -199 258zM109 549v139h716v-139h-716zM245 1111q1 -13 5 -24q12 -72 57 -118.5t113 -59.5 q29 -4 45 -4q43 0 80 19q102 45 127 163q4 14 4 46q0 31 -4 47q-25 119 -123 163q-18 8 -46 14.5t-44 6.5q-78 0 -136.5 -50t-74.5 -138l-2 -41q-2 -11 -1 -24z" />
<glyph unicode="&#xab;" horiz-adv-x="866" d="M72 555q0 37 18 70l277 407h133l-326 -471l330 -469h-133l-279 397q-20 31 -20 66zM354 555q0 43 21 70l276 407h133l-327 -471l331 -469h-137l-276 397q-21 27 -21 66z" />
<glyph unicode="&#xac;" horiz-adv-x="1306" d="M88 737v185h1032v-480h-147v295h-885z" />
<glyph unicode="&#xad;" horiz-adv-x="667" d="M72 469v217l526 -2v-213z" />
<glyph unicode="&#xae;" horiz-adv-x="1908" d="M119 739q0 152 57 291t167 249t249 166t291 56q150 0 289 -55t251 -168q223 -223 224 -539q0 -317 -223.5 -540.5t-540.5 -223.5t-540.5 223.5t-223.5 540.5zM229 739q0 -133 49.5 -255t142.5 -216t214 -144t248 -50t246.5 49t213 143t143.5 219t50 252q0 131 -48 252 t-141.5 216t-215 145.5t-248.5 50.5q-129 0 -247 -47t-214 -146q-193 -197 -193 -469zM637 276v943h233q80 0 128.5 -12.5t86.5 -43.5q68 -59 86 -147q6 -35 7 -64q0 -96 -57.5 -162.5t-151.5 -82.5l-31 -2l289 -429h-158l-299 457v-457h-133zM770 780h78q90 0 141 43 t51 119q0 166 -182 166h-88v-328z" />
<glyph unicode="&#xaf;" horiz-adv-x="550" d="M10 1391l529 2l2 -148h-529z" />
<glyph unicode="&#xb1;" horiz-adv-x="1216" d="M90 39v139h946v-139h-946zM90 539v139h404v250h139v-250h403v-139h-403v-250h-139v250h-404z" />
<glyph unicode="&#xb2;" d="M190 0v457q0 154 93.5 257t230.5 103h307q41 0 72 33t31 76v211q0 125 -109 125h-625v215h609q145 0 241.5 -86t96.5 -217v-250q0 -133 -93.5 -226.5t-224.5 -93.5h-282q-27 0 -57.5 -12t-47.5 -29q-25 -29 -24 -88v-260h731v-215h-949z" />
<glyph unicode="&#xb3;" d="M168 0v215h616q49 0 84 33t35 82v159q0 143 -133 144h-289v215h289q35 0 61 14q35 12 48 29q25 29 24 100v160q0 47 -34.5 82t-84.5 35h-616v209h596q168 0 258 -88q45 -41 69.5 -97.5t24.5 -115.5v-213q0 -45 -13 -90.5t-38 -72t-88 -59.5q45 -27 49 -28q20 -14 33 -27 q25 -27 41 -74t16 -94v-213q0 -129 -100.5 -217t-251.5 -88h-596z" />
<glyph unicode="&#xb4;" horiz-adv-x="348" d="M90 1210l86 236h203l-162 -236h-127z" />
<glyph unicode="&#xb5;" horiz-adv-x="1275" d="M150 -285l4 119l4 182l-2 207l-4 195v502h188v-607q0 -145 28.5 -194t102.5 -49q117 0 194.5 165.5t77.5 417.5v267h189v-672q0 -92 19.5 -135t58.5 -43q41 0 64.5 42t23.5 126v28h43l2 -18v-27q0 -113 -48 -176t-137 -63q-100 0 -154 88t-54 264q-47 -182 -126 -267 t-198 -85q-86 0 -150 53q-57 55 -81 158l-2 -58q0 -133 65.5 -290.5t65.5 -186.5q0 -41 -22.5 -63.5t-63.5 -22.5q-47 0 -67.5 34.5t-20.5 108.5z" />
<glyph unicode="&#xb6;" d="M88 1065q0 170 118 290t288 120h647v-119h-647q-119 0 -203 -86t-84 -209q0 -119 84 -203t203 -84h137v488h125v-1262h-125v655h-137q-168 0 -287 119t-119 291zM889 0v1262h125v-1262h-125z" />
<glyph unicode="&#xb7;" horiz-adv-x="421" d="M86 508q0 53 35 90t88 37q51 0 90 -37t39 -90t-36 -91t-91 -38q-53 0 -89 38t-36 91z" />
<glyph unicode="&#x2219;" horiz-adv-x="421" d="M86 508q0 53 35 90t88 37q51 0 90 -37t39 -90t-36 -91t-91 -38q-53 0 -89 38t-36 91z" />
<glyph unicode="&#xb8;" horiz-adv-x="262" d="M10 -252l103 219h135l-105 -219h-133z" />
<glyph unicode="&#xb9;" d="M557 0v1477h213v-1477h-213z" />
<glyph unicode="&#xba;" horiz-adv-x="987" d="M88 1135v31q0 13 8 44q27 133 125 215t232 82h31q13 0 46 -8q133 -27 215 -128t82 -234v-47q-6 -23 -8 -31q-29 -131 -128 -213t-232 -82q-31 0 -47 2q-20 6 -29 6q-111 23 -187.5 98.5t-99.5 188.5q-8 35 -8 76zM100 549v139h715v-139h-715zM240 1135l4 -41 q27 -152 168 -183q12 -2 23 -3t24 -1q78 0 136 50.5t75 134.5q4 33 4 45q0 123 -92 186q-25 18 -57.5 29.5t-67.5 11.5q-45 0 -88 -18q-102 -49 -125 -168z" />
<glyph unicode="&#xbb;" horiz-adv-x="866" d="M74 92l329 469l-325 471h133l276 -407q8 -14 14.5 -33t6.5 -37q0 -14 -6 -31.5t-17 -34.5l-274 -397h-137zM354 92l332 469l-328 471h136l274 -407q23 -29 23 -70q0 -37 -23 -66l-276 -397h-138z" />
<glyph unicode="&#xbf;" horiz-adv-x="1073" d="M86 293v252q0 117 92 198.5t225 81.5h205v328h213v-340q0 -88 -50 -140t-136 -52h-215q-55 0 -90 -29t-35 -74v-164q0 -68 32.5 -106.5t90.5 -38.5h614v-209h-641q-121 0 -213 88t-92 205zM590 1348q0 53 36 91t89 38t90 -37t37 -92q0 -53 -35 -90t-90 -37q-53 0 -90 37 t-37 90z" />
<glyph unicode="&#xc0;" horiz-adv-x="1286" d="M-18 0l489 1337q33 88 68.5 122t99.5 34q70 0 106.5 -33t71.5 -123l488 -1337h-230l-110 307h-641l-113 -307h-229zM401 520h484l-246 674zM448 1886h203l84 -236h-123z" />
<glyph unicode="&#xc1;" horiz-adv-x="1286" d="M-18 0l489 1337q33 88 68.5 122t99.5 34q70 0 106.5 -33t71.5 -123l488 -1337h-230l-110 307h-641l-113 -307h-229zM401 520h484l-246 674zM559 1650l86 236h203l-162 -236h-127z" />
<glyph unicode="&#xc2;" horiz-adv-x="1286" d="M-18 0l489 1337q33 88 68.5 122t99.5 34q70 0 106.5 -33t71.5 -123l488 -1337h-230l-110 307h-641l-113 -307h-229zM401 520h484l-246 674zM364 1650l162 236h217l174 -234h-160l-118 174l-113 -176h-162z" />
<glyph unicode="&#xc3;" horiz-adv-x="1286" d="M-18 0l489 1337q33 88 68.5 122t99.5 34q70 0 106.5 -33t71.5 -123l488 -1337h-230l-110 307h-641l-113 -307h-229zM401 520h484l-246 674zM309 1677v133l27 16q74 45 158 46q61 0 127 -33l67 -35l47 -25q12 -6 39 -6q43 0 96 27l103 57v-127l-68 -41q-47 -33 -121 -32 q-82 0 -127 28l-69 43l-37 25q-23 14 -49 14q-27 0 -51.5 -7t-49.5 -22z" />
<glyph unicode="&#xc4;" horiz-adv-x="1286" d="M-18 0l489 1337q33 88 68.5 122t99.5 34q70 0 106.5 -33t71.5 -123l488 -1337h-230l-110 307h-641l-113 -307h-229zM340 1688q0 51 36 89t87 38q53 0 92 -37t39 -90t-36 -91t-91 -38q-53 0 -90 37t-37 92zM401 520h484l-246 674zM692 1688q0 53 35 90t90 37q53 0 91 -36 t38 -91q0 -53 -36 -91t-91 -38q-53 0 -90 37t-37 92z" />
<glyph unicode="&#xc5;" horiz-adv-x="1286" d="M-18 0l489 1337q33 88 68.5 122t99.5 34q70 0 106.5 -33t71.5 -123l488 -1337h-230l-110 307h-641l-113 -307h-229zM401 520h484l-246 674zM463 1700q0 78 55 133t133 55t133.5 -55t55.5 -133q0 -76 -55.5 -131.5t-133.5 -55.5t-133 55.5t-55 131.5zM590 1700 q0 -27 17.5 -44.5t43.5 -17.5q25 0 43.5 18.5t18.5 43.5q0 27 -17.5 46t-44.5 19q-61 1 -61 -65z" />
<glyph unicode="&#xc6;" horiz-adv-x="1961" d="M-18 0l792 1348q35 59 108.5 94t164.5 35h815v-205h-631q-49 0 -85 -38t-36 -89v-297h750v-211h-750v-291q0 -53 39 -92t92 -39h619v-215h-574q-139 0 -256 90q-55 43 -89 100.5t-34 108.5v31h-485l-180 -330h-260zM530 528h377l6 699z" />
<glyph unicode="&#xc7;" horiz-adv-x="1177" d="M131 354v758q0 164 92 264.5t246 100.5h623v-215h-594q-154 0 -154 -154v-735q0 -68 43 -113t111 -45h589v-215h-632q-135 0 -229.5 104.5t-94.5 249.5zM498 -252l102 219h135l-104 -219h-133z" />
<glyph unicode="&#xc8;" horiz-adv-x="1200" d="M131 397v711q0 211 137 307q53 37 112.5 49.5t180.5 12.5h537v-215h-533h-90q-55 0 -93 -46.5t-38 -113.5v-252h754v-215h-754v-197v-92q0 -51 43 -92q39 -33 76 -39h115h516v-215h-572q-102 0 -171.5 24.5t-124 82t-75 119.5t-20.5 171zM405 1886h203l84 -236h-123z" />
<glyph unicode="&#xc9;" horiz-adv-x="1200" d="M131 397v711q0 211 137 307q53 37 112.5 49.5t180.5 12.5h537v-215h-533h-90q-55 0 -93 -46.5t-38 -113.5v-252h754v-215h-754v-197v-92q0 -51 43 -92q39 -33 76 -39h115h516v-215h-572q-102 0 -171.5 24.5t-124 82t-75 119.5t-20.5 171zM516 1650l86 236h203l-162 -236 h-127z" />
<glyph unicode="&#xca;" horiz-adv-x="1200" d="M131 397v711q0 211 137 307q53 37 112.5 49.5t180.5 12.5h537v-215h-533h-90q-55 0 -93 -46.5t-38 -113.5v-252h754v-215h-754v-197v-92q0 -51 43 -92q39 -33 76 -39h115h516v-215h-572q-102 0 -171.5 24.5t-124 82t-75 119.5t-20.5 171zM321 1650l162 236h217l174 -234 h-160l-118 174l-113 -176h-162z" />
<glyph unicode="&#xcb;" horiz-adv-x="1200" d="M131 397v711q0 211 137 307q53 37 112.5 49.5t180.5 12.5h537v-215h-533h-90q-55 0 -93 -46.5t-38 -113.5v-252h754v-215h-754v-197v-92q0 -51 43 -92q39 -33 76 -39h115h516v-215h-572q-102 0 -171.5 24.5t-124 82t-75 119.5t-20.5 171zM297 1788q0 55 34.5 92t87.5 37 t92.5 -37t39.5 -92q0 -53 -37 -90t-90 -37t-90 37t-37 90zM649 1788q0 55 34.5 92t90.5 37q53 0 90 -37t37 -92q0 -53 -35 -90t-90 -37q-53 0 -90 37t-37 90z" />
<glyph unicode="&#xcc;" horiz-adv-x="473" d="M131 0v1477h213v-1477h-213zM41 1886h203l84 -236h-123z" />
<glyph unicode="&#xcd;" horiz-adv-x="473" d="M131 0v1477h213v-1477h-213zM151 1650l86 236h203l-162 -236h-127z" />
<glyph unicode="&#xce;" horiz-adv-x="473" d="M131 0v1477h213v-1477h-213zM-41 1650l162 236h217l174 -234h-160l-118 174l-113 -176h-162z" />
<glyph unicode="&#xcf;" horiz-adv-x="473" d="M131 0v1477h213v-1477h-213zM-65 1788q0 55 34.5 92t87.5 37t92.5 -37t39.5 -92q0 -53 -37 -90t-90 -37t-90 37t-37 90zM287 1788q0 55 34.5 92t90.5 37q53 0 90 -37t37 -92q0 -53 -35 -90t-90 -37q-53 0 -90 37t-37 90z" />
<glyph unicode="&#xd1;" horiz-adv-x="1298" d="M131 0v1272q0 113 44 163t142 50q72 0 114 -32t77 -112l444 -1083v1219h215v-1301q0 -86 -53 -141t-135 -55q-129 0 -191 151l-444 1063v-1194h-213zM315 1677v133l27 16q74 45 158 46q61 0 127 -33l67 -35l47 -25q12 -6 39 -6q43 0 96 27l103 57v-127l-68 -41 q-47 -33 -121 -32q-82 0 -127 28l-69 43l-37 25q-23 14 -49 14q-27 0 -51.5 -7t-49.5 -22z" />
<glyph unicode="&#xd2;" horiz-adv-x="1318" d="M131 414v649q0 111 21.5 177.5t78 130t127 85t222.5 21.5h159q158 0 222.5 -20.5t130.5 -88.5q98 -104 98 -305v-649q0 -111 -20.5 -177.5t-79 -130t-129 -85t-222.5 -21.5h-159q-156 0 -223.5 20.5t-129.5 88.5q-96 102 -96 305zM344 403q0 -111 41 -149.5t162 -38.5 h227q119 0 161 38t42 148v672q0 106 -43 147.5t-160 41.5h-227q-117 0 -160 -39t-43 -150v-670zM465 1886h203l84 -236h-123z" />
<glyph unicode="&#xd3;" horiz-adv-x="1318" d="M131 414v649q0 111 21.5 177.5t78 130t127 85t222.5 21.5h159q158 0 222.5 -20.5t130.5 -88.5q98 -104 98 -305v-649q0 -111 -20.5 -177.5t-79 -130t-129 -85t-222.5 -21.5h-159q-156 0 -223.5 20.5t-129.5 88.5q-96 102 -96 305zM344 403q0 -111 41 -149.5t162 -38.5 h227q119 0 161 38t42 148v672q0 106 -43 147.5t-160 41.5h-227q-117 0 -160 -39t-43 -150v-670zM575 1650l86 236h203l-162 -236h-127z" />
<glyph unicode="&#xd4;" horiz-adv-x="1318" d="M131 414v649q0 111 21.5 177.5t78 130t127 85t222.5 21.5h159q158 0 222.5 -20.5t130.5 -88.5q98 -104 98 -305v-649q0 -111 -20.5 -177.5t-79 -130t-129 -85t-222.5 -21.5h-159q-156 0 -223.5 20.5t-129.5 88.5q-96 102 -96 305zM344 403q0 -111 41 -149.5t162 -38.5 h227q119 0 161 38t42 148v672q0 106 -43 147.5t-160 41.5h-227q-117 0 -160 -39t-43 -150v-670zM381 1650l162 236h217l174 -234h-160l-118 174l-113 -176h-162z" />
<glyph unicode="&#xd5;" horiz-adv-x="1318" d="M131 414v649q0 111 21.5 177.5t78 130t127 85t222.5 21.5h159q158 0 222.5 -20.5t130.5 -88.5q98 -104 98 -305v-649q0 -111 -20.5 -177.5t-79 -130t-129 -85t-222.5 -21.5h-159q-156 0 -223.5 20.5t-129.5 88.5q-96 102 -96 305zM344 403q0 -111 41 -149.5t162 -38.5 h227q119 0 161 38t42 148v672q0 106 -43 147.5t-160 41.5h-227q-117 0 -160 -39t-43 -150v-670zM325 1677v133l27 16q74 45 158 46q61 0 127 -33l67 -35l47 -25q12 -6 39 -6q43 0 96 27l103 57v-127l-68 -41q-47 -33 -121 -32q-82 0 -127 28l-69 43l-37 25q-23 14 -49 14 q-27 0 -51.5 -7t-49.5 -22z" />
<glyph unicode="&#xd6;" horiz-adv-x="1318" d="M131 414v649q0 111 21.5 177.5t78 130t127 85t222.5 21.5h159q158 0 222.5 -20.5t130.5 -88.5q98 -104 98 -305v-649q0 -111 -20.5 -177.5t-79 -130t-129 -85t-222.5 -21.5h-159q-156 0 -223.5 20.5t-129.5 88.5q-96 102 -96 305zM344 403q0 -111 41 -149.5t162 -38.5 h227q119 0 161 38t42 148v672q0 106 -43 147.5t-160 41.5h-227q-117 0 -160 -39t-43 -150v-670zM356 1688q0 53 35 90t88 37t91 -36t38 -91q0 -53 -35.5 -91t-89.5 -38q-53 0 -90 37t-37 92zM709 1688q0 53 34.5 90t87.5 37t91.5 -36t38.5 -91t-35 -92t-90 -37q-53 0 -90 37 t-37 92z" />
<glyph unicode="&#xd8;" horiz-adv-x="1323" d="M131 418v641q0 201 105 311q53 59 129.5 83t218.5 24h159q143 0 188.5 -10.5t125.5 -67.5l51 80l86 -2l-80 -123l33 -51q47 -76 47 -242v-645q0 -111 -22.5 -181.5t-79 -130t-132 -82t-217.5 -22.5h-163q-121 0 -180.5 12.5t-120.5 50.5l-41 -63l-93 -4l78 119 q-57 92 -74.5 147.5t-17.5 155.5zM348 410l2 -64l6 -27l580 898q-25 25 -39 31.5t-53 6.5l-62 5h-231q-119 0 -161 -40t-42 -151v-659zM401 250q25 -20 53.5 -26.5t94.5 -6.5h231q106 0 150 31q29 20 39 51t10 107v665l-2 47v23z" />
<glyph unicode="&#xd9;" horiz-adv-x="1310" d="M131 362v1115h213v-1088q0 -96 35 -135t125 -39h303q88 0 124 36t36 126v1100h213v-1115q0 -156 -97.5 -259t-242.5 -103h-369q-147 0 -243.5 102t-96.5 260zM461 1886h203l84 -236h-123z" />
<glyph unicode="&#xda;" horiz-adv-x="1310" d="M131 362v1115h213v-1088q0 -96 35 -135t125 -39h303q88 0 124 36t36 126v1100h213v-1115q0 -156 -97.5 -259t-242.5 -103h-369q-147 0 -243.5 102t-96.5 260zM571 1650l86 236h203l-162 -236h-127z" />
<glyph unicode="&#xdb;" horiz-adv-x="1310" d="M131 362v1115h213v-1088q0 -96 35 -135t125 -39h303q88 0 124 36t36 126v1100h213v-1115q0 -156 -97.5 -259t-242.5 -103h-369q-147 0 -243.5 102t-96.5 260zM377 1650l162 236h217l174 -234h-160l-118 174l-113 -176h-162z" />
<glyph unicode="&#xdc;" horiz-adv-x="1310" d="M131 362v1115h213v-1088q0 -96 35 -135t125 -39h303q88 0 124 36t36 126v1100h213v-1115q0 -156 -97.5 -259t-242.5 -103h-369q-147 0 -243.5 102t-96.5 260zM352 1688q0 53 35 90t86 37q53 0 92 -37t39 -90t-36 -91t-89 -38t-90 37t-37 92zM705 1688q0 53 34.5 90 t87.5 37t91 -36t38 -91q0 -53 -35.5 -91t-91.5 -38q-51 0 -87.5 37t-36.5 92z" />
<glyph unicode="&#xdd;" horiz-adv-x="1210" d="M541 1599l86 236h203l-162 -236h-127zM-33 1477h254l379 -613l387 613h254l-534 -844v-633h-213l-2 633z" />
<glyph unicode="&#xdf;" horiz-adv-x="1236" d="M131 0v1122q0 152 86 253.5t215 101.5h234q119 0 206 -88q37 -37 66 -96.5t29 -96.5v-84q0 -57 -23.5 -108.5t-64.5 -85.5q70 -14 101.5 -26.5t68.5 -39.5q57 -43 95 -124t38 -163v-225q0 -137 -99.5 -238.5t-236.5 -101.5h-438v221h428q131 0 131 127v197 q0 90 -56.5 142t-154.5 52h-350v211h210q25 0 49.5 12.5t47.5 32.5q16 18 30.5 48t14.5 49v59q0 47 -33 80t-80 33h-160q-76 0 -110.5 -29t-34.5 -92v-1143h-209z" />
<glyph unicode="&#xe0;" horiz-adv-x="1181" d="M131 297v133q0 166 72.5 255t208.5 89h456v72q0 78 -110 78h-627v184h655q76 0 113 -12.5t75 -51t59.5 -89t21.5 -103.5v-569q0 -111 -82 -197t-189 -86h-370q-111 0 -197 90t-86 207zM315 293q0 -18 12.5 -46t30.5 -44q29 -18 109 -19h250q84 0 104.5 16.5t33.5 44 t13 48.5v178q0 55 -40 88t-109 33h-256q-66 0 -107 -33t-41 -88v-178zM395 1446h203l84 -236h-123z" />
<glyph unicode="&#xe1;" horiz-adv-x="1181" d="M131 297v133q0 166 72.5 255t208.5 89h456v72q0 78 -110 78h-627v184h655q76 0 113 -12.5t75 -51t59.5 -89t21.5 -103.5v-569q0 -111 -82 -197t-189 -86h-370q-111 0 -197 90t-86 207zM315 293q0 -18 12.5 -46t30.5 -44q29 -18 109 -19h250q84 0 104.5 16.5t33.5 44 t13 48.5v178q0 55 -40 88t-109 33h-256q-66 0 -107 -33t-41 -88v-178zM506 1210l86 236h203l-162 -236h-127z" />
<glyph unicode="&#xe2;" horiz-adv-x="1181" d="M131 297v133q0 166 72.5 255t208.5 89h456v72q0 78 -110 78h-627v184h655q76 0 113 -12.5t75 -51t59.5 -89t21.5 -103.5v-569q0 -111 -82 -197t-189 -86h-370q-111 0 -197 90t-86 207zM315 293q0 -18 12.5 -46t30.5 -44q29 -18 109 -19h250q84 0 104.5 16.5t33.5 44 t13 48.5v178q0 55 -40 88t-109 33h-256q-66 0 -107 -33t-41 -88v-178zM313 1210l162 236h217l174 -234h-160l-118 174l-113 -176h-162z" />
<glyph unicode="&#xe3;" horiz-adv-x="1181" d="M131 297v133q0 166 72.5 255t208.5 89h456v72q0 78 -110 78h-627v184h655q76 0 113 -12.5t75 -51t59.5 -89t21.5 -103.5v-569q0 -111 -82 -197t-189 -86h-370q-111 0 -197 90t-86 207zM315 293q0 -18 12.5 -46t30.5 -44q29 -18 109 -19h250q84 0 104.5 16.5t33.5 44 t13 48.5v178q0 55 -40 88t-109 33h-256q-66 0 -107 -33t-41 -88v-178zM258 1237v133l27 16q74 45 158 46q61 0 127 -33l67 -35l47 -25q12 -6 39 -6q43 0 96 27l103 57v-127l-68 -41q-47 -33 -121 -32q-82 0 -127 28l-69 43l-37 25q-23 14 -49 14q-27 0 -51.5 -7t-49.5 -22z " />
<glyph unicode="&#xe4;" horiz-adv-x="1181" d="M131 297v133q0 166 72.5 255t208.5 89h456v72q0 78 -110 78h-627v184h655q76 0 113 -12.5t75 -51t59.5 -89t21.5 -103.5v-569q0 -111 -82 -197t-189 -86h-370q-111 0 -197 90t-86 207zM293 1348q0 55 34.5 92t86.5 37q55 0 93 -38t38 -91t-37 -90t-90 -37q-51 0 -88 37 t-37 90zM315 293q0 -18 12.5 -46t30.5 -44q29 -18 109 -19h250q84 0 104.5 16.5t33.5 44t13 48.5v178q0 55 -40 88t-109 33h-256q-66 0 -107 -33t-41 -88v-178zM645 1348q0 55 35 92t88 37q55 0 92 -37t37 -92q0 -53 -37 -90t-90 -37q-51 0 -88 37t-37 90z" />
<glyph unicode="&#xe5;" horiz-adv-x="1181" d="M131 297v133q0 166 72.5 255t208.5 89h456v72q0 78 -110 78h-627v184h655q76 0 113 -12.5t75 -51t59.5 -89t21.5 -103.5v-569q0 -111 -82 -197t-189 -86h-370q-111 0 -197 90t-86 207zM315 293q0 -18 12.5 -46t30.5 -44q29 -18 109 -19h250q84 0 104.5 16.5t33.5 44 t13 48.5v178q0 55 -40 88t-109 33h-256q-66 0 -107 -33t-41 -88v-178zM403 1362q0 78 55.5 133t133.5 55t133 -55t55 -133t-55 -133t-133 -55t-133.5 55t-55.5 133zM508 1362q0 -35 24.5 -59.5t59.5 -24.5t59.5 24.5t24.5 59.5t-24.5 59.5t-59.5 24.5t-59.5 -24.5 t-24.5 -59.5z" />
<glyph unicode="&#xe6;" horiz-adv-x="1873" d="M131 911v197h614q63 0 111.5 -21.5t99.5 -72.5l45 39q82 55 185 55h266q152 0 240 -71.5t88 -194.5v-156l-731 -324v-47q0 -57 41 -94q20 -16 44.5 -22t75.5 -6h570v-193h-600q-72 0 -115 20.5t-98 81.5q-63 -61 -104.5 -81.5t-102.5 -20.5h-322q-135 0 -220 77t-85 195 v199q0 117 78 190.5t203 73.5h450v53q0 123 -114 123h-619zM322 299q0 -47 36.5 -78t94.5 -31h292q121 0 121 121v236h-424q-121 0 -120 -115v-133zM1049 563l542 246v12q0 90 -116 90h-293q-133 0 -133 -116v-232z" />
<glyph unicode="&#xe7;" horiz-adv-x="937" d="M131 281v546q0 84 22.5 134.5t79.5 85.5q86 61 203 61h422v-184h-422q-55 0 -88 -33t-33 -88v-481q0 -55 37 -96.5t90 -41.5h420v-184h-424q-131 0 -219 80t-88 201zM393 -252l103 219h135l-105 -219h-133z" />
<glyph unicode="&#xe8;" horiz-adv-x="1142" d="M131 293v495q0 319 340 320h274q139 0 216 -75t77 -210v-131l-723 -336v-37l7 -47q6 -23 7 -29.5t9 -19.5q20 -39 102 -39h609v-184h-617q-137 0 -219 80t-82 213zM315 561l537 250v18q0 53 -23.5 74t-89.5 21h-301q-123 0 -123 -140v-223zM377 1446h203l84 -236h-123z " />
<glyph unicode="&#xe9;" horiz-adv-x="1142" d="M131 293v495q0 319 340 320h274q139 0 216 -75t77 -210v-131l-723 -336v-37l7 -47q6 -23 7 -29.5t9 -19.5q20 -39 102 -39h609v-184h-617q-137 0 -219 80t-82 213zM315 561l537 250v18q0 53 -23.5 74t-89.5 21h-301q-123 0 -123 -140v-223zM487 1210l86 236h203 l-162 -236h-127z" />
<glyph unicode="&#xea;" horiz-adv-x="1142" d="M131 293v495q0 319 340 320h274q139 0 216 -75t77 -210v-131l-723 -336v-37l7 -47q6 -23 7 -29.5t9 -19.5q20 -39 102 -39h609v-184h-617q-137 0 -219 80t-82 213zM315 561l537 250v18q0 53 -23.5 74t-89.5 21h-301q-123 0 -123 -140v-223zM293 1210l162 236h217 l174 -234h-160l-118 174l-113 -176h-162z" />
<glyph unicode="&#xeb;" horiz-adv-x="1142" d="M131 293v495q0 319 340 320h274q139 0 216 -75t77 -210v-131l-723 -336v-37l7 -47q6 -23 7 -29.5t9 -19.5q20 -39 102 -39h609v-184h-617q-137 0 -219 80t-82 213zM315 561l537 250v18q0 53 -23.5 74t-89.5 21h-301q-123 0 -123 -140v-223zM269 1348q0 55 34.5 92 t87.5 37t92.5 -37t39.5 -92q0 -53 -37 -90t-90 -37t-90 37t-37 90zM621 1348q0 55 34.5 92t90.5 37q53 0 90 -37t37 -92q0 -53 -35 -90t-90 -37q-53 0 -90 37t-37 90z" />
<glyph unicode="&#xec;" horiz-adv-x="1519" d="M1204 0v1108h185v-1108h-185zM565 1446h203l84 -236h-123z" />
<glyph unicode="&#xed;" horiz-adv-x="1519" d="M1204 0v1108h185v-1108h-185zM676 1210l86 236h203l-162 -236h-127z" />
<glyph unicode="&#xee;" horiz-adv-x="1519" d="M1204 0v1108h185v-1108h-185zM481 1210l162 236h217l174 -234h-160l-118 174l-113 -176h-162z" />
<glyph unicode="&#xef;" horiz-adv-x="1519" d="M1204 0v1108h185v-1108h-185zM457 1348q0 55 34.5 92t87.5 37t92.5 -37t39.5 -92q0 -53 -37 -90t-90 -37t-90 37t-37 90zM809 1348q0 55 34.5 92t90.5 37q53 0 90 -37t37 -92q0 -53 -35 -90t-90 -37q-53 0 -90 37t-37 90z" />
<glyph unicode="&#xf1;" horiz-adv-x="1175" d="M131 0v823q0 145 96 226q72 59 213 59h293q141 0 215 -59q47 -39 71.5 -95.5t24.5 -130.5v-823h-182v799l-4 51q-2 18 -22 41q-35 29 -101 29h-295q-72 0 -98.5 -27t-26.5 -94v-799h-184zM254 1237v133l27 16q74 45 158 46q61 0 127 -33l67 -35l47 -25q12 -6 39 -6 q43 0 96 27l103 57v-127l-68 -41q-47 -33 -121 -32q-82 0 -127 28l-69 43l-37 25q-23 14 -49 14q-27 0 -51.5 -7t-49.5 -22z" />
<glyph unicode="&#xf2;" horiz-adv-x="1189" d="M131 274v574q0 121 78 190.5t217 69.5h338q133 0 214 -70.5t81 -189.5v-576q0 -117 -84 -194.5t-211 -77.5h-338q-131 0 -213 75.5t-82 198.5zM315 332q0 -78 31 -113t100 -35h297q131 0 131 140v467q0 133 -131 133h-297q-131 0 -131 -133v-459zM399 1446h203l84 -236 h-123z" />
<glyph unicode="&#xf3;" horiz-adv-x="1189" d="M131 274v574q0 121 78 190.5t217 69.5h338q133 0 214 -70.5t81 -189.5v-576q0 -117 -84 -194.5t-211 -77.5h-338q-131 0 -213 75.5t-82 198.5zM315 332q0 -78 31 -113t100 -35h297q131 0 131 140v467q0 133 -131 133h-297q-131 0 -131 -133v-459zM510 1210l86 236h203 l-162 -236h-127z" />
<glyph unicode="&#xf4;" horiz-adv-x="1189" d="M131 274v574q0 121 78 190.5t217 69.5h338q133 0 214 -70.5t81 -189.5v-576q0 -117 -84 -194.5t-211 -77.5h-338q-131 0 -213 75.5t-82 198.5zM315 332q0 -78 31 -113t100 -35h297q131 0 131 140v467q0 133 -131 133h-297q-131 0 -131 -133v-459zM317 1210l162 236h217 l174 -234h-160l-118 174l-113 -176h-162z" />
<glyph unicode="&#xf5;" horiz-adv-x="1189" d="M131 274v574q0 121 78 190.5t217 69.5h338q133 0 214 -70.5t81 -189.5v-576q0 -117 -84 -194.5t-211 -77.5h-338q-131 0 -213 75.5t-82 198.5zM315 332q0 -78 31 -113t100 -35h297q131 0 131 140v467q0 133 -131 133h-297q-131 0 -131 -133v-459zM262 1237v133l27 16 q74 45 158 46q61 0 127 -33l67 -35l47 -25q12 -6 39 -6q43 0 96 27l103 57v-127l-68 -41q-47 -33 -121 -32q-82 0 -127 28l-69 43l-37 25q-23 14 -49 14q-27 0 -51.5 -7t-49.5 -22z" />
<glyph unicode="&#xf6;" horiz-adv-x="1189" d="M131 274v574q0 121 78 190.5t217 69.5h338q133 0 214 -70.5t81 -189.5v-576q0 -117 -84 -194.5t-211 -77.5h-338q-131 0 -213 75.5t-82 198.5zM295 1348q0 55 35 92t86 37q55 0 93 -38t38 -91t-37 -90t-90 -37q-51 0 -88 37t-37 90zM315 332q0 -78 31 -113t100 -35h297 q131 0 131 140v467q0 133 -131 133h-297q-131 0 -131 -133v-459zM647 1348q0 55 35 92t88 37q55 0 92 -37t37 -92q0 -53 -37 -90t-90 -37q-51 0 -88 37t-37 90z" />
<glyph unicode="&#xf7;" horiz-adv-x="1216" d="M88 414v139h948v-139h-948zM446 207q0 49 33 82q39 35 84 35q49 0 82 -33t33 -84q0 -49 -35 -82q-31 -35 -80 -35t-83 36t-34 81zM446 758q0 49 33 82q39 35 84 34q49 0 80 -34q35 -35 35 -82q0 -49 -35 -82q-31 -35 -80 -35t-83 34t-34 83z" />
<glyph unicode="&#xf8;" horiz-adv-x="1191" d="M131 272v578q0 59 29.5 117.5t77.5 91.5q66 49 190 49h338q53 0 89 -8t95 -31l31 45l80 -6l-66 -86q63 -88 64 -172v-580q0 -115 -84 -192.5t-211 -77.5h-338q-100 0 -170 43l-31 -43h-84l66 84q-45 57 -60.5 95t-15.5 93zM317 285q2 -8 15 -37l493 657q-33 20 -80 21 h-299q-129 0 -129 -138v-452v-51zM379 199l24 -11l43 -2h299q127 0 127 142v458l-4 62z" />
<glyph unicode="&#xf9;" horiz-adv-x="1175" d="M131 283v825h184v-801l2 -51q4 -23 23 -39q31 -29 100 -29h295q72 0 99.5 26t27.5 93v801h182v-825q0 -141 -96 -226q-39 -31 -89 -44t-126 -13h-293q-82 0 -126 12.5t-87 44.5q-96 81 -96 226zM393 1446h203l84 -236h-123z" />
<glyph unicode="&#xfa;" horiz-adv-x="1175" d="M131 283v825h184v-801l2 -51q4 -23 23 -39q31 -29 100 -29h295q72 0 99.5 26t27.5 93v801h182v-825q0 -141 -96 -226q-39 -31 -89 -44t-126 -13h-293q-82 0 -126 12.5t-87 44.5q-96 81 -96 226zM504 1210l86 236h203l-162 -236h-127z" />
<glyph unicode="&#xfb;" horiz-adv-x="1175" d="M131 283v825h184v-801l2 -51q4 -23 23 -39q31 -29 100 -29h295q72 0 99.5 26t27.5 93v801h182v-825q0 -141 -96 -226q-39 -31 -89 -44t-126 -13h-293q-82 0 -126 12.5t-87 44.5q-96 81 -96 226zM309 1210l162 236h217l174 -234h-160l-118 174l-113 -176h-162z" />
<glyph unicode="&#xfc;" horiz-adv-x="1175" d="M131 283v825h184v-801l2 -51q4 -23 23 -39q31 -29 100 -29h295q72 0 99.5 26t27.5 93v801h182v-825q0 -141 -96 -226q-39 -31 -89 -44t-126 -13h-293q-82 0 -126 12.5t-87 44.5q-96 81 -96 226zM285 1348q0 55 34.5 92t88.5 37q55 0 93 -38t38 -91t-37 -90t-90 -37 t-90 37t-37 90zM637 1348q0 55 35 92t90 37q53 0 91 -38t38 -91t-37 -90t-90 -37t-90 37t-37 90z" />
<glyph unicode="&#xfd;" horiz-adv-x="1173" d="M524 1230l86 236h203l-162 -236h-127zM131 -176h614q113 0 113 117v59h-461q-115 0 -190.5 78t-75.5 192v838h184v-786q0 -137 129 -138h289q125 0 125 117v807h184v-1157q0 -147 -75.5 -229t-210.5 -82h-625v184z" />
<glyph unicode="&#xff;" horiz-adv-x="1173" d="M131 -176h614q113 0 113 117v59h-461q-115 0 -190.5 78t-75.5 192v838h184v-786q0 -137 129 -138h289q125 0 125 117v807h184v-1157q0 -147 -75.5 -229t-210.5 -82h-625v184zM283 1348q0 55 34.5 92t87.5 37t92.5 -37t39.5 -92q0 -53 -37 -90t-90 -37t-90 37t-37 90z M635 1348q0 55 34.5 92t90.5 37q53 0 90 -37t37 -92q0 -53 -35 -90t-90 -37q-53 0 -90 37t-37 90z" />
<glyph unicode="&#x131;" horiz-adv-x="1519" d="M1204 0v1108h185v-1108h-185z" />
<glyph unicode="&#x152;" horiz-adv-x="2052" d="M131 330v798q0 162 109 263q61 57 101 71.5t140 14.5h381q55 0 110.5 -18.5t102.5 -84.5l37 37q76 66 188 66h623v-217h-600q-78 0 -106 -39q-35 -47 -35 -101v-274h737v-213h-737v-285q0 -59 34.5 -94t94.5 -35h600v-219h-596q-47 0 -102.5 21.5t-81 40t-64.5 65.5 l-47 -51q-33 -31 -93.5 -53.5t-105.5 -22.5h-342q-147 0 -247.5 96.5t-100.5 233.5zM338 348q0 -59 38 -93t103 -34l369 2q51 0 87 40t36 97l-4 775q0 55 -36 91t-93 36l-359 -2q-141 0 -141 -132v-780z" />
<glyph unicode="&#x153;" horiz-adv-x="1873" d="M131 281v546q0 131 87 206t241 75h276q47 0 103 -16q39 -14 59.5 -27.5t56.5 -50.5l50 41q70 53 176 53h315q135 0 210 -77t75 -218v-125l-731 -323v-39q0 -131 147 -131h582v-193h-613q-59 0 -104 20.5t-109 77.5q-59 -61 -96 -80.5t-94 -19.5h-336q-98 0 -138 14.5 t-85 67.5q-72 88 -72 199zM319 340q0 -145 146 -145h262q145 0 145 145v426q0 80 -32.5 112.5t-112.5 32.5h-262q-78 0 -112 -33.5t-34 -111.5v-426zM1049 571l540 240v10q0 96 -116 97h-283q-141 0 -141 -115v-232z" />
<glyph unicode="&#x178;" horiz-adv-x="1210" d="M-33 1477h254l379 -613l387 613h254l-534 -844v-633h-213l-2 633zM301 1788q0 55 34.5 92t87.5 37t92.5 -37t39.5 -92q0 -53 -37 -90t-90 -37t-90 37t-37 90zM653 1788q0 55 34.5 92t90.5 37q53 0 90 -37t37 -92q0 -53 -35 -90t-90 -37q-53 0 -90 37t-37 90z" />
<glyph unicode="&#x2c6;" horiz-adv-x="575" d="M10 1210l162 236h217l174 -234h-160l-118 174l-113 -176h-162z" />
<glyph unicode="&#x2dc;" horiz-adv-x="686" d="M10 1237v133l27 16q74 45 158 46q61 0 127 -33l67 -35l47 -25q12 -6 39 -6q43 0 96 27l103 57v-127l-68 -41q-47 -33 -121 -32q-82 0 -127 28l-69 43l-37 25q-23 14 -49 14q-27 0 -51.5 -7t-49.5 -22z" />
<glyph unicode="&#x2000;" horiz-adv-x="958" />
<glyph unicode="&#x2001;" horiz-adv-x="1916" />
<glyph unicode="&#x2002;" horiz-adv-x="958" />
<glyph unicode="&#x2003;" horiz-adv-x="1916" />
<glyph unicode="&#x2004;" horiz-adv-x="638" />
<glyph unicode="&#x2005;" horiz-adv-x="479" />
<glyph unicode="&#x2006;" horiz-adv-x="319" />
<glyph unicode="&#x2007;" horiz-adv-x="319" />
<glyph unicode="&#x2008;" horiz-adv-x="239" />
<glyph unicode="&#x2009;" horiz-adv-x="382" />
<glyph unicode="&#x200a;" horiz-adv-x="106" />
<glyph unicode="&#x2010;" horiz-adv-x="667" d="M72 469v217l526 -2v-213z" />
<glyph unicode="&#x2011;" horiz-adv-x="667" d="M72 469v217l526 -2v-213z" />
<glyph unicode="&#x2012;" horiz-adv-x="667" d="M72 469v217l526 -2v-213z" />
<glyph unicode="&#x2013;" d="M117 623v219h1093v-219h-1093z" />
<glyph unicode="&#x2014;" horiz-adv-x="2039" d="M61 637v194h1917v-194h-1917z" />
<glyph unicode="&#x2018;" horiz-adv-x="374" d="M55 1147q0 37 27 92l100 238h123l-90 -209q104 -74 104 -123q0 -57 -38.5 -96t-96.5 -39q-55 0 -92 39t-37 98z" />
<glyph unicode="&#x2019;" horiz-adv-x="374" d="M55 1339q0 55 39 96.5t96 41.5q55 0 92 -39t37 -101q0 -25 -26 -92l-98 -235h-125l92 207q-107 71 -107 122z" />
<glyph unicode="&#x201a;" horiz-adv-x="374" d="M55 127q0 55 40 95t95 40q53 0 91 -40t38 -97q0 -27 -26 -94l-98 -238h-125l92 207q-107 78 -107 127z" />
<glyph unicode="&#x201c;" horiz-adv-x="673" d="M55 1147q0 37 27 92l100 238h123l-90 -209q104 -74 104 -123q0 -57 -38.5 -96t-96.5 -39q-55 0 -92 39t-37 98zM354 1147q0 37 27 92l98 238h125l-92 -209q106 -74 106 -123q0 -57 -38.5 -96t-96.5 -39q-55 0 -92 39t-37 98z" />
<glyph unicode="&#x201d;" horiz-adv-x="673" d="M55 1339q0 55 39 96.5t96 41.5q55 0 92 -39t37 -101q0 -25 -26 -92l-98 -235h-125l92 207q-107 71 -107 122zM354 1339q0 55 39 96.5t96 41.5q55 0 92 -39t37 -101q0 -25 -26 -92l-100 -235h-125l92 207q-105 71 -105 122z" />
<glyph unicode="&#x201e;" horiz-adv-x="673" d="M55 127q0 55 40 95t95 40q53 0 91 -40t38 -97q0 -27 -26 -94l-98 -238h-125l92 207q-107 78 -107 127zM354 127q0 55 40 95t95 40q53 0 91 -40t38 -97q0 -27 -26 -94l-100 -238h-125l92 207q-105 78 -105 127z" />
<glyph unicode="&#x2022;" horiz-adv-x="421" d="M86 508q0 53 35 90t88 37q51 0 90 -37t39 -90t-36 -91t-91 -38q-53 0 -89 38t-36 91z" />
<glyph unicode="&#x2026;" horiz-adv-x="2039" d="M195 125q0 61 43 104t104 43t104 -43t43 -104t-43 -104.5t-104 -43.5t-104 43.5t-43 104.5zM877 125q0 61 43 104t104 43t104 -43t43 -104t-43 -104.5t-104 -43.5t-104 43.5t-43 104.5zM1559 125q0 61 43 104t104 43t104 -43t43 -104t-43 -104.5t-104 -43.5t-104 43.5 t-43 104.5z" />
<glyph unicode="&#x202f;" horiz-adv-x="382" />
<glyph unicode="&#x2039;" horiz-adv-x="579" d="M72 555q0 37 18 70l277 407h133l-326 -471l330 -469h-133l-279 397q-20 31 -20 66z" />
<glyph unicode="&#x203a;" horiz-adv-x="579" d="M74 92l329 469l-325 471h133l276 -407q8 -14 14.5 -33t6.5 -37q0 -14 -6 -31.5t-17 -34.5l-274 -397h-137z" />
<glyph unicode="&#x205f;" horiz-adv-x="479" />
<glyph unicode="&#x2122;" horiz-adv-x="1601" d="M88 1364v111h447v-111h-164v-627h-123v627h-160zM510 737l137 752h80l188 -445q35 -78 35 -139q0 57 35 139l191 445h79l138 -752h-123l-72 422l-2 23l-2 20v78l-20 -76l-9 -30l-4 -11l-184 -438h-51l-185 438l-4 11l-10 30l-20 76v-38q0 -19 2 -40l-2 -20l-5 -23 l-71 -422h-121z" />
<glyph unicode="&#xe000;" horiz-adv-x="1110" d="M0 1110h1110v-1110h-1110v1110z" />
<glyph unicode="&#xfb01;" horiz-adv-x="960" d="M610 1348q0 55 35 92t88 37q55 0 93 -38t38 -91t-37 -90t-90 -37t-90 37t-37 90zM647 0v1108h182v-1108h-182zM131 0v1194q0 137 102 223q39 35 79 47.5t116 12.5h76v-187h-76q-113 0 -113 -131v-51h187v-184h-187v-924h-184z" />
<glyph unicode="&#xfb02;" horiz-adv-x="960" d="M649 0v1477h184v-1477h-184zM131 0v1194q0 137 102 223q39 35 79 47.5t116 12.5h76v-187h-76q-113 0 -113 -131v-51h187v-184h-187v-924h-184z" />
<glyph unicode="&#xfb03;" horiz-adv-x="1478" d="M1128 1348q0 55 35 92t88 37q55 0 93 -38t38 -91t-37 -90t-90 -37t-90 37t-37 90zM1165 0v1108h182v-1108h-182zM649 0v1194q0 137 102 223q39 35 79 47.5t116 12.5h76v-187h-76q-113 0 -113 -131v-51h187v-184h-187v-924h-184zM131 0v1194q0 137 102 223q39 35 79 47.5 t116 12.5h76v-187h-76q-113 0 -113 -131v-51h187v-184h-187v-924h-184z" />
<glyph unicode="&#xfb04;" horiz-adv-x="1478" d="M1167 0v1477h184v-1477h-184zM649 0v1194q0 137 102 223q39 35 79 47.5t116 12.5h76v-187h-76q-113 0 -113 -131v-51h187v-184h-187v-924h-184zM131 0v1194q0 137 102 223q39 35 79 47.5t116 12.5h76v-187h-76q-113 0 -113 -131v-51h187v-184h-187v-924h-184z" />
</font>
</defs>
</svg>
