<?xml version="1.0" standalone="no"?>
<!DOCTYPE svg PUBLIC "-//W3C//DTD SVG 1.1//EN" "http://www.w3.org/Graphics/SVG/1.1/DTD/svg11.dtd" >
<svg xmlns="http://www.w3.org/2000/svg">
<metadata>
This is a custom SVG webfont generated by Font Squirrel.
Copyright   : Copyright c FT Content Provider 1970 All rights reserved
Foundry     : FT Content Provider
</metadata>
<defs>
<font id="ft2Regular" horiz-adv-x="569" >
<font-face units-per-em="2048" ascent="1638" descent="-410" />
<missing-glyph horiz-adv-x="500" />
<glyph unicode=" " />
<glyph unicode="!" horiz-adv-x="491" d="M160 1366h168l-21 -989h-131zM168 0v186h162v-186h-162z" />
<glyph unicode="&#x22;" horiz-adv-x="673" d="M100 1366h170l-26 -547h-119zM403 1366h170l-24 -547h-121z" />
<glyph unicode="#" horiz-adv-x="1239" d="M127 475l12 82h254l33 229h-256l12 84h254l53 375h86l-53 -375h242l51 375h86l-53 -375h262l-12 -84h-260l-33 -229h260l-10 -82h-262l-58 -407h-84l58 407h-242l-57 -407h-86l57 407h-254zM479 557h240l33 229h-242z" />
<glyph unicode="$" horiz-adv-x="1255" d="M55 375v51h152q0 -106 14.5 -169.5t44.5 -86.5q31 -23 95.5 -35t162.5 -14l49 4v504q-100 -4 -188 8t-166 37q-76 25 -113.5 99.5t-37.5 199.5q0 127 30.5 207t91.5 112q61 35 146.5 52.5t193.5 17.5l43 4v127h115v-127q115 -4 204 -18.5t152 -42.5q61 -27 93 -109 t32 -217l-149 4q0 70 -9.5 118t-25.5 75q-18 27 -65.5 40t-124.5 13l-107 4v-473q115 -4 208 -17.5t163 -40.5q72 -27 106.5 -106.5t34.5 -214.5q0 -125 -30.5 -204t-90.5 -111q-61 -33 -147 -49.5t-201 -16.5h-5h-7h-4h-4h-5h-8h-3h-1h-3h-3v-154h-115v154q-117 0 -210 10 t-164 33q-70 23 -106 106t-38 226zM221 1012q0 -88 17.5 -141.5t52.5 -73.5t89 -30.5t128 -10.5l65 4v475h-67q-66 -4 -118 -11t-91 -22q-39 -14 -57.5 -62t-18.5 -128zM688 125q6 -4 12.5 -5t12.5 -1h13h15q72 0 129.5 10t96.5 31q41 23 61.5 73t20.5 129q0 92 -19.5 147.5 t-60.5 74.5q-39 18 -100.5 27.5t-145.5 11.5l-35 4v-502z" />
<glyph unicode="%" horiz-adv-x="1609" d="M55 958v74q0 76 9.5 137.5t27.5 106.5t73.5 67.5t145.5 22.5l105 4q66 -4 111.5 -19.5t70.5 -43.5q25 -29 38 -78t13 -119v-12v-11v-5v-5v-6v-6q-2 -6 -2 -11v-10v-11v-9v-5v-5v-6v-7v-5v-5q0 -4 1 -6t1 -6v-5v-5v-6v-7v-12v-12q0 -74 -14 -124t-43 -79q-27 -27 -81 -41 t-132 -14q-88 0 -150.5 12t-99.5 37t-55.5 83t-18.5 152zM141 1070q0 -5 2 -9v-11v-10v-8v-8v4l2 -127q0 -57 12.5 -88t37.5 -41q25 -8 58.5 -14t78.5 -6h5h5h7h5q49 0 87 5t65 15t40 44t13 91v230q0 53 -10 85.5t-31 45.5q-20 10 -50 16t-71 6l-100 4l-3 -3l-1 -1h-3h-3h-3 h-4h-4q-14 -2 -28.5 -3t-26.5 -5q-14 -2 -24.5 -8t-18.5 -14q-8 -10 -15 -23.5t-11 -30.5q-4 -16 -7.5 -33.5t-3.5 -33.5v-10v-9v-8v-8v-12v-11v-11zM311 0l922 1366h98l-925 -1366h-95zM995 276v74q0 76 9.5 137.5t29.5 106.5q18 45 73.5 67.5t143.5 22.5q84 0 147.5 -10 t106.5 -29q41 -18 62.5 -74.5t21.5 -152.5v-22v-21v-21q0 -10 2 -20v-22v-21v-21v-20v-3v-4v-3v-4v-5q-2 -23 -4 -44t-6 -44q-2 -20 -10 -38.5t-19 -34.5q-14 -23 -33.5 -38.5t-41.5 -21.5q-12 -4 -24.5 -7t-22.5 -3q-12 0 -24.5 -2t-25.5 -2h-9q-5 0 -9 -2h-9h-10h-17h-17 q-82 0 -142.5 10t-97.5 33t-55.5 82t-18.5 157zM1083 390q0 -5 2 -9v-11v-10v-10v-8v4v-127q4 -57 16.5 -89t35.5 -42q23 -8 55.5 -13t71.5 -5h4h4h2h4h8h8q49 0 87 5t65 15t40 44t13 91v230q0 53 -10 85.5t-31 45.5q-20 10 -50 16t-69 6l-100 4q-2 -4 -5 -4h-7h-4h-2h-4h-5 q-14 -2 -27.5 -3t-25.5 -5q-14 -2 -24.5 -8t-16.5 -14q-8 -10 -15 -24.5t-11 -33.5q-2 -8 -3.5 -17t-3.5 -18q0 -10 -1 -18t-1 -18v-6v-7v-3v-1v-3v-3v-12v-13v-11z" />
<glyph unicode="&#x26;" horiz-adv-x="1433" d="M117 430v20v17v9v11q0 4 1 9.5t1 9.5q2 25 6 49.5t12 48.5q6 25 18.5 46.5t28.5 41.5q16 18 34 30.5t38 20.5q23 6 44.5 12.5t41.5 12.5h2h2q6 2 12.5 3t12.5 3q6 0 12 2l12 4q-6 4 -11 8.5t-11 10.5q-4 4 -9.5 8t-9.5 8l-8 8q-4 4 -8 11q-4 4 -7 8t-7 8 q-14 16 -25.5 35.5t-15.5 40.5q-6 20 -8.5 47.5t-2.5 60.5q0 106 28 172t85 90q57 25 131 38.5t162 13.5q98 0 173 -14.5t124 -43.5q49 -27 74.5 -96.5t25.5 -177.5v-18v-19v-9v-9q-2 -4 -2 -10v-9l-149 4q-2 2 -2 8v13v12v12q-2 84 -15.5 132t-38.5 63q-25 14 -78 21 t-133 7q-45 0 -86 -5t-75 -15q-35 -10 -52.5 -44t-17.5 -91q0 -29 3 -52.5t9 -41.5t18.5 -36t26.5 -34q2 -2 5.5 -6t5.5 -6l7 -7l7 -8q4 -2 7 -6t7 -6q4 -4 9.5 -7t9.5 -7l512 -424v7q0 5 2 11v13v12v12q0 6 2 12v13v12v9v11v13v12q-2 4 -2 9v11v7v6v5v5v4h151v-18v-17v-15 q0 -7 2 -13v-16v-15v-15v-14v-12v-10q-2 -6 -2 -12v-11v-12v-10q-2 -6 -2 -12v-11q-2 -12 -3 -23.5t-3 -21.5q-2 -12 -3 -23.5t-3 -21.5l240 -193l-86 -106l-201 166q-27 -59 -66 -95t-90 -53q-51 -14 -104.5 -21t-108.5 -9h-20h-21h-17h-20q-137 0 -243.5 13t-184.5 40 q-76 29 -114.5 126t-38.5 263zM270 432q0 -96 12.5 -160.5t36.5 -95.5q25 -31 87.5 -46t162.5 -15l133 4q12 -4 25 -4h27q14 0 27.5 1t27.5 3q35 4 68.5 11t64.5 22q31 14 52.5 39.5t29.5 64.5l-532 444q-8 -4 -17.5 -7t-19.5 -7q-8 -2 -17.5 -4t-15.5 -4q-43 -12 -73 -27.5 t-46 -38.5q-16 -20 -24.5 -66t-8.5 -114z" />
<glyph unicode="'" horiz-adv-x="374" d="M100 1366h174l-26 -547h-123z" />
<glyph unicode="(" horiz-adv-x="567" d="M106 299v19v20v18v19v37v37v19v19v19v18v344q0 109 12.5 201t39.5 162q25 72 102.5 107.5t208.5 35.5v4v-129q-76 -4 -120 -22.5t-56 -52.5q-12 -35 -19.5 -81t-7.5 -102v-5v-7v-3v-4v-3v-5v-6v-6v-6v-5v-5v-6v-6v-195l4 -555v-9v-7v-4v-2v-5v-4q0 -47 6.5 -88t18.5 -73 q10 -35 47 -53.5t98 -18.5l29 2v-129h-5h-7h-4q-2 0 -4 -2h-6h-7h-3h-1h-3h-3q-109 0 -175.5 33.5t-88.5 99.5q-25 66 -37 143.5t-14 167.5q-2 18 -3.5 37t-1.5 37z" />
<glyph unicode=")" horiz-adv-x="567" d="M102 -90q47 0 82 7t58 24q23 14 37 44.5t18 80.5v9q0 5 2 11v9v11q0 10 1 20.5t3 20.5v20v19v21v20v25q0 12 2 24v25v25v49v51l-6 559q0 51 -6 96t-17 84q-10 41 -46.5 60.5t-100.5 19.5l-27 2v129l3 -3q1 -1 4 -1h1h3h7q3 0 5 2h4h4h7h5q109 0 174.5 -31.5t86.5 -97.5 q23 -63 36 -141t19 -168v-3v-3v-3v-34q0 -16 2 -31v-32v-31v-30q0 -15 2 -32v-29v-32v-65v-62v-31v-31v-31v-32v-133v-6v-2v-2q0 -94 -10.5 -180.5t-32.5 -161.5q-20 -78 -91 -118t-192 -40h-37v129z" />
<glyph unicode="*" horiz-adv-x="1255" d="M264 1077l35 97l281 -103v295h100v-295l278 105l35 -105l-280 -100l168 -240l-80 -59l-170 248l-182 -248l-80 59l174 240z" />
<glyph unicode="+" horiz-adv-x="1024" d="M47 655v84h420v396h88v-396h422v-84h-422v-395h-88v395h-420z" />
<glyph unicode="," horiz-adv-x="413" d="M109 -123q27 2 45 8t26 17q10 10 14.5 28.5t4.5 44.5v6v7v3v3q-2 2 -2 3v3h-68v186h162v-200q0 -41 -7.5 -75t-19.5 -61q-12 -25 -40.5 -38t-73.5 -13h-6h-7h-4h-4q-2 0 -3 1l-1 1h-3h-3h-3h-4h-3v76z" />
<glyph unicode="-" horiz-adv-x="475" d="M41 432v133h393v-133h-393z" />
<glyph unicode="." horiz-adv-x="407" d="M123 0v186h162v-186h-162z" />
<glyph unicode="/" horiz-adv-x="1323" d="M14 -201l1053 1567h115l-1057 -1567h-111z" />
<glyph unicode="0" horiz-adv-x="1255" d="M47 471v61v64v104v73v77q0 37 2 75l4 76q4 53 19.5 103.5t42.5 95.5q29 47 66.5 81t88.5 54q23 10 47.5 16.5t49.5 8.5q25 4 50 5t52 3h9h11h10h9h9q5 0 11 2h10h11h19h18h20h21q154 0 264 -18.5t174 -55.5q66 -37 101.5 -141t41.5 -274v-25v-25v-12v-10q0 -6 1 -12 t1 -13v-24v-25v-24v-25v-36v-34q-2 -18 -2 -35v-34v-36v-34q-2 -18 -2 -36v-35q-2 -96 -26.5 -171t-69.5 -129q-45 -51 -117.5 -79.5t-173.5 -32.5q-20 -2 -39.5 -3t-40.5 -1h-40h-40h-108q-100 0 -184 14t-154 47t-108.5 106.5t-49.5 190.5q-2 31 -5 61.5t-3 61.5zM203 686 v4l2 -256q2 -63 13 -115.5t32 -97.5q23 -45 67.5 -67.5t114.5 -26.5h13h16q6 -2 13 -2h15h16h15q6 -2 14 -2h15h4h4h2h4h8h9q16 -2 34.5 -3t36.5 -1h37h37q82 0 143.5 14t102.5 41q41 29 61.5 97.5t20.5 177.5v241v221q0 100 -18.5 168t-53.5 99t-104.5 47t-171.5 16l-152 4 q-74 -4 -135.5 -14t-108.5 -29q-49 -18 -73.5 -76.5t-28.5 -154.5q0 -8 -1 -17.5t-1 -17.5q-2 -10 -2 -18v-19v-36v-34v-36v-37v-36v-34z" />
<glyph unicode="1" horiz-adv-x="1255" d="M215 954l377 412h213v-1366h-143v1249l-351 -385z" />
<glyph unicode="2" horiz-adv-x="1255" d="M111 0v254q0 121 30.5 197.5t91.5 105.5t143.5 48.5t182.5 29.5h4h4h2h4h5q2 0 4 2h4h4q10 0 21.5 1t19.5 3h9q5 0 11 2q4 0 9.5 1t9.5 1q74 6 127 21.5t84 38.5t47 82t16 153q0 102 -16.5 164.5t-48.5 87.5q-33 23 -98.5 35t-164.5 12h-27h-28h-13h-13q-8 -2 -15 -2h-12 q-14 -2 -28.5 -3t-28.5 -1q-14 -2 -27.5 -3t-26.5 -5q-49 -10 -78.5 -34t-39.5 -61t-15.5 -76.5t-5.5 -80.5v-3v-1v-3v-3v-4v-4v-3l2 -55h-149q0 90 9 168t30 141q20 61 84.5 99t171.5 53q27 4 52 5t52 3t53.5 3t52.5 1q127 0 218.5 -19.5t148.5 -56.5q57 -39 86 -127 t29 -227v-12v-10v-13v-12v-12v-13q-2 -6 -2 -12v-12q-2 -33 -8.5 -66t-16.5 -63q-8 -33 -26.5 -60.5t-45.5 -50.5q-31 -27 -65.5 -43t-73.5 -26q-39 -8 -79 -14.5t-81 -10.5q-4 0 -9 -1t-9 -1q-6 -2 -11 -2h-9h-18h-19q-74 -4 -137.5 -16.5t-118.5 -30.5t-82 -74.5 t-27 -148.5v-16v-13v-14q0 -6 2 -13v-15v-13v-9q0 -4 2 -6v-7v-7l830 4v-127h-983z" />
<glyph unicode="3" horiz-adv-x="1255" d="M104 358v21v20v21q0 10 2 20l150 4v-79q0 -63 8 -108.5t27 -74.5q16 -31 58 -46t110 -17h13h15q6 -2 14 -2h13h27h28h13h14q6 -2 13 -2h14h27h28q90 0 149.5 12t85.5 37q27 25 40.5 81t13.5 144q0 82 -16.5 132t-47.5 69q-33 18 -86 28.5t-129 10.5l-188 4v131 q10 -4 21 -4h22h21q11 0 24 2h21h22h21h24q84 0 137 11t78 32q25 20 37 72.5t12 134.5q0 57 -8 99t-25 69q-14 29 -53 44t-98 17h-29h-29h-13q-7 0 -13 2h-16h-13h-29h-28h-28h-28h-15h-13h-6h-7q-4 -2 -7 -2h-7q-25 -2 -46 -5t-44 -9q-20 -6 -38.5 -15.5t-31.5 -21.5 q-10 -12 -17 -26.5t-11 -30.5l-4 -17q-2 -8 -4 -14q0 -8 -1.5 -16.5t-1.5 -16.5v-4v-2v-4v-4v-4v-2v-5v-4v-12v-12v-12v-13q-2 -6 -2 -12v-12v-13v-12l-143 4q0 119 20.5 203t61.5 131t122 70.5t204 23.5l65 4q109 -4 197 -15t157 -34q72 -20 107 -96t35 -205v-23v-22v-12 v-10q-2 -6 -2 -13v-12q-2 -20 -6.5 -42t-10.5 -44q-6 -20 -15 -39.5t-22 -36.5q-14 -20 -32.5 -33.5t-40.5 -19.5q-20 -8 -43 -13.5t-45 -9.5h-1q-3 -2 -4 -2h-6h-4q76 -10 126 -31.5t77 -54.5t40 -87t13 -130q0 -70 -10 -132t-29 -122q-18 -57 -70 -93t-136 -46 q-33 -2 -67 -4t-69 -4q-33 -2 -66.5 -3t-68.5 -1q-111 0 -201 12t-161 39q-70 27 -106 106.5t-36 212.5z" />
<glyph unicode="4" horiz-adv-x="1255" d="M53 315v181l688 870h230v-922h205v-129h-205v-315h-146v315h-772zM182 444h643v822z" />
<glyph unicode="5" horiz-adv-x="1255" d="M127 387l152 4q0 -90 14 -146.5t41 -80.5q29 -25 85 -37t138 -12l61 4q96 -4 165 7t110 32q41 23 61.5 85t20.5 167q0 102 -10.5 174.5t-30.5 117.5q-20 47 -89 70t-186 23l-75 4q-6 -2 -12.5 -3t-10.5 -1h-12h-12h-13h-10q-6 -2 -12 -2h-13q-8 -2 -16 -3.5t-16 -1.5 q-8 -2 -15.5 -3t-15.5 -3q-14 -2 -29.5 -8t-29.5 -12q-14 -8 -24.5 -17.5t-18.5 -21.5t-13.5 -25.5t-9.5 -27.5l-145 4v692h919v-133h-774v-412q23 27 50.5 46.5t60.5 31.5q35 10 68.5 18.5t70.5 10.5h13q7 0 16 2h13h13h26h27q121 0 211.5 -22.5t147.5 -65.5 q57 -45 86 -131t29 -215q0 -156 -23 -260.5t-66 -153.5q-45 -51 -147 -74.5t-262 -23.5q-123 0 -217 13t-160 44t-98.5 117t-32.5 229z" />
<glyph unicode="6" horiz-adv-x="1255" d="M106 463l5 252v33v36v38v40q0 10 -1 19.5t-1 19.5v19v18v19v20v18v19q0 63 14 118.5t43 102.5t77 76.5t115 42.5q8 2 16.5 3t18.5 3q8 0 16.5 1t16.5 3q16 2 33.5 3t36.5 3h32h35h17q8 0 18 2h16h17q86 0 166 -10t151 -33q72 -20 108 -86.5t36 -179.5v-5v-7v-3v-1v-4v-3 v-3v-3q-2 -2 -2 -3v-3v-3v-4v-3v4h-150q0 35 -5 69.5t-15 67.5t-38 52.5t-75 25.5q-23 4 -45.5 5t-44.5 1h-22q-11 0 -21 2h-22h-21l-49 4q-6 -2 -12.5 -3t-10.5 -1q-6 -2 -12 -2h-12h-13h-10q-6 -2 -12 -2h-13q-31 -2 -58.5 -7t-53.5 -13q-27 -8 -46.5 -22.5t-31.5 -35.5 q-6 -12 -10 -24l-8 -25q-2 -14 -5.5 -27.5t-3.5 -25.5q-2 -8 -2 -18v-17v-16v-17v-274q10 14 22.5 26.5t26.5 24.5q12 12 28.5 21.5t37.5 15.5l45 12q23 6 47 8q23 4 47.5 5.5t48.5 1.5h12q5 0 11 2h12h12h13h12h10h13q123 0 212 -18.5t142 -55.5t79.5 -122t26.5 -218v-12 v-13v-5v-5v-6v-6q-2 -68 -15 -130.5t-38 -119.5t-78 -89t-137 -36q-29 -4 -58.5 -6t-58.5 -2h-29q-15 0 -30 -2h-31h-28q-139 0 -238.5 20.5t-159.5 65.5q-59 45 -89 141t-30 246zM268 473q0 -109 12.5 -180.5t36.5 -106.5q25 -37 93.5 -54t181.5 -17l67 4q6 -2 13 -2h14 q74 0 128 9t87 28q35 18 53.5 73.5t18.5 145.5q0 102 -10.5 169.5t-32.5 98.5q-20 31 -89 47.5t-184 16.5l-51 4q-12 -4 -25.5 -5.5t-27.5 -1.5h-15h-14q-8 -2 -15 -2h-13q-27 -2 -51.5 -6t-47.5 -10q-25 -6 -43 -14t-35 -21q-14 -12 -24 -26.5t-14 -30.5q-6 -16 -9.5 -33.5 t-3.5 -34.5v-11v-9v-11v-10v-10z" />
<glyph unicode="7" horiz-adv-x="1255" d="M98 1237v129h996v-195l-662 -1171h-182l717 1237h-869z" />
<glyph unicode="8" horiz-adv-x="1255" d="M104 395q0 76 11.5 130.5t31.5 86.5q23 33 71 56.5t122 38.5q-72 14 -118 38.5t-64 57.5q-18 35 -27.5 86t-9.5 119q0 121 25.5 197.5t76.5 107.5t133 46t195 15l123 4q109 -4 189.5 -19.5t135.5 -43.5q53 -31 81 -106.5t28 -196.5q0 -70 -9 -121t-28 -86 q-18 -33 -64 -57.5t-118 -40.5v4q76 -18 124 -44t68 -61q20 -33 30.5 -88t10.5 -131q0 -70 -8 -129t-24 -113q-14 -51 -62.5 -86.5t-126.5 -54.5q-8 -2 -17.5 -3t-17.5 -1q-10 0 -18 -1t-19 -3q-18 -2 -36.5 -3t-36.5 -3h-18q-9 0 -19 -2h-18h-19h-37h-35q-137 0 -233 13 t-156 44q-57 29 -87 117t-30 233zM258 387q0 -72 8 -121t25 -80q16 -31 63 -47t123 -16h12h13q6 -2 12 -2h12h26h28q6 0 12 -1t14 -1h12h13h12h14h13h12q82 0 138.5 11t88.5 34q31 23 47.5 76t16.5 137q0 55 -8.5 99t-24.5 77q-14 33 -54 52.5t-104 25.5q-10 0 -21 1t-22 1 q-12 2 -23 2h-22h-21h-22h-23h-22l-78 4q-63 -4 -112 -12.5t-86 -24.5t-54.5 -62t-17.5 -122v-31zM276 942q0 -6 3 -10q0 -20 4 -40t10 -38t18.5 -30.5t28.5 -22.5q14 -8 30.5 -13.5t35.5 -9.5q18 -2 36.5 -5t38.5 -5q6 0 12.5 -1t14.5 -1h12h12h25h25l96 4q4 -2 6 -2h6h5h5 q59 0 103.5 8t77.5 25q35 16 53 61t18 119v59v11v14v7v7q-2 4 -2 8v9q-2 16 -5 31.5t-7 29.5q-6 16 -14.5 28.5t-20.5 20.5t-27.5 14.5t-37.5 10.5q-20 4 -44 7t-46 5h-16q-7 0 -13 2h-16h-13h-26h-23l-59 4q-12 -4 -25.5 -5t-30.5 -1h-15h-13q-8 -2 -16 -2h-15 q-20 -2 -42 -5t-42 -7t-36.5 -10.5t-29.5 -16.5q-12 -10 -20 -22.5t-12 -28.5q-4 -14 -6.5 -29.5t-2.5 -31.5v-5v-4v-3v-3v-51v-43v-14v-13v-12z" />
<glyph unicode="9" horiz-adv-x="1255" d="M102 303v3v3v1v3v3v3q2 2 2 5v4v4v7v5v4h146v-7v-5v-4v-4q-2 -2 -2 -4v-5v-4v-4q0 -53 11 -90t34 -59q23 -20 61.5 -31.5t89.5 -13.5h13h14q6 -2 12 -2h13h25h28h24h25h26h27q90 0 152.5 11t95.5 34q35 23 51.5 80t16.5 151v260q-8 -16 -16.5 -29.5t-18.5 -23.5 q-8 -10 -20.5 -18.5t-26.5 -12.5l-21 -8l-20 -8q-12 -2 -22.5 -5t-20.5 -5t-21.5 -4t-21.5 -5q-12 0 -23.5 -1t-21.5 -1q-14 -2 -29.5 -3t-32.5 -1h-29h-32q-123 0 -213 16.5t-150 49.5q-57 33 -85.5 118t-28.5 222q0 139 26.5 230t79.5 132t145.5 61.5t223.5 20.5 q135 0 235.5 -19.5t163.5 -56.5q66 -39 98.5 -134t34.5 -246l4 -240v-264q0 -133 -25.5 -220t-78.5 -130q-51 -43 -143.5 -62.5t-223.5 -19.5h-90q-92 0 -173 10t-150 31q-70 23 -104 91t-34 187zM264 952v4q0 -94 12.5 -153.5t38.5 -87.5q25 -27 86.5 -41.5t155.5 -14.5 l47 5q14 -4 30 -5h30h31q15 0 30 3q14 0 29.5 2t29.5 4q8 0 15.5 1t15.5 3q6 2 13.5 3t15.5 3q45 10 71.5 30.5t34.5 49.5q10 29 14.5 61.5t4.5 71.5q0 102 -13.5 172t-37.5 106q-25 37 -92.5 55.5t-176.5 18.5l-53 4q-98 -4 -163.5 -14t-100.5 -33q-33 -20 -50.5 -83 t-17.5 -165z" />
<glyph unicode=":" horiz-adv-x="407" d="M123 0v186h162v-186h-162zM123 770v186h162v-186h-162z" />
<glyph unicode=";" horiz-adv-x="372" d="M68 -123q27 2 45 8t26 17q10 10 14.5 28.5t4.5 44.5v6v7v3v3q-2 2 -2 3v3h-68v186h162v-200q0 -41 -7 -75t-20 -61q-12 -25 -40.5 -38t-73.5 -13h-6h-7h-4h-4q-2 0 -3 1l-1 1h-3h-3h-3h-4h-3v76zM78 770v186h162v-186h-162z" />
<glyph unicode="&#x3c;" horiz-adv-x="1024" d="M68 616v140l886 418v-160l-716 -328l716 -330v-157z" />
<glyph unicode="=" horiz-adv-x="1024" d="M47 512v84h930v-84h-930zM47 801v84h930v-84h-930z" />
<glyph unicode="&#x3e;" horiz-adv-x="1024" d="M70 199v157l716 330l-716 330v158l886 -420v-138z" />
<glyph unicode="?" horiz-adv-x="1064" d="M113 938q0 125 18.5 212t56.5 132q37 47 121 69.5t213 22.5q109 0 191 -15.5t139 -45.5q55 -31 84 -108t29 -201q0 -119 -18.5 -196t-53.5 -108q-37 -31 -77 -52t-83 -34l-3 -3q-1 -1 -3 -1h-3h-1q-20 -6 -38.5 -12t-37.5 -14q-18 -8 -34.5 -19.5t-32.5 -27.5 q-8 -8 -13.5 -17.5t-9.5 -19.5q-2 -10 -5 -21.5t-3 -21.5v-8v-9v-8v-8v-31h-150q0 63 6.5 111.5t20.5 79.5t46 57.5t83 50.5q6 2 12 5t15 5q6 4 13 7.5t15 5.5q12 4 23.5 8t21.5 8t19.5 8t17.5 9q39 16 64.5 36.5t38.5 44.5q12 25 19 64t7 94q0 92 -15 147.5t-46 73.5 q-31 16 -89.5 25.5t-144.5 9.5h-11h-11q-4 -2 -10 -2h-13h-12h-10q-6 -2 -12 -2h-11q-20 -2 -38.5 -5t-37.5 -7q-18 -6 -32.5 -13.5t-24.5 -17.5q-14 -12 -23.5 -27.5t-13.5 -33.5t-7 -37t-3 -37v-9v-10v-8v-8v-88h-143zM389 0v186h162v-186h-162z" />
<glyph unicode="@" horiz-adv-x="1288" d="M86 590v33v36v41q0 23 1 45.5t3 45.5q2 27 5 52t7 52t9.5 51.5t13.5 46.5q12 43 32.5 76t47.5 53q29 23 63.5 37.5t77.5 22.5q23 4 45.5 7t46.5 5q23 4 47.5 5t49.5 3h16q8 0 18 2h18h17h19h18h17h18h35h39h19h19q8 -2 19 -2h20q12 -2 24.5 -3t25.5 -1q10 -2 22 -3t25 -3 q25 -2 47 -7t43 -11q39 -12 67.5 -31t48.5 -43q18 -25 34 -56.5t24 -70.5q6 -33 10 -67t6 -68q2 -33 3 -67t1 -69v-32q0 -16 -2 -33q0 -18 -1 -34.5t-3 -33.5q-2 -33 -6 -65l-8 -66q-6 -39 -18.5 -70.5t-28.5 -54.5q-16 -20 -45 -31.5t-70 -11.5h-4h-4h-3h-3 q-27 0 -50.5 7.5t-46.5 21.5q-23 12 -37 33.5t-18 48.5q-14 -31 -34.5 -52.5t-49.5 -33.5q-27 -12 -56.5 -19.5t-60.5 -9.5q-6 -2 -12 -2h-12h-11h-10q-90 0 -145 25.5t-76 77.5q-20 51 -30.5 114.5t-10.5 139.5q0 80 11.5 143t35.5 108q25 47 82.5 70t147.5 23 q31 0 61.5 -4.5t59.5 -14.5q29 -8 52 -27.5t40 -48.5v95h98v-467v-6v-5v-3v-3v-8v-8v-4q0 -2 2 -4v-4v-4q0 -18 4 -36t12 -34q6 -14 21.5 -22.5t40.5 -8.5q23 0 38 5t23 18q8 10 14.5 26.5t10.5 36.5q4 16 5 32.5t3 33.5q2 16 3 32.5t3 32.5v17q0 8 2 16v16v17v16q0 8 2 17 v16v16q0 123 -13 206t-38 126t-104.5 65.5t-214.5 22.5l-131 4q-12 -4 -24 -4h-21h-13h-10q-6 -2 -11 -2h-12q-23 0 -45 -1t-45 -3t-45 -5t-45 -7q-39 -8 -65.5 -21.5t-42.5 -34.5q-16 -20 -28.5 -47.5t-18.5 -62.5q-4 -23 -7.5 -45.5t-7.5 -44.5q-2 -23 -5 -46.5t-3 -45.5 v-16v-13q-2 -8 -2 -15v-16v-30v-31v-41v-47q0 -27 2 -52.5t4 -52.5q2 -31 5 -61.5t10 -59.5q6 -29 14 -52t18 -42q12 -25 30.5 -42t41.5 -27q23 -12 46.5 -20.5t47.5 -12.5h1h3q0 -2 1 -2h4h3l29 -4l29 -4q14 -2 28.5 -3.5t28.5 -1.5h13h16q6 -2 13 -2h15h29h29l94 4 q8 -4 16 -4h17h17h18h21q11 0 24 2q10 0 21 1t22 4q23 4 41 7t34 9q10 2 17.5 6t13.5 10t12.5 13.5t10.5 15.5l69 -45q-8 -16 -19 -30.5t-24 -24.5q-14 -10 -29.5 -18.5t-31.5 -12.5q-20 -6 -42 -10t-44 -6q-23 -2 -46.5 -4.5t-45.5 -2.5h-5h-6h-6h-6h-5h-5h-6h-6 q-186 0 -316.5 20.5t-204.5 59.5q-74 41 -110.5 164t-36.5 330zM459 545q0 -6 2 -13q0 -8 1 -14t1 -12q2 -16 5 -32.5t7 -33.5q4 -14 11.5 -28.5t15.5 -24.5q10 -12 20 -18.5t25 -10.5q12 -2 26.5 -5t28.5 -3h3h3h1h3h8h5q72 0 116.5 14.5t61.5 41.5q16 29 24.5 72.5 t10.5 107.5l2 92q0 51 -10.5 90t-28.5 63q-20 25 -58 38.5t-94 13.5h-12h-12h-5h-8q-2 -2 -5 -2h-7q-18 -2 -34.5 -5.5t-33.5 -9.5q-16 -6 -28 -18t-21 -29q-6 -12 -10 -25.5t-8 -29.5q-2 -14 -4 -29.5t-2 -32.5v-14v-12v-12v-13v-43v-26v-25v-12z" />
<glyph unicode="A" horiz-adv-x="1247" d="M10 0l498 1366h219l510 -1366h-162l-106 289h-690l-105 -289h-164zM319 414h605l-303 839z" />
<glyph unicode="B" horiz-adv-x="1261" d="M129 0v1366h657q90 -4 157 -22.5t110 -53.5q43 -37 64.5 -103.5t21.5 -162.5q0 -57 -7.5 -106.5t-23.5 -88.5q-14 -39 -50 -67.5t-95 -48.5q68 -18 111.5 -47t64.5 -68q20 -39 30.5 -91t10.5 -118q0 -92 -18.5 -163.5t-55.5 -125.5q-37 -51 -107.5 -75.5t-173.5 -24.5 h-696zM283 131h422q27 -1 51 -1q55 0 98 6q61 9 96 28q35 18 52.5 73.5t17.5 143.5q0 53 -9.5 97t-25.5 79t-56 53.5t-106 18.5l-49 4h-491v-502zM283 770h432q4 -2 9 -2h7q70 0 118 12.5t75 34.5q29 25 43 74t14 123q0 61 -11.5 104t-33.5 66q-20 23 -62.5 34t-103.5 11 l-487 4v-461z" />
<glyph unicode="C" horiz-adv-x="1210" d="M74 594v4v4v2v4v8v9v7v7v6v6v14v15v217q0 94 17.5 172t49.5 139q35 61 104.5 97t176.5 49q16 2 32.5 3t32.5 3t34 3t34 3h16q8 0 17 2h16h17h33h34q137 0 227.5 -19.5t133.5 -58.5t67.5 -128t32.5 -228l-152 4q0 74 -9 129t-27 92q-18 35 -70.5 53.5t-136.5 18.5h-37h-35 q-18 -2 -37 -2h-37q-37 -2 -72.5 -3t-70.5 -5q-76 -6 -124 -29t-69 -64q-20 -39 -29.5 -96t-9.5 -129v-20l3 -219v-72v-20v-17v-18v-19v-17q0 -9 2 -18q0 -10 1 -18t1 -19q2 -33 5 -65.5t9 -63.5q4 -31 13 -57.5t22 -48.5q12 -20 30.5 -35.5t45.5 -25.5q25 -8 52 -14.5 t56 -8.5q10 -2 21.5 -3t23.5 -1h22h21h65h64q33 0 64.5 3t64.5 5q45 4 80 14.5t59 28.5q25 16 39.5 49t16.5 82v20v17v20v21q-2 10 -2 19v18v9v11v10v9v4h151v-19v-16v-8q0 -4 2 -8v-8v-7v-16v-16v-9q0 -4 2 -6v-8v-8q0 -76 -18.5 -135.5t-52.5 -102.5q-35 -45 -92.5 -69.5 t-137.5 -28.5q-27 -2 -54.5 -3t-55.5 -1h-28q-13 0 -28 -2h-27h-28h-190q-141 8 -223 57t-107 141t-38 193.5t-13 210.5z" />
<glyph unicode="D" horiz-adv-x="1335" d="M129 0v1366h631q154 -4 254 -42t149 -112q47 -74 72 -182t25 -252v-127q0 -131 -17.5 -244.5t-52.5 -211.5t-133.5 -146.5t-257.5 -48.5h-670zM281 133h446q12 -4 25 -4h26q14 0 28.5 1t29.5 3q29 2 54 7t52 14q27 10 48.5 25.5t37.5 35.5q18 23 31.5 51.5t21.5 61.5 t13.5 66.5t7.5 70.5v16q0 8 2 17v14v16v17q0 8 2 16v14v17v72v37v40q-2 20 -2 40v40q0 20 -1 41t-3 41q-2 18 -4 39l-4 41q-10 78 -38 128t-73 71q-45 23 -101.5 33t-121.5 10l-477 4v-1096z" />
<glyph unicode="E" horiz-adv-x="1019" d="M76 0v1366h876v-137h-727v-463h697v-129h-697v-506h727v-131h-876z" />
<glyph unicode="F" horiz-adv-x="999" d="M129 0v1366h836v-137h-680v-475h663v-129h-663v-625h-156z" />
<glyph unicode="G" horiz-adv-x="1267" d="M86 496v46v48v46q0 24 2 48v45v47v46v48q0 133 24.5 230.5t75.5 154.5q51 59 144.5 88t230.5 29h41h41h21h20q10 -2 21 -2h20h21h20q10 -2 20 -2h21h41h41q88 -2 149.5 -26.5t98.5 -69.5t55 -109.5t18 -148.5v-47h-151q0 57 -8.5 105t-24.5 83q-14 35 -57 54.5t-113 21.5 q-35 2 -70.5 3t-70.5 1h-36q-17 0 -34 2h-36h-36q-109 0 -176 -16.5t-96 -51.5q-27 -33 -41 -109.5t-16 -197.5l-2 -174l2 -194q0 -66 6 -123.5t20 -110.5q12 -51 56.5 -84t120.5 -43q12 -2 25 -4t28 -2q14 -2 27 -2h28q12 -2 26 -2h27h28h28l79 4q25 -1 47 -1q67 0 115 9 q63 12 94 39q29 27 44.5 88.5t15.5 157.5v125h-434v133h585q2 -23 3.5 -41.5t1.5 -36.5v-37v-37v-94q0 -82 -11.5 -152.5t-34.5 -136.5q-23 -63 -82 -99t-155 -44q-35 -4 -70 -6l-69 -4h-36q-17 0 -34 -2h-36h-36q-164 0 -276.5 22.5t-171.5 71.5t-89 152.5t-30 261.5z" />
<glyph unicode="H" horiz-adv-x="1366" d="M131 0v1366h152v-604h798v604h156v-1366h-156v631h-798v-631h-152z" />
<glyph unicode="I" horiz-adv-x="415" d="M129 0v1366h156v-1366h-156z" />
<glyph unicode="J" horiz-adv-x="1028" d="M53 332v40v40v41q0 20 2 41l152 4v-117q0 -76 9 -126t28 -79q18 -27 66 -41t124 -14q88 0 149.5 11t94.5 34q35 23 51 80t16 149v971h152v-991q0 -106 -22.5 -181t-65.5 -118q-43 -45 -119 -65.5t-184 -20.5q-102 0 -185 11t-145 38q-61 25 -92 98.5t-31 194.5z" />
<glyph unicode="K" horiz-adv-x="1234" d="M129 0v1366h156v-596h135l557 596h203l-625 -661l698 -705h-209l-624 633h-135v-633h-156z" />
<glyph unicode="L" horiz-adv-x="993" d="M131 0v1366h162v-1225h694v-141h-856z" />
<glyph unicode="M" horiz-adv-x="1757" d="M131 0v1366h264l482 -1169l483 1169h268v-1366h-155v1255l-517 -1255h-155l-520 1243v-1243h-150z" />
<glyph unicode="N" horiz-adv-x="1425" d="M129 0v1366h250l768 -1247v1247h149v-1366h-249l-768 1235v-1235h-150z" />
<glyph unicode="O" horiz-adv-x="1220" d="M76 456v66v33v35v33v32v4v80q0 137 14 251t41 204q29 90 126 136t263 46l68 4q139 -4 243.5 -21.5t174.5 -51.5q72 -35 106.5 -133.5t34.5 -258.5v-61v-59v-62v-61q0 -61 -1 -122t-3 -120q-2 -125 -29 -213t-76 -137t-137 -72.5t-217 -23.5h-8h-8h-4h-2h-5h-4h-8h-8h-4 h-2h-4h-4q-8 2 -17 2h-14h-15h-14q-117 0 -205 16t-147 53q-59 35 -93 118t-40 214q-2 35 -2 69zM231 666l2 -220q2 -102 17.5 -168.5t44.5 -99.5t95.5 -49t170.5 -16q115 0 197 11t131 36q47 25 73.5 99.5t28.5 199.5v56v54v29q0 14 2 29v28v29v29v28v27v29v28v29v27v28 q0 127 -22.5 201t-67.5 94q-45 23 -121.5 33t-185.5 10l-51 4q-90 -4 -151.5 -17t-92.5 -42q-31 -27 -47 -97.5t-18 -181.5z" />
<glyph unicode="P" horiz-adv-x="1204" d="M129 0v1366h567h70q10 -4 20 -4h21h9h11q4 -2 11 -2h12q25 -2 49.5 -7t48.5 -12q25 -6 46.5 -18t41.5 -29q29 -27 49.5 -58.5t32.5 -66.5q10 -37 18.5 -73.5t10.5 -75.5v-22v-21v-11q0 -5 2 -10v-11v-9v-12v-13q-2 -8 -2 -14v-12v-13v-12q-2 -8 -2 -14v-12 q-2 -29 -8.5 -56.5t-16.5 -56.5q-8 -27 -23.5 -50.5t-35.5 -43.5q-33 -33 -71 -53.5t-79 -26.5t-83 -10.5t-85 -4.5h-3h-1h-2h-8h-8q-4 -2 -8 -2h-8h-16h-15l-395 5v-535h-150zM279 668h364q26 -1 50 -2q60 0 107 8q67 10 107 31q41 20 61.5 78.5t20.5 156.5q0 72 -9 126 t-28 91q-18 35 -65 53.5t-125 18.5h-9h-10h-8h-8q-4 -2 -9 -2h-9h-9h-8l-413 4v-563z" />
<glyph unicode="Q" horiz-adv-x="1341" d="M78 561v66v65q0 201 23.5 336t68.5 205q47 68 174 102.5t336 34.5l35 4q12 -4 26 -4h29h13h16q6 -2 13 -2h15q12 0 24.5 -1t25.5 -3q10 -2 22 -3t25 -3q25 -2 47 -8.5t43 -12.5q53 -18 92 -52t63 -81q25 -47 40.5 -97t21.5 -103q2 -14 3 -27.5t1 -26.5v-12q0 -6 2 -12 v-13v-12v-215l2 -192v-20v-17v-16v-15q-2 -25 -3 -48.5t-5 -45.5q-2 -25 -8 -47l-13 -45l115 -74l-63 -105l-103 70q-33 -45 -75 -72.5t-89 -40.5q-47 -12 -96 -18t-100 -8h-13q-6 0 -10 -2h-12h-12h-25h-25q-137 0 -245.5 13t-192.5 42q-82 29 -128 126t-54 261 q-2 33 -3 64.5t-1 64.5zM231 740q0 -26 2 -50l3 -213q0 -131 22.5 -207.5t67.5 -101.5t124.5 -37t196.5 -12h12h13h13h15q4 0 7.5 -1t7.5 -1h6h6h13h16h20h23q10 0 21 1t24 3q27 2 52.5 8t51.5 14q25 10 46.5 26.5t39.5 37.5l-426 280l72 107l393 -260q0 4 1 10t3 12v8 q0 3 2 7v6v8v7q0 3 2 5v7v6v13v15v22v23v22v21v45q0 23 2 45v22v24v21v22v45v45v24v25q-2 12 -2 24v25v25q0 12 -2 24q0 10 -1 22.5t-1 24.5q-8 86 -32.5 138.5t-63.5 70.5t-90 28.5t-115 10.5l-153 4q-100 -4 -175 -15.5t-122 -33.5q-47 -23 -71 -96.5t-24 -198.5v-52v-52 v-53z" />
<glyph unicode="R" horiz-adv-x="1275" d="M129 0v1366h647q106 -4 183 -26.5t124 -65.5q47 -45 72 -122t25 -185q0 -70 -7.5 -128.5t-23.5 -105.5q-14 -47 -66.5 -78.5t-142.5 -48.5q59 -4 101 -24.5t69 -55.5q25 -35 38 -81t13 -101v-344h-157v313q0 63 -16.5 109.5t-47.5 73.5q-31 25 -80 38t-115 13l-464 4 v-551h-152zM281 678h444q4 -2 9 -2h9q70 0 122.5 12t84.5 35q35 25 52.5 77t17.5 130q0 74 -9.5 129t-27.5 92t-69.5 56.5t-135.5 19.5l-497 4v-553z" />
<glyph unicode="S" horiz-adv-x="1146" d="M61 356v9v8v8q0 4 2 8v8v9v4q0 2 3 4v4v4l147 4q0 -96 12.5 -157.5t38.5 -90.5q27 -29 87.5 -43t154.5 -14l129 4q6 -2 12 -2h15q74 0 126 9t82 30q33 23 49.5 76t16.5 141q0 68 -10.5 114t-30.5 68q-20 23 -63.5 36t-108.5 15h-15q-7 0 -16 2h-15h-15h-16q-7 0 -15 2 h-16h-15q-106 4 -200.5 18.5t-172.5 41.5q-80 25 -118.5 105.5t-38.5 217.5q0 123 31.5 201t95.5 109q63 31 148 46t192 15l36 4q106 -4 194.5 -17.5t158.5 -37.5q70 -25 104.5 -102.5t34.5 -208.5v-17h-150q-4 72 -18 122t-39 75t-77 38t-130 13l-73 4q-14 -4 -30 -5 t-32 -1h-16h-19q-8 -2 -16 -2h-19q-20 -2 -41.5 -5t-42.5 -7q-20 -4 -37.5 -10.5t-29.5 -14.5q-16 -10 -28.5 -24.5t-20.5 -30.5q-4 -8 -7 -17.5t-6 -17.5q-2 -10 -4 -18.5t-2 -18.5q-2 -8 -3 -16t-1 -17v-16v-14q0 -57 8.5 -100.5t26.5 -71.5q18 -29 60 -45.5t108 -20.5 q10 -2 21.5 -3t23.5 -1q10 -2 22 -2h21h44h42q102 -2 188 -15.5t158 -37.5q72 -25 109 -104t37 -212q0 -78 -12.5 -145.5t-35.5 -122.5t-81 -87t-150 -40h-16q-8 0 -17 -2h-16h-16q-16 0 -32 -1t-32 -3h-16q-8 0 -17 -2h-16h-17h-32h-33q-106 0 -194.5 12t-157.5 39 q-70 29 -105 106.5t-35 206.5z" />
<glyph unicode="T" horiz-adv-x="1054" d="M6 1221v145h1041v-145h-439v-1221h-157v1221h-445z" />
<glyph unicode="U" horiz-adv-x="1341" d="M131 406v960h156v-956q0 -90 15 -148.5t46 -87.5q31 -27 90.5 -40t145.5 -13l149 4q23 -1 44 -1q63 0 110 9q63 12 100 37q35 25 53.5 83t18.5 153v960h153v-956q0 -109 -19 -187t-60 -127q-39 -49 -117 -73.5t-193 -28.5h-20q-10 0 -19 -2h-19h-20h-18q-10 0 -18 -2h-20 h-19q-125 0 -224.5 13t-171.5 44t-107.5 120t-35.5 239z" />
<glyph unicode="V" horiz-adv-x="1171" d="M-10 1366h164l436 -1243l426 1243h166l-484 -1366h-221z" />
<glyph unicode="W" horiz-adv-x="2043" d="M2 1366h158l375 -1247l368 1247h227l367 -1247l383 1247h160l-430 -1366h-234l-358 1229l-367 -1229h-229z" />
<glyph unicode="X" horiz-adv-x="1189" d="M-10 0l487 707l-448 659h186l387 -584l383 584h180l-434 -659l469 -707h-182l-416 627l-424 -627h-188z" />
<glyph unicode="Y" horiz-adv-x="1150" d="M-10 1366h178l405 -639l406 639h182l-516 -795v-571h-153v571z" />
<glyph unicode="Z" horiz-adv-x="1161" d="M49 0v135l856 1086h-831v145h1022v-145l-860 -1086h878v-135h-1065z" />
<glyph unicode="[" horiz-adv-x="567" d="M113 -205v1571h348v-117h-197v-1337h197v-117h-348z" />
<glyph unicode="\" horiz-adv-x="1323" d="M143 1366h115l1053 -1567h-111z" />
<glyph unicode="]" horiz-adv-x="567" d="M106 -88h197v1335h-197v119h349v-1571h-349v117z" />
<glyph unicode="^" horiz-adv-x="1024" d="M66 766l356 602h182l357 -602h-152l-297 494l-297 -494h-149z" />
<glyph unicode="_" horiz-adv-x="1024" d="M0 -147h1024v-105h-1024v105z" />
<glyph unicode="`" horiz-adv-x="1024" d="M342 1253l72 99l270 -205l-47 -74z" />
<glyph unicode="a" horiz-adv-x="1038" d="M88 283q0 96 26.5 155.5t78.5 83.5q53 25 119.5 37t148.5 12h11h11q6 -2 13 -2h12h12h12q6 -2 13 -2h12q10 0 18.5 -1t18.5 -3q8 -2 17.5 -3t17.5 -3q18 -2 35.5 -7t33.5 -11q10 -4 20.5 -10.5t18.5 -16.5q8 -8 15.5 -18.5t13.5 -20.5v119q0 84 -12.5 139t-36.5 76 q-25 23 -81 33t-144 10h-10h-9q-4 -2 -9 -2h-11h-13h-10q-6 -2 -11 -2h-9q-14 -2 -29.5 -4t-28.5 -6q-14 -4 -24 -11l-21 -12q-10 -8 -17 -17.5t-11 -19.5t-7.5 -21.5t-3.5 -23.5q0 -2 -1 -4l-1 -2v-4v-4v-5v-7v-5v-2v-4v-4v-4v-2q0 -2 1 -4t1 -4v4h-147q0 96 26.5 154.5 t81.5 78.5q53 20 121 30.5t150 10.5q98 0 175 -13t130 -42q53 -27 80.5 -97.5t27.5 -183.5v-618h-133l6 98q-31 -41 -67.5 -65.5t-77.5 -32.5t-85 -12t-91 -4q-88 0 -157.5 11t-119.5 38q-51 27 -75.5 89.5t-24.5 160.5zM236 299v4q0 -66 12 -107.5t39 -62.5 q25 -20 67.5 -29.5t102.5 -9.5h20h23h21q11 0 24 2q43 2 82 11.5t75 25.5q35 16 53.5 52t18.5 89q0 66 -19.5 105t-58.5 53t-86 21.5t-100 7.5l-35 4q-4 -2 -9 -3t-9 -1h-12h-9h-11h-9q-6 -2 -12 -2h-9q-18 -2 -35.5 -6t-33.5 -9q-16 -4 -30.5 -11t-25.5 -17 q-8 -6 -14 -14.5t-10 -18.5q-2 -10 -5 -21.5t-3 -21.5q-2 -6 -2 -11v-10v-11v-9z" />
<glyph unicode="b" horiz-adv-x="1046" d="M123 0v1366h141v-530q16 33 42 56t59 38q35 14 69.5 23.5t71.5 11.5h7q3 0 5 2h7h5h13h12q127 0 209 -31t117 -92t52 -149.5t17 -202.5q0 -111 -15 -201t-44 -162q-31 -70 -113 -103.5t-217 -33.5h-4h-4h-3h-3q-43 2 -83 7t-81 17q-39 12 -70.5 38t-56.5 63l8 -117h-141z M268 453q0 -90 10.5 -156t30.5 -109q23 -43 82.5 -63.5t157.5 -20.5q59 0 102 9.5t70 29.5q29 18 45 58.5t25 101.5q4 23 5 46.5t3 45.5v24q0 11 2 23v23v24q0 86 -9.5 154t-25.5 115t-74.5 70.5t-161.5 23.5q-92 0 -148 -22.5t-75 -69.5q-20 -45 -29.5 -109.5t-9.5 -148.5 v4v-53z" />
<glyph unicode="c" horiz-adv-x="993" d="M102 504q0 121 20.5 209t63.5 141q41 53 126 81t212 28q78 0 146.5 -13.5t126.5 -38.5q57 -25 85.5 -84t28.5 -155v-4v-4v-5v-2q-2 -2 -2 -4v-4v-4v-4l-139 4q0 61 -13.5 102t-39.5 62q-27 18 -71 28.5t-105 10.5q-94 0 -154.5 -15.5t-85.5 -46.5t-37 -96t-12 -168v-92 q0 -84 9 -145.5t28 -102.5q18 -39 73.5 -59.5t149.5 -20.5q80 0 134 9.5t83 27.5t43 69.5t14 133.5v4h142q0 -115 -22.5 -186.5t-69.5 -106.5q-45 -33 -123 -48t-187 -15q-152 0 -242.5 29.5t-121.5 91.5q-31 61 -45.5 159.5t-14.5 233.5z" />
<glyph unicode="d" horiz-adv-x="1044" d="M96 487q0 102 15.5 187.5t46.5 152.5q31 68 105.5 102t193.5 34h21h24h11h11q6 -2 13 -2h12q35 -2 68.5 -11.5t66.5 -21.5t57.5 -37t38.5 -60v535h142v-1366h-142l8 123q-27 -45 -60.5 -74t-74.5 -41q-39 -8 -84 -15t-92 -7q-131 0 -211 32.5t-110 102.5 q-31 70 -45.5 161.5t-14.5 204.5zM244 412q0 -8 1 -14.5t1 -12.5q0 -18 2 -36.5t4 -35.5q2 -18 5 -34.5t7 -32.5q10 -47 32.5 -78t55.5 -43q33 -14 71 -20.5t81 -6.5q98 0 157.5 23.5t79.5 68.5q18 47 28.5 114t10.5 153t-9 155.5t-26 124.5q-18 55 -79.5 83t-165.5 28 q-96 0 -152.5 -24.5t-73.5 -71.5q-14 -47 -22 -113t-8 -150v5v-31v-27v-12v-12z" />
<glyph unicode="e" horiz-adv-x="1028" d="M98 451q0 125 15.5 220t46.5 163q31 66 116.5 99.5t229.5 33.5q133 0 220 -22.5t126 -67.5q41 -45 60.5 -134.5t21.5 -222.5v-67h-688q0 -84 8 -148.5t25 -111.5q16 -49 73.5 -73t153.5 -24l39 4q10 -4 20 -4h23q12 0 24.5 1t26.5 3q8 0 15.5 1t15.5 1q6 2 13 4.5t15 4.5 q14 4 26.5 9t23.5 13q10 6 17 15.5t9 21.5q4 12 6 25l4 24v4q0 2 2 4v5v6v9v9v35h148q0 -109 -28.5 -173.5t-84.5 -86.5q-57 -23 -131 -33t-164 -10q-135 0 -221 24.5t-127 75.5q-39 51 -59.5 141.5t-20.5 221.5zM248 559l543 4q0 86 -10.5 144.5t-32.5 89.5q-20 29 -78 44 t-152 15q-82 0 -137 -15.5t-82 -45.5q-27 -31 -39 -90.5t-12 -145.5z" />
<glyph unicode="f" horiz-adv-x="550" d="M14 840v116h146v142q0 80 18.5 135t57.5 86q37 29 95 44t136 15h6h6q2 -2 5 -2h5h7h6h5h5h4h6q2 -2 5 -2h5h13h12v-114q-6 -2 -13 -2.5t-14 2.5h-14h-12h-12h-13h-14h-12q-43 0 -72 -10.5t-45 -28.5q-14 -18 -22.5 -47t-8.5 -68v-150h252v-116h-252v-840h-145v840h-146z " />
<glyph unicode="g" horiz-adv-x="1042" d="M100 434q0 115 14.5 208t41.5 169q29 76 110.5 114t218.5 38q47 0 92.5 -7.5t84.5 -19.5q41 -12 73.5 -40t59.5 -69l-7 127h138v-1015q0 -111 -26 -184.5t-79 -108.5q-51 -35 -130 -53.5t-183 -18.5q-92 0 -163 13.5t-118 39.5q-47 27 -70.5 92.5t-23.5 167.5h133 q4 -66 17.5 -106.5t38.5 -56.5t66.5 -24.5t103.5 -8.5q72 0 126 9t93 28q39 18 58 68t19 130v191q-20 -41 -47.5 -66.5t-64.5 -38.5q-37 -12 -74 -17t-76 -7h-6q-4 0 -6 -2h-7h-7h-15h-12q-117 0 -192.5 29.5t-110.5 90.5t-52.5 143.5t-17.5 184.5zM250 444q0 -84 8 -147.5 t27 -108.5q16 -45 73.5 -66.5t153.5 -21.5q55 0 101 11.5t81 31.5q35 23 54.5 64t25.5 102q2 20 3 41t3 41v21q0 10 2 22v21v20q0 84 -9 150.5t-25 117.5q-18 49 -77 75t-159 26q-80 0 -133 -15.5t-78 -46.5q-27 -31 -39 -88t-12 -141v-74v-35z" />
<glyph unicode="h" horiz-adv-x="1050" d="M123 0v1366h141v-518q23 41 55.5 67.5t73.5 34.5q41 10 85 15.5t89 5.5q100 0 171 -18.5t110 -55.5q41 -37 60.5 -107.5t19.5 -173.5v-616h-146v621q0 -2 0 -1v3v4v4v2v4v1q0 1 2 3v1q0 67 -13 110t-40 63t-71 30.5t-105 10.5q-90 0 -148.5 -18.5t-87.5 -53.5 q-27 -37 -41 -97t-14 -144v-543h-141z" />
<glyph unicode="i" horiz-adv-x="391" d="M123 0v956h145v-956h-145zM123 1208v158h145v-158h-145z" />
<glyph unicode="j" horiz-adv-x="380" d="M-20 -260h6h2h3h4h2q1 0 1 -2h2q39 0 64.5 13t33.5 38q8 27 12.5 57.5t4.5 65.5v1044h139v-1044q0 -55 -9 -104.5t-28 -92.5q-18 -43 -61 -64.5t-109 -21.5h-8h-8q-4 2 -8 2h-9q-4 0 -8 1t-6 1q-4 2 -8 3.5t-8 1.5zM113 1208v158h145v-158h-145z" />
<glyph unicode="k" horiz-adv-x="886" d="M123 0v1366h145v-795h58l344 385h176l-408 -440l482 -516h-189l-405 461h-58v-461h-145z" />
<glyph unicode="l" horiz-adv-x="391" d="M123 0v1366h145v-1366h-145z" />
<glyph unicode="m" horiz-adv-x="1673" d="M123 0v956h137v-143q23 41 56.5 71.5t76.5 47.5q43 16 88 25.5t92 9.5h9h8q2 -2 6 -2h8h17h16q39 -4 76 -15.5t69 -27.5q35 -16 58.5 -44t38.5 -69q27 45 61.5 75.5t77.5 49.5q43 16 89 25.5t97 9.5q94 0 161 -19.5t105 -58.5q41 -39 60.5 -105.5t19.5 -158.5v-627h-149 v643q0 57 -11.5 99t-33.5 63q-20 23 -63.5 34t-104.5 11h-11h-12q-4 -2 -10 -2h-12q-6 0 -12.5 -1t-10.5 -1q-6 -2 -12 -3t-12 -1q-27 -4 -51.5 -12.5t-47.5 -20.5q-25 -12 -41 -29.5t-26 -40.5q-6 -14 -10.5 -27.5t-6.5 -29.5q-2 -14 -4 -29.5t-2 -29.5v-12v-9v-11v-9v-23 v-559h-145v631q-2 63 -14.5 107t-30.5 65q-20 23 -64.5 34t-113.5 11q-80 0 -135.5 -19.5t-84.5 -58.5q-31 -39 -45 -95.5t-14 -129.5v-545h-137z" />
<glyph unicode="n" horiz-adv-x="1054" d="M123 0v956h133v-122q29 41 63.5 68.5t77.5 41.5t89 21.5t96 7.5q96 0 164.5 -19.5t107.5 -56.5t58.5 -104.5t19.5 -163.5v-629h-146v621q0 70 -11 115.5t-34 70.5q-23 23 -70.5 35t-119.5 12q-70 0 -122 -16.5t-89 -46.5q-37 -33 -55.5 -85.5t-18.5 -123.5v-582h-143z " />
<glyph unicode="o" horiz-adv-x="1038" d="M111 410v94q0 119 17 207t54 145q37 55 121 84t215 29q137 0 226.5 -24.5t129.5 -72.5q41 -47 61.5 -138t20.5 -226q0 -119 -13 -214t-38 -167q-25 -74 -110.5 -108.5t-233.5 -34.5q-129 0 -217 19.5t-137 57.5q-49 41 -72.5 127.5t-23.5 221.5zM258 353q0 -11 2 -21 q2 -31 6 -58.5t10 -54.5t15.5 -47t23.5 -35q10 -10 24.5 -17t31.5 -11q16 -4 33.5 -7.5t35.5 -3.5h4h5h2h4h8h8l66 4q2 -2 5 -2h5h5h5q53 0 96 8.5t74 24.5q35 16 53.5 59.5t22.5 110.5v13q0 7 2 16v13v13v13q0 6 2 14v13v16v12q0 6 2 14v14v13v28v27q0 88 -8 150.5 t-25 101.5q-16 37 -68.5 56.5t-140.5 19.5l-30 4q-94 -4 -152.5 -18.5t-81.5 -42.5q-23 -29 -34 -93.5t-11 -167.5v-26v-80v-14v-11v-12v-12v-24z" />
<glyph unicode="p" horiz-adv-x="1044" d="M123 -412v1366h141l-6 -120q29 39 61.5 64.5t71.5 39.5q39 12 82 19.5t90 7.5q129 0 209 -33t113 -98q31 -63 47 -152.5t16 -202.5q0 -111 -15 -200t-44 -158q-29 -70 -105.5 -102.5t-203.5 -32.5h-6h-7h-5h-7q-43 2 -84 8t-80 14q-39 12 -70.5 37t-56.5 64v-521h-141z M268 438q0 -78 10.5 -139t30.5 -109q23 -45 78 -67.5t143 -22.5q96 0 154.5 21.5t77.5 64.5q18 43 27.5 107.5t9.5 146.5v62q0 82 -9.5 145.5t-25.5 108.5t-73.5 67.5t-153.5 22.5q-94 0 -151.5 -20.5t-78.5 -61.5q-20 -39 -29.5 -103.5t-9.5 -154.5v4v-72z" />
<glyph unicode="q" horiz-adv-x="1046" d="M100 471q0 109 15.5 196t48.5 156q31 68 109.5 103t203.5 35q47 0 92 -6.5t84 -16.5q41 -10 76 -37t64 -67l-7 120h144v-1364h-144v519q-16 -35 -40.5 -57.5t-55.5 -35.5q-31 -12 -62.5 -19t-66.5 -9h-9q-5 0 -9 -2h-9h-10h-9q-5 0 -9 -2h-9h-10q-129 0 -209.5 31.5 t-113.5 97.5t-48.5 155.5t-15.5 202.5zM250 426q0 -84 11 -146.5t32 -103.5q23 -39 79 -59.5t150 -20.5q92 0 148.5 24.5t74.5 74.5q18 49 27.5 113.5t9.5 140.5v22q0 94 -9 165t-28 116q-18 47 -79.5 70.5t-165.5 23.5q-88 0 -142.5 -24.5t-72.5 -73.5t-26.5 -112 t-8.5 -140v4v-74z" />
<glyph unicode="r" horiz-adv-x="804" d="M123 0v956h139l-6 -110q23 33 50.5 58.5t60.5 39.5q35 16 72.5 23.5t78.5 7.5q72 0 125 -17.5t86 -52.5q35 -35 51.5 -88t16.5 -125v-15v-13v-7v-8q-2 -2 -2 -6v-8l-140 4v5q0 3 2 7v9v10v19v18q0 43 -10 73.5t-33 44.5q-20 16 -52 23.5t-73 7.5q-55 0 -97 -13.5 t-70 -41.5q-27 -27 -41.5 -70t-14.5 -98v-47v-586h-143z" />
<glyph unicode="s" horiz-adv-x="976" d="M80 246v7v5v4v4l1 2q1 2 1 4v8v5v4q0 2 2 4v2v4l143 4q0 -70 12.5 -113t36.5 -61q25 -18 69 -27.5t108 -9.5l34 4q10 -4 22 -4h23q12 0 24.5 1t27.5 3q16 0 33.5 3t35.5 7q16 4 30.5 10.5t27.5 14.5q10 6 17 16.5t11 22.5t7.5 24.5t5.5 26.5v7q0 3 2 5v8v5v12v12 q0 55 -15.5 89t-44.5 42q-29 10 -64.5 14.5t-78.5 4.5h-3h-1h-3h-1h-6q-4 0 -7 2h-7h-7h-6h-6h-7h-8h-11h-9h-5q-3 0 -5 2h-6h-4q-74 4 -137.5 13t-116.5 28q-51 18 -78 72.5t-27 144.5v19v18q0 10 1 20.5t3 20.5q2 20 6 39.5t13 38.5q6 18 18 34.5t29 28.5q16 12 36.5 22.5 t45.5 18.5q23 6 47 12.5t51 8.5q16 2 33.5 3t34.5 1h16q8 0 16 2h16h15h26h27h14h15q6 -2 13 -2h16q55 -2 105 -14.5t95 -34.5q47 -20 69.5 -65.5t22.5 -113.5v-3v-1v-3v-3v-4v-4q-2 -2 -2 -4v-4v-4v-4v4h-143q0 35 -6 62.5t-18 43.5t-39 25.5t-68 11.5h-20q-10 0 -19 2h-20 h-21h-40h-40h-15h-15h-9h-6q-4 -2 -8 -2h-8q-14 -2 -29.5 -3t-30.5 -5q-14 -2 -27.5 -8.5t-23.5 -14.5q-8 -8 -14 -16t-10 -19q-2 -10 -5.5 -21t-3.5 -22v-8v-8v-8v-8q0 -45 6.5 -75t20.5 -46q14 -14 43 -23.5t74 -11.5q12 -2 25 -2h28h28h27q78 -2 151 -11.5t136 -27.5 q66 -18 97.5 -77.5t31.5 -157.5q0 -104 -28.5 -167t-84.5 -85q-57 -20 -128.5 -30.5t-161.5 -10.5h-9h-8h-8h-8q-74 2 -140.5 11t-125.5 30q-59 20 -89 75.5t-30 143.5z" />
<glyph unicode="t" horiz-adv-x="665" d="M-10 840v116h125v230h145v-230h369v-116h-369v-586q0 -45 6 -74.5t19 -46.5q12 -16 39.5 -24.5t70.5 -8.5q47 0 77 11.5t38 35.5q10 23 15 53.5t5 69.5v68h136q0 -78 -11.5 -141.5t-33.5 -112.5q-23 -51 -80.5 -74.5t-147.5 -23.5q-80 0 -135 13t-84 42q-31 29 -45 81 t-14 128v590h-125z" />
<glyph unicode="u" horiz-adv-x="1038" d="M123 315v641h145v-637q0 -66 11.5 -108.5t31.5 -65.5q23 -23 66 -34t108 -11q84 0 141.5 15.5t86.5 48.5q29 31 43 87t14 138v567h145v-956h-133v127q-31 -49 -65.5 -79t-75.5 -42q-39 -8 -86 -14t-100 -6q-86 0 -148.5 19.5t-103.5 57.5q-39 41 -59.5 103.5t-20.5 148.5 z" />
<glyph unicode="v" horiz-adv-x="823" d="M-8 956h145l275 -847l262 847h155l-319 -956h-201z" />
<glyph unicode="w" horiz-adv-x="1372" d="M6 956h148l219 -860l211 860h204l209 -860l220 860h149l-268 -956h-207l-207 854l-207 -854h-211z" />
<glyph unicode="x" horiz-adv-x="827" d="M-6 0l346 498l-309 458h162l221 -350l217 350h168l-305 -458l342 -498h-174l-248 385l-248 -385h-172z" />
<glyph unicode="y" horiz-adv-x="796" d="M-6 956h145l299 -852l217 852h148l-271 -1011q-2 -6 -4 -13.5t-4 -15.5q-2 -6 -3 -13t-3 -16q-18 -59 -42.5 -114.5t-59.5 -104.5q-33 -49 -85 -74.5t-124 -25.5h-8q-4 0 -9 2q-6 0 -10 1t-8 1q-8 2 -16.5 3t-16.5 3v117h3q1 0 3 -2h3h4h4q2 0 4 -2h2h4h3q1 0 3 -2h3h3h4 h4h2h5q37 0 64.5 15t45.5 44t33.5 60.5t23.5 66.5q4 18 9.5 34.5t7.5 33.5q2 8 4 15t4 15q0 6 2 13.5t4 13.5h-51z" />
<glyph unicode="z" horiz-adv-x="825" d="M43 0v133l569 711h-522v112h690v-133l-571 -704h571v-119h-737z" />
<glyph unicode="{" horiz-adv-x="1024" d="M281 442v125q35 8 58 24.5t36 41.5q12 25 18 55.5t6 63.5v362q0 82 21.5 138.5t64.5 82.5q43 27 101.5 40.5t134.5 13.5h7h5h4h4q2 -2 4 -3h5v-135q-51 -4 -89 -15t-61 -30q-23 -20 -34 -57t-11 -92v-324q0 -41 -5 -75.5t-15 -63.5q-8 -27 -32 -51.5t-61 -42.5v4 q35 -23 58.5 -48.5t34.5 -56.5q10 -31 15 -65.5t5 -71.5v-313q0 -57 10 -96t31 -60q20 -20 58 -30.5t96 -12.5v-133q-88 0 -155 12.5t-110 36.5q-43 25 -64.5 89.5t-21.5 166.5v328q0 33 -6 62.5t-16 56.5q-10 25 -34.5 43t-61.5 30z" />
<glyph unicode="|" horiz-adv-x="1024" d="M432 -342v1706h160v-1706h-160z" />
<glyph unicode="}" horiz-adv-x="1024" d="M276 -242q53 2 90 12.5t60 28.5q23 20 34 57.5t11 92.5v327q0 35 5 69t13 61q10 29 33 52t60 44v4q-35 16 -57.5 40.5t-32.5 55.5t-15.5 64.5t-5.5 72.5v322q0 53 -10 92t-33 59q-20 20 -59 30.5t-93 12.5v138q88 -4 154 -15.5t109 -34.5t65.5 -87t22.5 -173v-323 q0 -39 5 -71t15 -56q10 -27 35 -45.5t63 -28.5v-117q-37 -14 -60 -32.5t-36 -42.5q-12 -25 -17 -53.5t-5 -63.5v-354q0 -84 -21.5 -140.5t-62.5 -83.5q-41 -29 -100.5 -42t-137.5 -13h-4h-4h-3h-3h-3q-3 2 -4 2h-4h-4v139z" />
<glyph unicode="~" horiz-adv-x="1024" d="M20 602q20 39 48 78t61 76q35 35 77 53t93 18q29 0 57.5 -6t55.5 -18t52 -24.5t52 -24.5v-2h2h2v-2q25 -14 50.5 -26.5t52.5 -23.5q25 -12 52 -17t56 -5t52.5 9t43.5 28q20 18 38 39.5t32 46.5q2 2 3 4t3 4l1 2q1 2 3 4l4 8l4 8l86 -63l-3 -6q-1 -2 -1 -4v-2q-2 -2 -2 -3 v-1q-20 -39 -47.5 -77t-62.5 -73q-35 -33 -77 -50t-89 -17q-31 0 -58.5 5t-54.5 17l-53 25q-27 12 -53 26q-23 12 -46.5 24.5t-45.5 22.5q-25 10 -49.5 18.5t-51.5 10.5q-39 0 -68.5 -12.5t-52.5 -34.5q-23 -23 -43 -49.5t-37 -57.5v5z" />
<glyph unicode="&#xa0;" />
<glyph unicode="&#xa1;" horiz-adv-x="491" d="M162 770v186h162v-186h-162zM164 -410l20 990h131l17 -990h-168z" />
<glyph unicode="&#xa2;" horiz-adv-x="1255" d="M186 629q0 100 15.5 186t48.5 156q31 72 105.5 107.5t193.5 35.5v137h117v-133q86 -4 150.5 -23.5t103.5 -54.5q41 -37 61 -98t20 -149l-139 4q-2 53 -11 93t-26 62q-14 23 -54 35t-105 14v5v-752q72 0 115.5 14.5t62.5 40.5q18 27 27.5 73t9.5 112l139 4 q0 -96 -19.5 -166t-58.5 -113t-107.5 -63.5t-168.5 -20.5v-141h-117v145q-125 0 -202 35t-105 105q-27 70 -41.5 157t-14.5 193zM338 560q0 -11 2 -21q0 -20 2 -42l4 -44q4 -20 7 -41t9 -39q10 -39 28 -62.5t40 -34.5q23 -10 52.5 -16t66.5 -8v756q-76 -10 -120 -33t-60 -62 q-14 -39 -22.5 -94t-8.5 -127v-63v-26v-21v-22z" />
<glyph unicode="&#xa3;" horiz-adv-x="1255" d="M94 532v130h170v208v6v5v4v4v2v4q0 2 -1 4t-1 4v2v4v4v5v2v4q0 133 21.5 221t64.5 133q43 47 131 69.5t219 22.5q98 0 181.5 -14.5t150.5 -42.5q66 -29 99.5 -102.5t33.5 -192.5v-8v-9v-8v-8v-4v-4q-2 -2 -2 -4v-4v-8v-9l-147 4q0 76 -11.5 131.5t-33.5 88.5 q-23 33 -77 49t-140 16l-54 4q-12 -4 -24 -4h-25q-14 0 -27.5 -1t-25.5 -3q-20 -2 -39 -6l-37 -8q-18 -6 -32.5 -13.5t-24.5 -17.5q-12 -12 -20.5 -25.5t-12.5 -29.5t-7 -34t-5 -34v-8v-6q-2 -4 -2 -7v-8v-12v-12v-4v-4v-3v-4v-3v-1v-3v-3v-4v-4v-45v-276h387v-130h-387v-46 v-44v-42q0 -22 2 -44q0 -41 -5 -74.5t-16 -60.5q-10 -27 -31.5 -52.5t-52.5 -47.5l-3 -3q-1 -1 -3 -1l-3 -3l-1 -1l885 14v-127h-1059v117q25 2 45.5 13t34.5 26q16 16 26.5 35.5t16.5 46.5q4 14 5 28.5t3 28.5q0 16 1 31.5t3 29.5v14v15v15v16v116h-170z" />
<glyph unicode="&#xa4;" horiz-adv-x="1406" d="M135 1178l86 86l193 -193q8 2 16 6l16 8q8 4 16.5 9.5t16.5 9.5q27 14 53.5 25.5t53.5 19.5q29 10 58.5 14t62.5 4q41 0 77.5 -7t71.5 -21t67.5 -31.5t65.5 -40.5l195 195l86 -84l-193 -191q23 -35 41.5 -69.5t32.5 -71.5t21.5 -74t7.5 -78q0 -39 -7.5 -76.5t-21.5 -72.5 t-30.5 -69t-39.5 -66l191 -187l-84 -86l-193 191q-33 -29 -66.5 -48.5t-70.5 -31.5q-37 -14 -76 -20.5t-80 -6.5q-39 0 -76.5 8.5t-74.5 22.5q-37 16 -71 33.5t-66 38.5l-189 -187l-86 86l187 191q-23 27 -41.5 60.5t-30.5 70.5q-14 37 -20.5 74.5t-6.5 76.5q0 41 7.5 78 t21.5 72t32.5 68.5t41.5 66.5zM369 696q0 -70 24.5 -129t73.5 -108t108.5 -74t129.5 -25q68 0 127 25t108 74t73.5 108.5t24.5 128.5q0 68 -24.5 127.5t-73.5 110.5q-49 49 -107.5 74.5t-127.5 25.5v4q-70 -4 -129.5 -29.5t-108.5 -74.5q-49 -51 -73.5 -110.5t-24.5 -127.5z " />
<glyph unicode="&#xa5;" horiz-adv-x="1255" d="M70 1366h178l379 -639l377 639h182l-266 -434h186v-127h-264l-125 -203h389v-127h-408v-475h-153v475h-395v127h376l-120 203h-256v127h180z" />
<glyph unicode="&#xa6;" />
<glyph unicode="&#xa7;" horiz-adv-x="1255" d="M154 555q0 47 7 86t21 70q16 31 47 52t80 32q-33 23 -54.5 51t-31.5 61q-8 35 -13 70t-5 74q0 109 23.5 176t70.5 94q47 29 118.5 42t166.5 13l51 4q115 -4 197.5 -17t134.5 -40q53 -27 78.5 -103.5t25.5 -205.5v4h-135q0 76 -13.5 124t-39.5 68q-27 18 -79 28.5 t-130 10.5l-99 4q-6 -4 -11 -4h-9h-11h-9q-16 -2 -32 -3t-32 -3q-14 -2 -29.5 -6t-27.5 -8q-18 -8 -31.5 -19.5t-20.5 -27.5q-8 -14 -12 -31.5t-4 -34.5q-2 -6 -2 -12v-12v-13v-12q0 -49 5 -82t16 -49q10 -16 31.5 -29.5t54.5 -23.5q4 -2 8 -3t8 -1q4 -2 9 -3.5t9 -3.5 q10 -2 20.5 -5t22.5 -7l306 -88q4 -4 8 -6t10 -4q4 0 8 -2t8 -2q4 -2 8.5 -3t8.5 -1q4 -2 8 -3t8 -3q53 -14 91 -36t61 -46q23 -27 35 -74t12 -119q0 -41 -7.5 -78t-19.5 -67q-14 -31 -39.5 -55.5t-66.5 -41.5q47 -20 75.5 -47.5t38.5 -62.5t15.5 -75t5.5 -85 q0 -104 -24.5 -174t-71.5 -106q-47 -35 -121 -53.5t-176 -18.5h-84q-113 0 -200 14.5t-146 42.5q-59 27 -89 108t-30 214h139v-58v-4v-4v-2v-4v-8v-8q0 -16 3 -31.5t7 -30.5q4 -14 11.5 -26.5t19.5 -22.5q10 -10 26.5 -17.5t36.5 -11.5q23 -4 44.5 -8t44.5 -6h15q7 0 15 -2 h14h15h13q7 0 14 -2h14h12h19h8h8h8h10q4 2 9 2h8h8h8q53 2 99.5 9t89.5 20q41 14 62.5 55t21.5 109q0 49 -6.5 82.5t-18.5 52.5q-12 18 -35.5 32.5t-60.5 26.5q-6 2 -13.5 4t-15.5 4q-4 2 -8 3t-8 3q-6 0 -10.5 1t-8.5 4l-420 114q-66 14 -107.5 39t-60.5 57q-18 31 -27 80 t-9 115zM289 567q0 -45 6 -74.5t18 -46.5q12 -16 37 -30.5t60 -24.5q4 -2 7 -3t5 -1q4 -2 8 -3t8 -1v4l310 -86q2 -4 4 -5t4 -1q2 -2 4 -2h4q10 -2 19.5 -5t19.5 -5t20.5 -3t20.5 -1q39 0 63.5 14t36.5 43t18.5 61.5t8.5 69.5v4v4v7v5q0 37 -12.5 61.5t-36.5 39.5 q-25 14 -52.5 25.5t-56.5 19.5v2h-2h-2h-3h-1v2h-2l-295 90q-8 0 -15.5 2t-15.5 4t-15 4t-13 4h-6q-3 0 -5 2h-6h-4h-5q-3 0 -5 2h-6h-4q-35 0 -58.5 -13t-36.5 -42q-12 -27 -18 -56.5t-6 -60.5v-3v-3z" />
<glyph unicode="&#xa8;" horiz-adv-x="1024" d="M250 1053v135h160v-135h-160zM612 1053v135h162v-135h-162z" />
<glyph unicode="&#xa9;" horiz-adv-x="1603" d="M96 678q0 145 51.5 270t155.5 230q104 102 229 154t271 52v5q145 -4 269 -56.5t228 -156.5q102 -104 154.5 -228.5t52.5 -269.5t-52 -270t-155 -228q-104 -104 -228 -154.5t-269 -50.5t-270 50.5t-230 154.5q-104 102 -155.5 227.5t-51.5 270.5zM182 678 q0 -129 45 -239.5t135 -202.5q90 -94 201 -140.5t240 -46.5t238.5 46t199.5 141q90 94 135 204.5t45 237.5t-45 237.5t-135 202.5t-199.5 139.5t-238.5 47.5v4q-129 -4 -239.5 -51.5t-201.5 -139.5q-90 -92 -135 -202.5t-45 -237.5zM416 676q0 86 26.5 160.5t77.5 138.5 q53 61 125 93t164 32h3h3h3h3q61 -2 118.5 -21.5t109.5 -56.5q53 -37 81.5 -88t36.5 -117l-84 4q-10 45 -35.5 81t-66.5 61q-39 23 -83 35t-91 12q-70 0 -124 -26t-91 -77t-54.5 -108.5t-17.5 -122.5q0 -63 18.5 -120.5t55.5 -106.5t90 -73t123 -24q59 0 107.5 16.5 t86.5 49.5q41 35 63.5 81t31.5 103l84 4q-6 -80 -35 -142.5t-82 -109.5q-51 -45 -115.5 -68.5t-140.5 -23.5q-90 0 -162 30t-125 91q-51 59 -77.5 133t-26.5 160z" />
<glyph unicode="&#xaa;" horiz-adv-x="1255" d="M301 575v80h653v-80h-653zM356 958q0 59 17.5 96.5t52.5 51.5q35 16 77 23.5t93 7.5h3h3h4h7h5q10 0 20.5 -1t23.5 -1q10 -2 20 -3.5t20 -3.5q23 -2 41.5 -11t36.5 -25v55q0 49 -7 79.5t-23 43.5q-14 12 -48 18t-88 6h-3h-3h-3h-1q-25 0 -46 -3t-40 -9 q-20 -6 -29.5 -23.5t-9.5 -46.5v-3v-3v-3v-1v-4v-2q0 -2 2 -2v-3v-1v4h-102v-2q-2 0 -2 1v1v3v3v4v3v3q0 57 18.5 91t57.5 45q37 10 79.5 16t88.5 6q59 0 107 -7t85 -24q35 -14 53.5 -59t18.5 -117v-375h-97l5 48q-2 -6 -6 -10l-7 -7q-2 -2 -5 -4t-7 -4q-20 -14 -39.5 -21.5 t-40.5 -11.5q-20 -2 -42.5 -3t-47.5 -1q-53 0 -96 8t-78 25q-33 16 -50.5 54t-17.5 99zM461 969v4q0 -47 9 -74t28 -33q18 -8 47.5 -11t68.5 -3h10h9h9h11q25 2 47.5 8t42.5 14q20 10 30.5 30t10.5 50q0 39 -12 61.5t-35 31.5q-25 6 -52.5 10t-59.5 4l-27 4q-47 -4 -76.5 -9 t-40.5 -16q-10 -10 -15 -28t-5 -43z" />
<glyph unicode="&#xab;" horiz-adv-x="915" d="M102 526l246 521l105 -64l-215 -457l239 -460l-100 -66zM438 526l246 521l104 -64l-215 -457l240 -460l-100 -66z" />
<glyph unicode="&#xac;" />
<glyph unicode="&#xad;" />
<glyph unicode="&#xae;" horiz-adv-x="1603" d="M96 678q0 145 51.5 270t155.5 230q104 102 229 154t271 52v5q145 -4 269 -56.5t228 -156.5q102 -104 154.5 -228.5t52.5 -269.5t-52 -270t-155 -228q-104 -104 -228 -154.5t-269 -50.5t-270 50.5t-230 154.5q-104 102 -155.5 227.5t-51.5 270.5zM182 678 q0 -129 45 -239.5t135 -202.5q90 -94 201 -140.5t240 -46.5t238.5 46t199.5 141q90 94 135 204.5t45 237.5t-45 237.5t-135 202.5t-199.5 139.5t-238.5 47.5v4q-129 -4 -239.5 -51.5t-201.5 -139.5q-90 -92 -135 -202.5t-45 -237.5zM500 274v805h338q4 -4 7 -4h5h4h4h2h4 q47 -2 92 -16.5t84 -36.5q41 -23 61.5 -62.5t20.5 -99.5q0 -39 -10 -70.5t-29 -56.5q-20 -25 -46.5 -44t-61.5 -32q47 -14 75.5 -38.5t36.5 -55.5q10 -31 15.5 -67.5t7.5 -77.5v-4v-4v-4v-5v-3v-3v-4v-2v-4v-4v-3q0 -1 2 -3q0 -14 1 -28.5t3 -27.5q2 -14 6 -26t11 -23 l-101 4q-2 2 -5 8.5t-5 12.5t-3 13t-1 16q-2 4 -3 8t-1 8v9v9v13v12v7v5q-2 4 -2 7v6q-2 53 -9.5 93t-21.5 66q-14 29 -59 42.5t-123 13.5l-197 4v-353h-102zM602 694h201q2 -2 4 -2h4h2h4q37 0 71 7.5t64 21.5q35 16 51.5 49t16.5 84q0 45 -15.5 76t-46.5 45 q-31 16 -65.5 23.5t-73.5 7.5l-217 4v-316z" />
<glyph unicode="&#xaf;" />
<glyph unicode="&#xb0;" />
<glyph unicode="&#xb1;" horiz-adv-x="1024" d="M47 115v86h930v-86h-930zM47 680v86h420v393h88v-393h422v-86h-422v-389h-88v389h-420z" />
<glyph unicode="&#xb2;" />
<glyph unicode="&#xb3;" />
<glyph unicode="&#xb4;" horiz-adv-x="1024" d="M342 1147l270 205l72 -99l-293 -180z" />
<glyph unicode="&#xb5;" horiz-adv-x="1095" d="M127 -340v1319h147v-553q0 -37 2.5 -70.5t8.5 -66.5q4 -33 18 -61.5t39 -53.5q18 -20 41 -36.5t49 -26.5q25 -12 52.5 -17.5t56.5 -5.5q61 0 109 23.5t81 68.5q35 47 55.5 97.5t28.5 105.5v7q0 3 2 7v6v9v7q0 3 2 7v6v8v539h148v-979h-148v190q-18 -49 -44.5 -88 t-63.5 -69q-37 -29 -80 -43.5t-94 -14.5q-45 0 -84 9.5t-70 25.5q-31 18 -58.5 46t-50.5 65v-461h-147z" />
<glyph unicode="&#xb6;" horiz-adv-x="1255" d="M12 892v15v14v15q0 111 18.5 190.5t57.5 130.5t116 77t191 26l68 4h678v-1747h-137v1620h-162v-1620h-137v918h-218q-4 -2 -9 -3h-9h-11h-9h-10h-9h-11h-9h-16h-13h-6h-6h-8h-7q-37 0 -70.5 5.5t-68.5 13.5q-33 10 -62.5 28.5t-54.5 47.5q-23 27 -38 56.5t-25 61.5 q-8 33 -14.5 67t-6.5 67q-2 6 -2 13zM158 963q0 -88 12 -146.5t39 -89.5q25 -31 84 -47t153 -16h33h33q14 -2 31 -2h32q33 -2 65 -3.5t65 -3.5v4v578l-250 6q-2 -2 -4 -3l-2 -1h-5h-4h-4q-2 0 -2 2h-4h-4h-8h-8h-6h-7h-17h-20h-9h-9q-4 -2 -9 -2h-9q-14 -2 -29.5 -5 t-30.5 -7q-14 -4 -26.5 -11.5t-22.5 -17.5q-14 -14 -23.5 -30.5t-15.5 -37.5q-6 -20 -10 -39.5t-6 -41.5q-2 -12 -2 -24v-21v-21v-20z" />
<glyph unicode="&#xb7;" />
<glyph unicode="&#xb8;" horiz-adv-x="1024" d="M387 -311l139 239l113 -63l-162 -223z" />
<glyph unicode="&#xb9;" />
<glyph unicode="&#xba;" horiz-adv-x="1255" d="M301 575v80h653v-80h-653zM358 1038v56q0 82 12.5 137t39.5 86q25 29 80 44t139 15t137 -15t80 -46q25 -31 38 -88.5t13 -143.5v-28q0 -76 -10 -128.5t-29 -86.5q-20 -33 -73.5 -50.5t-143.5 -17.5q-76 0 -129 14.5t-88 40.5q-33 29 -49.5 81t-16.5 130zM461 991 q0 -18 3 -34.5t5 -32.5q4 -14 11 -26.5t16 -20.5q8 -8 17 -12.5t22 -6.5q10 -2 22 -3t25 -1q70 0 113.5 8t62.5 23q18 16 27.5 54t9.5 99v80q0 39 -5.5 72t-15.5 57q-10 23 -39.5 35t-77.5 12l-45 4q-2 -2 -5 -3t-5 -1h-6h-6h-5h-5q-4 -2 -7 -2h-6q-10 -2 -19 -3t-20 -3 q-8 -2 -16 -6t-14 -8q-8 -8 -14.5 -18.5t-10.5 -22.5q-4 -14 -7 -27.5t-3 -29.5q-2 -8 -2 -16v-13v-15v-12v-24v-58v-14v-10v-12v-9z" />
<glyph unicode="&#xbb;" horiz-adv-x="915" d="M102 66l238 460l-215 457l106 64l246 -521l-276 -526zM438 66l238 460l-215 457l106 64l246 -521l-276 -526z" />
<glyph unicode="&#xbc;" />
<glyph unicode="&#xbd;" />
<glyph unicode="&#xbe;" />
<glyph unicode="&#xbf;" horiz-adv-x="1062" d="M102 -51q0 57 8.5 114.5t22.5 108.5q16 53 56 91t108 63q4 2 9 3t11 3q4 2 9.5 4t11.5 4h2l2 2h1q34 10 63.5 24.5t56.5 30.5t40 45t13 68v7v5v7q0 3 2 6v5v5v7v5v4h150q0 -70 -7.5 -120t-21.5 -81t-49 -58.5t-94 -51.5q-4 -2 -9.5 -4t-9.5 -4q-6 -2 -11 -4t-9 -5 q-12 -6 -24.5 -10t-22.5 -8q-12 -4 -21.5 -8t-19.5 -8q-35 -16 -59.5 -37t-37.5 -43q-14 -23 -20 -62t-6 -92q0 -90 13 -144t40 -73q29 -18 84 -28.5t141 -10.5q66 0 118 8.5t91 24.5q39 14 58.5 60t19.5 124v92h143q0 -123 -17 -208.5t-52 -135.5q-35 -49 -120 -73.5 t-220 -24.5q-109 0 -192 15.5t-138 46.5q-57 31 -85 108.5t-28 202.5zM514 770v186h162v-186h-162z" />
<glyph unicode="&#xc0;" horiz-adv-x="1247" d="M10 0l498 1366h219l510 -1366h-162l-106 289h-690l-105 -289h-164zM319 414h605l-303 839zM453 1634l71 99l271 -205l-47 -74z" />
<glyph unicode="&#xc1;" horiz-adv-x="1247" d="M10 0l498 1366h219l510 -1366h-162l-106 289h-690l-105 -289h-164zM319 414h605l-303 839zM453 1528l270 205l72 -99l-293 -180z" />
<glyph unicode="&#xc2;" horiz-adv-x="1247" d="M10 0l498 1366h219l510 -1366h-162l-106 289h-690l-105 -289h-164zM305 1528l322 194l313 -194l-43 -78l-270 125l-283 -125zM319 414h605l-303 839z" />
<glyph unicode="&#xc3;" horiz-adv-x="1247" d="M10 0l498 1366h219l510 -1366h-162l-106 289h-690l-105 -289h-164zM313 1526q12 20 28.5 42.5t35.5 43.5q18 23 43.5 34t56.5 13q18 0 35.5 -3t34.5 -9q8 -2 16 -6.5t17 -6.5q8 -4 16 -7t16 -7q16 -8 31.5 -15.5t32.5 -13.5q16 -6 33.5 -9t35.5 -3q16 0 31 5t27 15 t22.5 21.5t18.5 24.5l3 3l3 3q0 2 1 4t3 4v4l78 -49v-5v-1l-2 -2l-2 -2q-14 -25 -34 -47.5t-42 -43.5q-23 -20 -50.5 -30t-58.5 -10q-18 0 -34.5 3t-32.5 9t-31.5 12t-32.5 14h-3h-1q-2 0 -3 1t-1 4q-8 4 -15 6t-16 6q-8 2 -15 5t-15 5q-14 6 -29.5 9t-32.5 3 q-14 0 -26.5 -5t-22.5 -15q-8 -8 -16 -19.5t-15 -23.5l-3 -3q-1 -1 -1 -3v-1l-2 -3zM319 414h605l-303 839z" />
<glyph unicode="&#xc4;" horiz-adv-x="1247" d="M10 0l498 1366h219l510 -1366h-162l-106 289h-690l-105 -289h-164zM319 414h605l-303 839zM360 1483v135h160v-135h-160zM723 1483v135h162v-135h-162z" />
<glyph unicode="&#xc5;" horiz-adv-x="1247" d="M10 0l498 1366h219l510 -1366h-162l-106 289h-690l-105 -289h-164zM319 414h605l-303 839zM467 1595q0 31 11 58.5t36 50.5q23 23 50.5 35t60.5 12q31 0 58.5 -12.5t49.5 -34.5q23 -23 35 -50.5t12 -58.5q0 -33 -12 -60.5t-35 -49.5q-23 -25 -50.5 -36t-57.5 -11v4 q-2 -2 -3 -2h-1h-4h-3q-29 0 -53 11t-47 34q-25 23 -36 50t-11 60zM535 1595q0 -18 6 -34.5t20 -28.5q12 -14 28.5 -20.5t35.5 -6.5v4q2 -2 4 -2h4q14 0 27.5 6.5t25.5 18.5t19.5 28.5t7.5 34.5q0 16 -7.5 31.5t-19.5 30.5q-14 12 -29.5 19t-31.5 7q-18 0 -35 -7t-29 -19 q-14 -14 -20 -30t-6 -32z" />
<glyph unicode="&#xc6;" horiz-adv-x="1900" d="M-14 0l753 1366h1092v-143h-713v-457h682v-131h-682v-502h713v-133h-870v287h-635l-158 -287h-182zM395 418h566v805h-130z" />
<glyph unicode="&#xc7;" horiz-adv-x="1210" d="M76 578v4v4v4v4v4v4v2v4v8v9v7v7v6v6v14v15v219q0 94 17.5 172t49.5 137q35 59 104.5 96t176.5 52q16 2 32.5 3t32.5 3q16 0 34 1t34 3h16q8 0 17 2h16h17h33h34q135 0 225.5 -19.5t133.5 -58.5t68.5 -128t33.5 -228l-152 4q0 76 -9 131t-27 90t-70.5 53.5t-136.5 18.5 h-37h-35q-18 -2 -37 -2h-37q-37 -2 -72.5 -3t-70.5 -3q-76 -6 -124 -30t-69 -65q-20 -43 -29 -98t-9 -127v-20l2 -219v-72v-38v-34v-17q0 -9 2 -18q0 -10 1 -18t1 -18q2 -33 5 -66t9 -64q4 -33 13.5 -58t21.5 -48q12 -25 31.5 -40t46.5 -26q27 -8 54.5 -13t55.5 -7 q10 -2 20 -2h17h20h17h34h34h32q16 0 35 2h33h33q16 0 33.5 1t33.5 3q45 4 80 14.5t60 28.5q25 16 39 50t16 83v20v17v21v20q-2 10 -2 19v18v9v11v10v9v4h151v-20v-17v-8q0 -4 2 -6v-8v-9v-16v-16v-9q0 -4 2 -6v-8v-8q0 -76 -18 -135.5t-53 -104.5t-92.5 -68.5t-137.5 -25.5 q-27 -2 -54.5 -3t-55.5 -3h-28q-13 0 -28 -2h-27h-28l-190 2q-137 6 -219 55t-107 137q-27 90 -40 188t-15 204zM496 -311l139 239l113 -63l-162 -223z" />
<glyph unicode="&#xc8;" horiz-adv-x="1019" d="M76 0v1366h876v-137h-727v-463h697v-129h-697v-506h727v-131h-876zM340 1634l72 99l270 -205l-47 -74z" />
<glyph unicode="&#xc9;" horiz-adv-x="1019" d="M76 0v1366h876v-137h-727v-463h697v-129h-697v-506h727v-131h-876zM340 1528l270 205l72 -99l-293 -180z" />
<glyph unicode="&#xca;" horiz-adv-x="1019" d="M76 0v1366h876v-137h-727v-463h697v-129h-697v-506h727v-131h-876zM193 1528l321 194l313 -194l-43 -78l-270 125l-283 -125z" />
<glyph unicode="&#xcb;" horiz-adv-x="1019" d="M76 0v1366h876v-137h-727v-463h697v-129h-697v-506h727v-131h-876zM248 1483v135h160v-135h-160zM610 1483v135h162v-135h-162z" />
<glyph unicode="&#xcc;" horiz-adv-x="415" d="M37 1634l72 99l270 -205l-47 -74zM129 0v1366h156v-1366h-156z" />
<glyph unicode="&#xcd;" horiz-adv-x="415" d="M37 1528l270 205l72 -99l-293 -180zM129 0v1366h156v-1366h-156z" />
<glyph unicode="&#xce;" horiz-adv-x="411" d="M-111 1528l322 194l313 -194l-43 -78l-270 125l-283 -125zM129 0v1366h156v-1366h-156z" />
<glyph unicode="&#xcf;" horiz-adv-x="411" d="M-55 1483v135h159v-135h-159zM129 0v1366h156v-1366h-156zM307 1483v135h162v-135h-162z" />
<glyph unicode="&#xd0;" />
<glyph unicode="&#xd1;" horiz-adv-x="1425" d="M129 0v1366h250l768 -1247v1247h149v-1366h-249l-768 1235v-1235h-150zM403 1526q12 20 29 42.5t35 43.5q18 23 44 34t56 13q18 0 36 -3t34 -9q8 -2 16.5 -6.5t16.5 -6.5q8 -4 16 -7t16 -7q16 -8 32 -15.5t32 -13.5t33.5 -9t36.5 -3q16 0 30.5 5t26.5 15t22.5 21.5 t18.5 24.5l3 3l3 3q0 2 1 4t3 4v4l78 -49v-5v-1l-2 -2l-2 -2q-14 -25 -33.5 -47.5t-42.5 -43.5q-23 -20 -50.5 -30t-57.5 -10q-18 0 -35 3t-33 9t-31.5 12t-32.5 14h-3h-1q-2 0 -3 1t-1 4q-8 4 -15 6t-15 6q-8 2 -15.5 5t-15.5 5q-14 6 -29.5 9t-32.5 3q-14 0 -26.5 -5 t-22.5 -15q-8 -8 -16 -19.5t-14 -23.5l-4 -3q-1 -1 -1 -3v-1l-2 -3z" />
<glyph unicode="&#xd2;" />
<glyph unicode="&#xd3;" horiz-adv-x="1220" d="M76 456v66v33v35v33v32v4v80q0 137 14 251t41 204q29 90 126 136t263 46l68 4q139 -4 243.5 -21.5t174.5 -51.5q72 -35 106.5 -133.5t34.5 -258.5v-61v-59v-62v-61q0 -61 -1 -122t-3 -120q-2 -125 -29 -213t-76 -137t-137 -72.5t-217 -23.5h-8h-8h-4h-2h-5h-4h-8h-8h-4 h-2h-4h-4q-8 2 -17 2h-14h-15h-14q-117 0 -205 16t-147 53q-59 35 -93 118t-40 214q-2 35 -2 69zM231 666l2 -220q2 -102 17.5 -168.5t44.5 -99.5t95.5 -49t170.5 -16q115 0 197 11t131 36q47 25 73.5 99.5t28.5 199.5v56v54v29q0 14 2 29v28v29v29v28v27v29v28v29v27v28 q0 127 -22.5 201t-67.5 94q-45 23 -121.5 33t-185.5 10l-51 4q-90 -4 -151.5 -17t-92.5 -42q-31 -27 -47 -97.5t-18 -181.5zM442 1530l271 205l71 -99l-292 -180z" />
<glyph unicode="&#xd4;" horiz-adv-x="1220" d="M76 456v66v33v35v33v32v4v80q0 137 14 251t41 204q29 90 126 136t263 46l68 4q139 -4 243.5 -21.5t174.5 -51.5q72 -35 106.5 -133.5t34.5 -258.5v-61v-59v-62v-61q0 -61 -1 -122t-3 -120q-2 -125 -29 -213t-76 -137t-137 -72.5t-217 -23.5h-8h-8h-4h-2h-5h-4h-8h-8h-4 h-2h-4h-4q-8 2 -17 2h-14h-15h-14q-117 0 -205 16t-147 53q-59 35 -93 118t-40 214q-2 35 -2 69zM231 666l2 -220q2 -102 17.5 -168.5t44.5 -99.5t95.5 -49t170.5 -16q115 0 197 11t131 36q47 25 73.5 99.5t28.5 199.5v56v54v29q0 14 2 29v28v29v29v28v27v29v28v29v27v28 q0 127 -22.5 201t-67.5 94q-45 23 -121.5 33t-185.5 10l-51 4q-90 -4 -151.5 -17t-92.5 -42q-31 -27 -47 -97.5t-18 -181.5zM295 1528l321 194l314 -194l-43 -78l-271 125l-282 -125z" />
<glyph unicode="&#xd5;" horiz-adv-x="1220" d="M76 456v66v33v35v33v32v4v80q0 137 14 251t41 204q29 90 126 136t263 46l68 4q139 -4 243.5 -21.5t174.5 -51.5q72 -35 106.5 -133.5t34.5 -258.5v-61v-59v-62v-61q0 -61 -1 -122t-3 -120q-2 -125 -29 -213t-76 -137t-137 -72.5t-217 -23.5h-8h-8h-4h-2h-5h-4h-8h-8h-4 h-2h-4h-4q-8 2 -17 2h-14h-15h-14q-117 0 -205 16t-147 53q-59 35 -93 118t-40 214q-2 35 -2 69zM231 666l2 -220q2 -102 17.5 -168.5t44.5 -99.5t95.5 -49t170.5 -16q115 0 197 11t131 36q47 25 73.5 99.5t28.5 199.5v56v54v29q0 14 2 29v28v29v29v28v27v29v28v29v27v28 q0 127 -22.5 201t-67.5 94q-45 23 -121.5 33t-185.5 10l-51 4q-90 -4 -151.5 -17t-92.5 -42q-31 -27 -47 -97.5t-18 -181.5zM303 1528q12 20 28.5 42.5t35.5 43.5q18 23 43.5 34t56.5 13q18 0 35.5 -3t34.5 -9q8 -2 16 -6.5t16 -6.5q8 -4 16.5 -7t16.5 -7q16 -8 31.5 -15.5 t32.5 -13.5q16 -6 33.5 -9t35.5 -3q16 0 30.5 5t27.5 16q12 10 22 21t19 24l3 3l3 3q0 2 1 4t3 4v4l78 -49v-5l-2 -3l-2 -2q-14 -25 -34 -47.5t-42 -42.5q-23 -20 -50.5 -30.5t-58.5 -10.5q-18 0 -34.5 3t-32.5 9l-32 12t-32 14h-3q-3 0 -4 1.5t-1 3.5q-8 4 -15.5 6t-15.5 6 q-8 2 -15 5t-16 5q-14 6 -29.5 9t-31.5 3q-14 0 -26.5 -5t-22.5 -15q-8 -8 -16.5 -19.5t-14.5 -23.5l-3 -3q-1 -1 -1 -3v-2l-2 -2z" />
<glyph unicode="&#xd6;" horiz-adv-x="1220" d="M76 456v66v33v35v33v32v4v80q0 137 14 251t41 204q29 90 126 136t263 46l68 4q139 -4 243.5 -21.5t174.5 -51.5q72 -35 106.5 -133.5t34.5 -258.5v-61v-59v-62v-61q0 -61 -1 -122t-3 -120q-2 -125 -29 -213t-76 -137t-137 -72.5t-217 -23.5h-8h-8h-4h-2h-5h-4h-8h-8h-4 h-2h-4h-4q-8 2 -17 2h-14h-15h-14q-117 0 -205 16t-147 53q-59 35 -93 118t-40 214q-2 35 -2 69zM231 666l2 -220q2 -102 17.5 -168.5t44.5 -99.5t95.5 -49t170.5 -16q115 0 197 11t131 36q47 25 73.5 99.5t28.5 199.5v56v54v29q0 14 2 29v28v29v29v28v27v29v28v29v27v28 q0 127 -22.5 201t-67.5 94q-45 23 -121.5 33t-185.5 10l-51 4q-90 -4 -151.5 -17t-92.5 -42q-31 -27 -47 -97.5t-18 -181.5zM350 1485v135h160v-135h-160zM713 1485v135h161v-135h-161z" />
<glyph unicode="&#xd7;" />
<glyph unicode="&#xd8;" horiz-adv-x="1316" d="M20 2v148l82 79q-8 14 -13 34t-9 40q-2 23 -5 45.5t-3 44.5q-2 10 -3 19.5t-1 19.5v19v18v37v35v196v4v3v4v1v3v44v44q0 23 2 45t4 47q4 74 21.5 141.5t45.5 130.5q29 63 86.5 101t143.5 51q16 2 33.5 3t33.5 3t32.5 3t35.5 3h16q8 0 17 2h16h16h34h34l119 4q4 -4 8 -4h8 h8h11q47 -2 95 -8t93 -19q47 -12 88 -36.5t74 -65.5l125 127v-158l-72 -67l12 -37q6 -18 9 -41q2 -10 3 -20.5t3 -20.5q2 -12 3 -22.5t1 -20.5q0 -8 1 -17.5t1 -17.5q2 -10 2 -18v-19v-33v-30v-102v-99q0 -49 -1 -98t-3 -98q-2 -82 -17.5 -155t-44.5 -138q-29 -66 -90 -106 t-153 -50q-45 -4 -89.5 -6t-87.5 -2h-43q-23 0 -43 -2h-44h-44q-59 0 -116.5 4t-110.5 12q-55 10 -103 38t-89 77zM221 454q0 -5 2 -10v-9v-9v-20v-21v-20v-21l813 799q-16 23 -37.5 41t-46.5 30q-27 12 -54.5 18.5t-57.5 6.5h-13h-12h-14h-13h-12q-6 0 -12 2h-14h-13h-27 h-26h-25h-24q-154 0 -243 -20.5t-116 -61.5q-27 -39 -40 -148.5t-13 -287.5l-2 -213v-25v-20v-11zM262 229q16 -33 40 -53t50 -31q29 -10 57.5 -16t61.5 -8q23 -2 46.5 -3t47.5 -1h48h46q133 0 218.5 17.5t121.5 51.5q37 35 56.5 118t19.5 212v34v36v35v36v34v36v16 q0 8 2 19v17v18v25v28q-2 12 -2 26v27q-2 29 -3 56.5t-3 54.5z" />
<glyph unicode="&#xd9;" horiz-adv-x="1341" d="M131 406v960h156v-956q0 -90 15 -148.5t46 -87.5q31 -27 90.5 -40t145.5 -13l149 4q90 -4 153.5 8t100.5 37q35 25 53.5 83t18.5 153v960h153v-956q0 -109 -19 -187t-60 -127q-39 -49 -117 -73.5t-193 -28.5h-20q-10 0 -19 -2h-19h-20h-18q-10 0 -18 -2h-20h-19 q-125 0 -224.5 13t-171.5 44t-107.5 120t-35.5 239zM502 1634l71 99l271 -205l-47 -74z" />
<glyph unicode="&#xda;" horiz-adv-x="1341" d="M131 406v960h156v-956q0 -90 15 -148.5t46 -87.5q31 -27 90.5 -40t145.5 -13l149 4q90 -4 153.5 8t100.5 37q35 25 53.5 83t18.5 153v960h153v-956q0 -109 -19 -187t-60 -127q-39 -49 -117 -73.5t-193 -28.5h-20q-10 0 -19 -2h-19h-20h-18q-10 0 -18 -2h-20h-19 q-125 0 -224.5 13t-171.5 44t-107.5 120t-35.5 239zM502 1528l270 205l72 -99l-293 -180z" />
<glyph unicode="&#xdb;" horiz-adv-x="1341" d="M131 406v960h156v-956q0 -90 15 -148.5t46 -87.5q31 -27 90.5 -40t145.5 -13l149 4q90 -4 153.5 8t100.5 37q35 25 53.5 83t18.5 153v960h153v-956q0 -109 -19 -187t-60 -127q-39 -49 -117 -73.5t-193 -28.5h-20q-10 0 -19 -2h-19h-20h-18q-10 0 -18 -2h-20h-19 q-125 0 -224.5 13t-171.5 44t-107.5 120t-35.5 239zM354 1528l322 194l313 -194l-43 -78l-270 125l-283 -125z" />
<glyph unicode="&#xdc;" horiz-adv-x="1341" d="M131 406v960h156v-956q0 -90 15 -148.5t46 -87.5q31 -27 90.5 -40t145.5 -13l149 4q90 -4 153.5 8t100.5 37q35 25 53.5 83t18.5 153v960h153v-956q0 -109 -19 -187t-60 -127q-39 -49 -117 -73.5t-193 -28.5h-20q-10 0 -19 -2h-19h-20h-18q-10 0 -18 -2h-20h-19 q-125 0 -224.5 13t-171.5 44t-107.5 120t-35.5 239zM410 1485v135h159v-135h-159zM772 1485v135h162v-135h-162z" />
<glyph unicode="&#xdd;" />
<glyph unicode="&#xde;" />
<glyph unicode="&#xdf;" horiz-adv-x="1073" d="M123 0v1055q0 96 21.5 161.5t66.5 96.5t113.5 46t160.5 15h10h9h9h9q68 -2 129.5 -14t116.5 -35t84 -78t29 -141q0 -49 -10.5 -85t-32.5 -60q-20 -25 -54 -46.5t-79 -37.5q90 -18 144 -55.5t73 -90.5q18 -55 27 -122.5t9 -151.5q0 -94 -12 -175t-37 -153 q-25 -70 -93 -104.5t-181 -34.5q-53 0 -101.5 12t-89.5 39q-41 29 -61.5 72t-20.5 102v9v9v10q0 5 3 9v9v9v10v9l139 4v-9v-8v-5v-7q2 -31 8 -59.5t18 -52.5q12 -25 37 -37.5t64 -12.5q47 0 79.5 13.5t51.5 40.5q18 29 28.5 63.5t12.5 77.5v8v10v9v8v9q0 5 2 9v9v10v8 q0 4 2 10v8v8v20v17q0 74 -10.5 139.5t-28.5 122.5t-73.5 86t-147.5 29h-17h-16h-16h-15q-8 -2 -16 -2h-16h-17h-16v125q4 -4 9 -4h11h11q6 0 12 2h9h11h9h12h7h5h8h8q41 0 77 5t67 13q31 10 47 41t16 86q0 66 -16 104t-49 50t-77 18.5t-99 6.5q-57 0 -98.5 -10.5 t-69.5 -28.5q-27 -20 -41.5 -59.5t-14.5 -98.5v-1065h-149z" />
<glyph unicode="&#xe0;" horiz-adv-x="1038" d="M88 283q0 96 26.5 155.5t78.5 83.5q53 25 119.5 37t148.5 12h11h11q6 -2 13 -2h12h12h12q6 -2 13 -2h12q10 0 18.5 -1t18.5 -3q8 -2 17.5 -3t17.5 -3q18 -2 35.5 -7t33.5 -11q10 -4 20.5 -10.5t18.5 -16.5q8 -8 15.5 -18.5t13.5 -20.5v119q0 84 -12.5 139t-36.5 76 q-25 23 -81 33t-144 10h-10h-9q-4 -2 -9 -2h-11h-13h-10q-6 -2 -11 -2h-9q-14 -2 -29.5 -4t-28.5 -6q-14 -4 -24 -11l-21 -12q-10 -8 -17 -17.5t-11 -19.5t-7.5 -21.5t-3.5 -23.5q0 -2 -1 -4l-1 -2v-4v-4v-5v-7v-5v-2v-4v-4v-4v-2q0 -2 1 -4t1 -4v4h-147q0 96 26.5 154.5 t81.5 78.5q53 20 121 30.5t150 10.5q98 0 175 -13t130 -42q53 -27 80.5 -97.5t27.5 -183.5v-618h-133l6 98q-31 -41 -67.5 -65.5t-77.5 -32.5t-85 -12t-91 -4q-88 0 -157.5 11t-119.5 38q-51 27 -75.5 89.5t-24.5 160.5zM236 299v4q0 -66 12 -107.5t39 -62.5 q25 -20 67.5 -29.5t102.5 -9.5h20h23h21q11 0 24 2q43 2 82 11.5t75 25.5q35 16 53.5 52t18.5 89q0 66 -19.5 105t-58.5 53t-86 21.5t-100 7.5l-35 4q-4 -2 -9 -3t-9 -1h-12h-9h-11h-9q-6 -2 -12 -2h-9q-18 -2 -35.5 -6t-33.5 -9q-16 -4 -30.5 -11t-25.5 -17 q-8 -6 -14 -14.5t-10 -18.5q-2 -10 -5 -21.5t-3 -21.5q-2 -6 -2 -11v-10v-11v-9zM348 1253l72 99l270 -205l-47 -74z" />
<glyph unicode="&#xe1;" horiz-adv-x="1038" d="M88 283q0 96 26.5 155.5t78.5 83.5q53 25 119.5 37t148.5 12h11h11q6 -2 13 -2h12h12h12q6 -2 13 -2h12q10 0 18.5 -1t18.5 -3q8 -2 17.5 -3t17.5 -3q18 -2 35.5 -7t33.5 -11q10 -4 20.5 -10.5t18.5 -16.5q8 -8 15.5 -18.5t13.5 -20.5v119q0 84 -12.5 139t-36.5 76 q-25 23 -81 33t-144 10h-10h-9q-4 -2 -9 -2h-11h-13h-10q-6 -2 -11 -2h-9q-14 -2 -29.5 -4t-28.5 -6q-14 -4 -24 -11l-21 -12q-10 -8 -17 -17.5t-11 -19.5t-7.5 -21.5t-3.5 -23.5q0 -2 -1 -4l-1 -2v-4v-4v-5v-7v-5v-2v-4v-4v-4v-2q0 -2 1 -4t1 -4v4h-147q0 96 26.5 154.5 t81.5 78.5q53 20 121 30.5t150 10.5q98 0 175 -13t130 -42q53 -27 80.5 -97.5t27.5 -183.5v-618h-133l6 98q-31 -41 -67.5 -65.5t-77.5 -32.5t-85 -12t-91 -4q-88 0 -157.5 11t-119.5 38q-51 27 -75.5 89.5t-24.5 160.5zM236 299v4q0 -66 12 -107.5t39 -62.5 q25 -20 67.5 -29.5t102.5 -9.5h20h23h21q11 0 24 2q43 2 82 11.5t75 25.5q35 16 53.5 52t18.5 89q0 66 -19.5 105t-58.5 53t-86 21.5t-100 7.5l-35 4q-4 -2 -9 -3t-9 -1h-12h-9h-11h-9q-6 -2 -12 -2h-9q-18 -2 -35.5 -6t-33.5 -9q-16 -4 -30.5 -11t-25.5 -17 q-8 -6 -14 -14.5t-10 -18.5q-2 -10 -5 -21.5t-3 -21.5q-2 -6 -2 -11v-10v-11v-9zM348 1147l270 205l72 -99l-293 -180z" />
<glyph unicode="&#xe2;" horiz-adv-x="1038" d="M88 283q0 96 26.5 155.5t78.5 83.5q53 25 119.5 37t148.5 12h11h11q6 -2 13 -2h12h12h12q6 -2 13 -2h12q10 0 18.5 -1t18.5 -3q8 -2 17.5 -3t17.5 -3q18 -2 35.5 -7t33.5 -11q10 -4 20.5 -10.5t18.5 -16.5q8 -8 15.5 -18.5t13.5 -20.5v119q0 84 -12.5 139t-36.5 76 q-25 23 -81 33t-144 10h-10h-9q-4 -2 -9 -2h-11h-13h-10q-6 -2 -11 -2h-9q-14 -2 -29.5 -4t-28.5 -6q-14 -4 -24 -11l-21 -12q-10 -8 -17 -17.5t-11 -19.5t-7.5 -21.5t-3.5 -23.5q0 -2 -1 -4l-1 -2v-4v-4v-5v-7v-5v-2v-4v-4v-4v-2q0 -2 1 -4t1 -4v4h-147q0 96 26.5 154.5 t81.5 78.5q53 20 121 30.5t150 10.5q98 0 175 -13t130 -42q53 -27 80.5 -97.5t27.5 -183.5v-618h-133l6 98q-31 -41 -67.5 -65.5t-77.5 -32.5t-85 -12t-91 -4q-88 0 -157.5 11t-119.5 38q-51 27 -75.5 89.5t-24.5 160.5zM201 1145l321 194l314 -194l-43 -78l-271 125 l-282 -125zM236 299v4q0 -66 12 -107.5t39 -62.5q25 -20 67.5 -29.5t102.5 -9.5h20h23h21q11 0 24 2q43 2 82 11.5t75 25.5q35 16 53.5 52t18.5 89q0 66 -19.5 105t-58.5 53t-86 21.5t-100 7.5l-35 4q-4 -2 -9 -3t-9 -1h-12h-9h-11h-9q-6 -2 -12 -2h-9q-18 -2 -35.5 -6 t-33.5 -9q-16 -4 -30.5 -11t-25.5 -17q-8 -6 -14 -14.5t-10 -18.5q-2 -10 -5 -21.5t-3 -21.5q-2 -6 -2 -11v-10v-11v-9z" />
<glyph unicode="&#xe3;" horiz-adv-x="1038" d="M88 283q0 96 26.5 155.5t78.5 83.5q53 25 119.5 37t148.5 12h11h11q6 -2 13 -2h12h12h12q6 -2 13 -2h12q10 0 18.5 -1t18.5 -3q8 -2 17.5 -3t17.5 -3q18 -2 35.5 -7t33.5 -11q10 -4 20.5 -10.5t18.5 -16.5q8 -8 15.5 -18.5t13.5 -20.5v119q0 84 -12.5 139t-36.5 76 q-25 23 -81 33t-144 10h-10h-9q-4 -2 -9 -2h-11h-13h-10q-6 -2 -11 -2h-9q-14 -2 -29.5 -4t-28.5 -6q-14 -4 -24 -11l-21 -12q-10 -8 -17 -17.5t-11 -19.5t-7.5 -21.5t-3.5 -23.5q0 -2 -1 -4l-1 -2v-4v-4v-5v-7v-5v-2v-4v-4v-4v-2q0 -2 1 -4t1 -4v4h-147q0 96 26.5 154.5 t81.5 78.5q53 20 121 30.5t150 10.5q98 0 175 -13t130 -42q53 -27 80.5 -97.5t27.5 -183.5v-618h-133l6 98q-31 -41 -67.5 -65.5t-77.5 -32.5t-85 -12t-91 -4q-88 0 -157.5 11t-119.5 38q-51 27 -75.5 89.5t-24.5 160.5zM209 1116q12 20 28.5 43t34.5 43q18 23 44 34t57 13 q18 0 35.5 -3t33.5 -9q8 -2 16.5 -6t16.5 -6q8 -4 16.5 -7.5t16.5 -7.5q16 -8 31.5 -15t31.5 -13t34 -9.5t36 -3.5q16 0 30.5 5.5t26.5 15.5t22.5 21.5t18.5 23.5l3 3l3 3q0 2 1.5 4t3.5 4v4l77 -49v-5v-1l-2 -2l-2 -2q-14 -25 -33.5 -47.5t-41.5 -42.5q-23 -20 -50.5 -30.5 t-58.5 -10.5q-18 0 -34.5 3t-33.5 9q-16 6 -31.5 12.5t-31.5 14.5h-3q-3 0 -4 1t-1 3q-8 4 -15.5 6t-15.5 6q-8 2 -15.5 5t-15.5 5q-14 6 -29.5 9.5t-31.5 3.5q-14 0 -26.5 -5.5t-22.5 -15.5q-8 -8 -16.5 -19t-14.5 -24l-3 -3q-1 -1 -1 -3v-1l-2 -3zM236 299v4 q0 -66 12 -107.5t39 -62.5q25 -20 67.5 -29.5t102.5 -9.5h20h23h21q11 0 24 2q43 2 82 11.5t75 25.5q35 16 53.5 52t18.5 89q0 66 -19.5 105t-58.5 53t-86 21.5t-100 7.5l-35 4q-4 -2 -9 -3t-9 -1h-12h-9h-11h-9q-6 -2 -12 -2h-9q-18 -2 -35.5 -6t-33.5 -9q-16 -4 -30.5 -11 t-25.5 -17q-8 -6 -14 -14.5t-10 -18.5q-2 -10 -5 -21.5t-3 -21.5q-2 -6 -2 -11v-10v-11v-9z" />
<glyph unicode="&#xe4;" horiz-adv-x="1038" d="M88 283q0 96 26.5 155.5t78.5 83.5q53 25 119.5 37t148.5 12h11h11q6 -2 13 -2h12h12h12q6 -2 13 -2h12q10 0 18.5 -1t18.5 -3q8 -2 17.5 -3t17.5 -3q18 -2 35.5 -7t33.5 -11q10 -4 20.5 -10.5t18.5 -16.5q8 -8 15.5 -18.5t13.5 -20.5v119q0 84 -12.5 139t-36.5 76 q-25 23 -81 33t-144 10h-10h-9q-4 -2 -9 -2h-11h-13h-10q-6 -2 -11 -2h-9q-14 -2 -29.5 -4t-28.5 -6q-14 -4 -24 -11l-21 -12q-10 -8 -17 -17.5t-11 -19.5t-7.5 -21.5t-3.5 -23.5q0 -2 -1 -4l-1 -2v-4v-4v-5v-7v-5v-2v-4v-4v-4v-2q0 -2 1 -4t1 -4v4h-147q0 96 26.5 154.5 t81.5 78.5q53 20 121 30.5t150 10.5q98 0 175 -13t130 -42q53 -27 80.5 -97.5t27.5 -183.5v-618h-133l6 98q-31 -41 -67.5 -65.5t-77.5 -32.5t-85 -12t-91 -4q-88 0 -157.5 11t-119.5 38q-51 27 -75.5 89.5t-24.5 160.5zM236 299v4q0 -66 12 -107.5t39 -62.5 q25 -20 67.5 -29.5t102.5 -9.5h20h23h21q11 0 24 2q43 2 82 11.5t75 25.5q35 16 53.5 52t18.5 89q0 66 -19.5 105t-58.5 53t-86 21.5t-100 7.5l-35 4q-4 -2 -9 -3t-9 -1h-12h-9h-11h-9q-6 -2 -12 -2h-9q-18 -2 -35.5 -6t-33.5 -9q-16 -4 -30.5 -11t-25.5 -17 q-8 -6 -14 -14.5t-10 -18.5q-2 -10 -5 -21.5t-3 -21.5q-2 -6 -2 -11v-10v-11v-9zM256 1055v135h160v-135h-160zM618 1055v135h162v-135h-162z" />
<glyph unicode="&#xe5;" horiz-adv-x="1038" d="M88 283q0 96 26.5 155.5t78.5 83.5q53 25 119.5 37t148.5 12h11h11q6 -2 13 -2h12h12h12q6 -2 13 -2h12q10 0 18.5 -1t18.5 -3q8 -2 17.5 -3t17.5 -3q18 -2 35.5 -7t33.5 -11q10 -4 20.5 -10.5t18.5 -16.5q8 -8 15.5 -18.5t13.5 -20.5v119q0 84 -12.5 139t-36.5 76 q-25 23 -81 33t-144 10h-10h-9q-4 -2 -9 -2h-11h-13h-10q-6 -2 -11 -2h-9q-14 -2 -29.5 -4t-28.5 -6q-14 -4 -24 -11l-21 -12q-10 -8 -17 -17.5t-11 -19.5t-7.5 -21.5t-3.5 -23.5q0 -2 -1 -4l-1 -2v-4v-4v-5v-7v-5v-2v-4v-4v-4v-2q0 -2 1 -4t1 -4v4h-147q0 96 26.5 154.5 t81.5 78.5q53 20 121 30.5t150 10.5q98 0 175 -13t130 -42q53 -27 80.5 -97.5t27.5 -183.5v-618h-133l6 98q-31 -41 -67.5 -65.5t-77.5 -32.5t-85 -12t-91 -4q-88 0 -157.5 11t-119.5 38q-51 27 -75.5 89.5t-24.5 160.5zM236 299v4q0 -66 12 -107.5t39 -62.5 q25 -20 67.5 -29.5t102.5 -9.5h20h23h21q11 0 24 2q43 2 82 11.5t75 25.5q35 16 53.5 52t18.5 89q0 66 -19.5 105t-58.5 53t-86 21.5t-100 7.5l-35 4q-4 -2 -9 -3t-9 -1h-12h-9h-11h-9q-6 -2 -12 -2h-9q-18 -2 -35.5 -6t-33.5 -9q-16 -4 -30.5 -11t-25.5 -17 q-8 -6 -14 -14.5t-10 -18.5q-2 -10 -5 -21.5t-3 -21.5q-2 -6 -2 -11v-10v-11v-9zM362 1178q0 31 11.5 58.5t36.5 49.5q23 23 50 35t60 12q31 0 58.5 -12t50.5 -35t35 -50.5t12 -57.5q0 -33 -12.5 -60.5t-34.5 -50.5q-23 -25 -50.5 -36t-58.5 -11v4q-2 -2 -3 -2h-4h-3 q-29 0 -53.5 11t-46.5 34q-25 23 -36.5 50.5t-11.5 60.5zM430 1178q0 -18 6 -35t21 -29q12 -14 28.5 -20.5t34.5 -6.5v5q2 -2 4 -2h4q14 0 27.5 6t26.5 18q12 12 19 28.5t7 35.5q0 16 -7 31.5t-19 29.5q-14 12 -29.5 19.5t-32.5 7.5q-18 0 -34.5 -7.5t-28.5 -19.5 q-14 -14 -20.5 -29.5t-6.5 -31.5z" />
<glyph unicode="&#xe6;" horiz-adv-x="1695" d="M88 276q0 90 24.5 149.5t73.5 86.5q49 29 114 42t146 13q29 0 59 -1t56 -3q14 0 29 -2l28 -4q12 -2 26.5 -5t29.5 -7q16 -6 30.5 -13.5t26.5 -17.5q10 -8 21.5 -20.5t21.5 -24.5v166q0 78 -16.5 127t-48.5 63q-33 16 -87.5 24.5t-129.5 8.5q-43 0 -81 -4t-73 -14 q-33 -8 -50.5 -40t-17.5 -85v-19h-147q6 92 31.5 148.5t70.5 77.5q43 20 107.5 30.5t148.5 10.5h27h29h13h15q6 -2 14 -2h15q12 0 24.5 -1.5t24.5 -3.5q10 -2 23 -4l24 -4q25 -4 48.5 -11t45.5 -17q12 -6 22.5 -13.5t18.5 -17.5t15 -23l12 -24q16 31 41 52t55 34 q31 12 63.5 21t65.5 14h14q7 0 15 2h13h14h13q7 0 13 2h15h12q145 0 233 -32t119 -93q29 -61 44 -157.5t15 -227.5v4h-679v-7v-8v-3v-4v-3v-8v-8v-10v-9v-8q0 -4 2 -8v-8v-8q0 -23 2 -45l4 -45q4 -20 8 -42t10 -44q6 -20 16.5 -35t24.5 -25q16 -8 32.5 -15t37.5 -12 q10 -2 19 -3t18 -1q4 0 9 -1t11 -1h9h9q10 -2 20 -2h17h10h11h9h9q51 0 94 5.5t80 15.5q35 10 53.5 45t18.5 96v29h147v-7v-8v-3q0 -3 1.5 -4t1.5 -3v-3v-1v-3v-3v-3v-4v-3q0 -86 -29 -140.5t-86 -76.5q-57 -20 -120.5 -30.5t-131.5 -12.5h-12h-11h-11h-9h-12h-13h-12h-10 q-49 2 -95 9t-89 19q-43 14 -75 46t-50 83q-18 -45 -46 -74.5t-69 -46.5q-39 -14 -82 -22t-86 -10h-8q-4 0 -8 -2h-9h-8h-16h-17q-82 0 -152.5 11t-129.5 36q-57 25 -87 86t-30 157zM233 293v4q0 -76 17.5 -119t54.5 -57t86 -20.5t111 -6.5q53 0 100 7.5t90 21.5 q41 16 62.5 55t21.5 103v4v6q-2 2 -2 5v5v6v6q-2 2 -2 5v6q-2 12 -6 24l-8 25q-6 12 -13.5 21t-17.5 18q-12 10 -27.5 16t-33.5 10t-37 7.5t-37 5.5h-17q-8 0 -16 2h-15h-16h-15q-7 0 -13 2h-15h-12q-47 0 -89 -6.5t-79 -18.5t-54.5 -46t-17.5 -91zM915 578l541 4 q-2 76 -13 130t-34 85q-23 29 -77 44t-138 15h-22h-21h-12h-11q-6 -2 -11 -2h-11q-18 -2 -36.5 -6t-37.5 -10q-18 -6 -33.5 -14.5t-27.5 -20.5q-14 -14 -24.5 -31.5t-14.5 -38.5q-6 -20 -9 -39.5t-3 -40.5q0 -2 -1 -5t-1 -5v-6v-6v-11v-10v-4v-4q-2 -2 -3 -4v-4v-8v-8z" />
<glyph unicode="&#xe7;" horiz-adv-x="993" d="M102 504q0 121 20.5 209t63.5 141q41 53 126 81t212 28q78 0 146.5 -13.5t126.5 -38.5q57 -27 85.5 -86t28.5 -153v-4v-4v-5v-4q-2 -2 -2 -4v-4v-4v-4l-139 4q0 66 -14.5 108t-42.5 60q-29 18 -75 27.5t-112 9.5q-94 0 -151.5 -17.5t-79.5 -52.5q-20 -33 -31.5 -97.5 t-11.5 -158.5v-94q0 -84 9 -144.5t28 -101.5q18 -39 73.5 -59.5t149.5 -20.5q80 0 134 9.5t83 27.5t43 69.5t14 133.5v4h142q0 -115 -22.5 -186.5t-69.5 -106.5q-45 -33 -123 -48t-187 -15q-152 0 -242.5 29.5t-121.5 91.5q-31 61 -45.5 159.5t-14.5 233.5zM379 -281 l121 209l96 -55l-139 -195z" />
<glyph unicode="&#xe8;" horiz-adv-x="1028" d="M98 451q0 125 15.5 220t46.5 163q31 66 116.5 99.5t229.5 33.5q133 0 220 -22.5t126 -67.5q41 -45 60.5 -134.5t21.5 -222.5v-67h-688q0 -84 8 -148.5t25 -111.5q16 -49 73.5 -73t153.5 -24l39 4q10 -4 20 -4h23q12 0 24.5 1t26.5 3q8 0 15.5 1t15.5 1q6 2 13 4.5t15 4.5 q14 4 26.5 9t23.5 13q10 6 17 15.5t9 21.5q4 12 6 25l4 24v4q0 2 2 4v5v6v9v9v35h148q0 -109 -28.5 -173.5t-84.5 -86.5q-57 -23 -131 -33t-164 -10q-135 0 -221 24.5t-127 75.5q-39 51 -59.5 141.5t-20.5 221.5zM248 559l543 4q0 86 -10.5 144.5t-32.5 89.5q-20 29 -78 44 t-152 15q-82 0 -137 -15.5t-82 -45.5q-27 -31 -39 -90.5t-12 -145.5zM346 1253l72 99l270 -205l-47 -74z" />
<glyph unicode="&#xe9;" horiz-adv-x="1028" d="M98 451q0 125 15.5 220t46.5 163q31 66 116.5 99.5t229.5 33.5q133 0 220 -22.5t126 -67.5q41 -45 60.5 -134.5t21.5 -222.5v-67h-688q0 -84 8 -148.5t25 -111.5q16 -49 73.5 -73t153.5 -24l39 4q10 -4 20 -4h23q12 0 24.5 1t26.5 3q8 0 15.5 1t15.5 1q6 2 13 4.5t15 4.5 q14 4 26.5 9t23.5 13q10 6 17 15.5t9 21.5q4 12 6 25l4 24v4q0 2 2 4v5v6v9v9v35h148q0 -109 -28.5 -173.5t-84.5 -86.5q-57 -23 -131 -33t-164 -10q-135 0 -221 24.5t-127 75.5q-39 51 -59.5 141.5t-20.5 221.5zM248 559l543 4q0 86 -10.5 144.5t-32.5 89.5q-20 29 -78 44 t-152 15q-82 0 -137 -15.5t-82 -45.5q-27 -31 -39 -90.5t-12 -145.5zM346 1147l270 205l72 -99l-293 -180z" />
<glyph unicode="&#xea;" horiz-adv-x="1028" d="M98 451q0 125 15.5 220t46.5 163q31 66 116.5 99.5t229.5 33.5q133 0 220 -22.5t126 -67.5q41 -45 60.5 -134.5t21.5 -222.5v-67h-688q0 -84 8 -148.5t25 -111.5q16 -49 73.5 -73t153.5 -24l39 4q10 -4 20 -4h23q12 0 24.5 1t26.5 3q8 0 15.5 1t15.5 1q6 2 13 4.5t15 4.5 q14 4 26.5 9t23.5 13q10 6 17 15.5t9 21.5q4 12 6 25l4 24v4q0 2 2 4v5v6v9v9v35h148q0 -109 -28.5 -173.5t-84.5 -86.5q-57 -23 -131 -33t-164 -10q-135 0 -221 24.5t-127 75.5q-39 51 -59.5 141.5t-20.5 221.5zM199 1145l321 194l314 -194l-43 -78l-271 125l-282 -125z M248 559l543 4q0 86 -10.5 144.5t-32.5 89.5q-20 29 -78 44t-152 15q-82 0 -137 -15.5t-82 -45.5q-27 -31 -39 -90.5t-12 -145.5z" />
<glyph unicode="&#xeb;" horiz-adv-x="1028" d="M98 451q0 125 15.5 220t46.5 163q31 66 116.5 99.5t229.5 33.5q133 0 220 -22.5t126 -67.5q41 -45 60.5 -134.5t21.5 -222.5v-67h-688q0 -84 8 -148.5t25 -111.5q16 -49 73.5 -73t153.5 -24l39 4q10 -4 20 -4h23q12 0 24.5 1t26.5 3q8 0 15.5 1t15.5 1q6 2 13 4.5t15 4.5 q14 4 26.5 9t23.5 13q10 6 17 15.5t9 21.5q4 12 6 25l4 24v4q0 2 2 4v5v6v9v9v35h148q0 -109 -28.5 -173.5t-84.5 -86.5q-57 -23 -131 -33t-164 -10q-135 0 -221 24.5t-127 75.5q-39 51 -59.5 141.5t-20.5 221.5zM248 559l543 4q0 86 -10.5 144.5t-32.5 89.5q-20 29 -78 44 t-152 15q-82 0 -137 -15.5t-82 -45.5q-27 -31 -39 -90.5t-12 -145.5zM254 1055v135h160v-135h-160zM616 1055v135h162v-135h-162z" />
<glyph unicode="&#xec;" horiz-adv-x="391" d="M25 1253l71 99l271 -205l-48 -74zM123 0v956h145v-956h-145z" />
<glyph unicode="&#xed;" horiz-adv-x="391" d="M25 1147l270 205l72 -99l-293 -180zM123 0v956h145v-956h-145z" />
<glyph unicode="&#xee;" horiz-adv-x="391" d="M-121 1145l322 194l313 -194l-43 -78l-270 125l-283 -125zM123 0v956h145v-956h-145z" />
<glyph unicode="&#xef;" horiz-adv-x="391" d="M-68 1053v135h160v-135h-160zM123 0v956h145v-956h-145zM295 1053v135h162v-135h-162z" />
<glyph unicode="&#xf0;" />
<glyph unicode="&#xf1;" horiz-adv-x="1054" d="M123 0v956h133v-122q29 41 63.5 68.5t77.5 41.5t89 21.5t96 7.5q96 0 164.5 -19.5t107.5 -56.5t58.5 -104.5t19.5 -163.5v-629h-146v621q0 70 -11 115.5t-34 70.5q-23 23 -70.5 35t-119.5 12q-70 0 -122 -16.5t-89 -46.5q-37 -33 -55.5 -85.5t-18.5 -123.5v-582h-143z M219 1116q12 20 28.5 43t35.5 43q18 23 43.5 34t56.5 13q18 0 35.5 -3t34.5 -9q8 -2 16 -6t16 -6q8 -4 16.5 -7.5t16.5 -7.5q16 -8 31.5 -15t32.5 -13q16 -6 33.5 -9.5t35.5 -3.5q16 0 30.5 5.5t27.5 15.5q12 10 22 21.5t19 23.5l3 3l3 3q0 2 1 4t3 4v4l78 -49v-5v-1l-2 -2 l-2 -2q-14 -25 -34 -47.5t-42 -42.5q-23 -20 -50.5 -30.5t-58.5 -10.5q-18 0 -34.5 3t-32.5 9t-31.5 12.5t-32.5 14.5h-3h-1q-2 0 -3 1t-1 3q-8 4 -15.5 6t-15.5 6q-8 2 -15 5t-15 5q-14 6 -30 9.5t-32 3.5q-14 0 -26.5 -5.5t-22.5 -15.5q-8 -8 -16.5 -19t-14.5 -24l-3 -3 q-1 -1 -1 -3v-1l-2 -3z" />
<glyph unicode="&#xf2;" horiz-adv-x="1038" d="M111 410v94q0 119 17 207t54 145q37 55 121 84t215 29q137 0 226.5 -24.5t129.5 -72.5q41 -47 61.5 -138t20.5 -226q0 -119 -13 -214t-38 -167q-25 -74 -110.5 -108.5t-233.5 -34.5q-129 0 -217 19.5t-137 57.5q-49 41 -72.5 127.5t-23.5 221.5zM258 353q0 -11 2 -21 q2 -31 6 -58.5t10 -54.5t15.5 -47t23.5 -35q10 -10 24.5 -17t31.5 -11q16 -4 33.5 -7.5t35.5 -3.5h4h5h2h4h8h8l66 4q2 -2 5 -2h5h5h5q53 0 96 8.5t74 24.5q35 16 53.5 59.5t22.5 110.5v13q0 7 2 16v13v13v13q0 6 2 14v13v16v12q0 6 2 14v14v13v28v27q0 88 -8 150.5 t-25 101.5q-16 37 -68.5 56.5t-140.5 19.5l-30 4q-94 -4 -152.5 -18.5t-81.5 -42.5q-23 -29 -34 -93.5t-11 -167.5v-26v-80v-14v-11v-12v-12v-24zM362 1253l72 99l271 -205l-48 -74z" />
<glyph unicode="&#xf3;" horiz-adv-x="1038" d="M111 410v94q0 119 17 207t54 145q37 55 121 84t215 29q137 0 226.5 -24.5t129.5 -72.5q41 -47 61.5 -138t20.5 -226q0 -119 -13 -214t-38 -167q-25 -74 -110.5 -108.5t-233.5 -34.5q-129 0 -217 19.5t-137 57.5q-49 41 -72.5 127.5t-23.5 221.5zM258 353q0 -11 2 -21 q2 -31 6 -58.5t10 -54.5t15.5 -47t23.5 -35q10 -10 24.5 -17t31.5 -11q16 -4 33.5 -7.5t35.5 -3.5h4h5h2h4h8h8l66 4q2 -2 5 -2h5h5h5q53 0 96 8.5t74 24.5q35 16 53.5 59.5t22.5 110.5v13q0 7 2 16v13v13v13q0 6 2 14v13v16v12q0 6 2 14v14v13v28v27q0 88 -8 150.5 t-25 101.5q-16 37 -68.5 56.5t-140.5 19.5l-30 4q-94 -4 -152.5 -18.5t-81.5 -42.5q-23 -29 -34 -93.5t-11 -167.5v-26v-80v-14v-11v-12v-12v-24zM362 1147l271 205l72 -99l-293 -180z" />
<glyph unicode="&#xf4;" horiz-adv-x="1038" d="M111 410v94q0 119 17 207t54 145q37 55 121 84t215 29q137 0 226.5 -24.5t129.5 -72.5q41 -47 61.5 -138t20.5 -226q0 -119 -13 -214t-38 -167q-25 -74 -110.5 -108.5t-233.5 -34.5q-129 0 -217 19.5t-137 57.5q-49 41 -72.5 127.5t-23.5 221.5zM217 1145l322 194 l313 -194l-43 -78l-270 125l-283 -125zM258 353q0 -11 2 -21q2 -31 6 -58.5t10 -54.5t15.5 -47t23.5 -35q10 -10 24.5 -17t31.5 -11q16 -4 33.5 -7.5t35.5 -3.5h4h5h2h4h8h8l66 4q2 -2 5 -2h5h5h5q53 0 96 8.5t74 24.5q35 16 53.5 59.5t22.5 110.5v13q0 7 2 16v13v13v13 q0 6 2 14v13v16v12q0 6 2 14v14v13v28v27q0 88 -8 150.5t-25 101.5q-16 37 -68.5 56.5t-140.5 19.5l-30 4q-94 -4 -152.5 -18.5t-81.5 -42.5q-23 -29 -34 -93.5t-11 -167.5v-26v-80v-14v-11v-12v-12v-24z" />
<glyph unicode="&#xf5;" horiz-adv-x="1038" d="M111 410v94q0 119 17 207t54 145q37 55 121 84t215 29q137 0 226.5 -24.5t129.5 -72.5q41 -47 61.5 -138t20.5 -226q0 -119 -13 -214t-38 -167q-25 -74 -110.5 -108.5t-233.5 -34.5q-129 0 -217 19.5t-137 57.5q-49 41 -72.5 127.5t-23.5 221.5zM225 1116q12 20 28.5 43 t35.5 43q18 23 43.5 34t56.5 13q18 0 35.5 -3t34.5 -9q8 -2 16 -6t17 -6q8 -4 16 -7.5t16 -7.5q16 -8 31.5 -15t32.5 -13q16 -6 33.5 -9.5t35.5 -3.5q16 0 30.5 5.5t27.5 15.5q12 10 22.5 21.5t18.5 23.5l3 3l3 3q0 2 1 4t3 4v4l78 -49v-5v-1l-2 -2l-2 -2q-14 -25 -34 -47.5 t-42 -42.5q-23 -20 -50.5 -30.5t-58.5 -10.5q-18 0 -34.5 3t-32.5 9t-31.5 12.5t-32.5 14.5h-3q-3 0 -4 1t-1 3q-8 4 -15 6t-16 6q-8 2 -15 5t-15 5q-14 6 -29.5 9.5t-32.5 3.5q-14 0 -26.5 -5.5t-22.5 -15.5q-8 -8 -16.5 -19t-14.5 -24l-3 -3q-1 -1 -1 -3v-1l-2 -3z M258 353q0 -11 2 -21q2 -31 6 -58.5t10 -54.5t15.5 -47t23.5 -35q10 -10 24.5 -17t31.5 -11q16 -4 33.5 -7.5t35.5 -3.5h4h5h2h4h8h8l66 4q2 -2 5 -2h5h5h5q53 0 96 8.5t74 24.5q35 16 53.5 59.5t22.5 110.5v13q0 7 2 16v13v13v13q0 6 2 14v13v16v12q0 6 2 14v14v13v28v27 q0 88 -8 150.5t-25 101.5q-16 37 -68.5 56.5t-140.5 19.5l-30 4q-94 -4 -152.5 -18.5t-81.5 -42.5q-23 -29 -34 -93.5t-11 -167.5v-26v-80v-14v-11v-12v-12v-24z" />
<glyph unicode="&#xf6;" horiz-adv-x="1038" d="M111 410v94q0 119 17 207t54 145q37 55 121 84t215 29q137 0 226.5 -24.5t129.5 -72.5q41 -47 61.5 -138t20.5 -226q0 -119 -13 -214t-38 -167q-25 -74 -110.5 -108.5t-233.5 -34.5q-129 0 -217 19.5t-137 57.5q-49 41 -72.5 127.5t-23.5 221.5zM258 353q0 -11 2 -21 q2 -31 6 -58.5t10 -54.5t15.5 -47t23.5 -35q10 -10 24.5 -17t31.5 -11q16 -4 33.5 -7.5t35.5 -3.5h4h5h2h4h8h8l66 4q2 -2 5 -2h5h5h5q53 0 96 8.5t74 24.5q35 16 53.5 59.5t22.5 110.5v13q0 7 2 16v13v13v13q0 6 2 14v13v16v12q0 6 2 14v14v13v28v27q0 88 -8 150.5 t-25 101.5q-16 37 -68.5 56.5t-140.5 19.5l-30 4q-94 -4 -152.5 -18.5t-81.5 -42.5q-23 -29 -34 -93.5t-11 -167.5v-26v-80v-14v-11v-12v-12v-24zM272 1055v135h160v-135h-160zM635 1055v135h162v-135h-162z" />
<glyph unicode="&#xf7;" />
<glyph unicode="&#xf8;" horiz-adv-x="1013" d="M35 -33v127l76 70q-4 8 -7.5 17t-7.5 18q-2 10 -5 20t-5 21q-2 16 -4 33.5t-4 33.5t-2 34v36q-2 16 -2 33v34v34v34q0 125 18.5 214t54.5 140q37 53 121 79t213 26h20h19h9h12q4 -2 9 -2h9q41 -2 79 -6.5t75 -14.5q37 -8 70.5 -27.5t64.5 -48.5l104 105v-127l-67 -64 q6 -16 10 -29.5t6 -25.5q4 -14 6 -27.5t4 -27.5t3 -27.5t1 -25.5q2 -14 3 -28v-28v-82v-24v-21v-11v-9q-2 -6 -3 -11v-12q0 -14 -1 -30.5t-3 -30.5q-2 -16 -3 -31.5t-3 -32.5q-4 -31 -11 -61.5t-17 -58.5q-18 -51 -48 -83t-71 -49q-43 -14 -87 -21t-91 -9h-13q-6 0 -10 -2 h-11h-11h-22h-21h-17h-14q-8 2 -17 2h-16q-16 0 -33.5 1t-34.5 3q-31 2 -59.5 8t-56.5 14q-27 10 -51.5 25.5t-42.5 36.5zM217 397q0 -10 1 -20t3 -21v-20q0 -10 2 -21q2 -10 3 -20t3 -21l516 504q-4 4 -10 11.5t-12 15.5q-6 6 -13.5 12t-17.5 10q-16 6 -33.5 11.5 t-33.5 7.5q-8 0 -17.5 1t-17.5 3q-10 0 -18.5 1t-18.5 1h-9h-9h-9h-8l-55 4q-70 -4 -116 -14.5t-68 -28.5q-23 -18 -37.5 -68.5t-18.5 -130.5q0 -10 -1 -21t-1 -22q-2 -12 -2 -23v-22q0 -10 -1 -21t-1 -22v-23v-22v-20v-21zM250 176q10 -20 23.5 -33.5t33.5 -19.5 q18 -8 40 -12.5t42 -6.5q4 0 9 -1t12 -1q4 -2 9 -2h9h9h12h9h9q84 0 141.5 11.5t87.5 31.5q29 23 46.5 75t23.5 138q2 18 3 37t1 37v20q0 9 2 17v19v18v20v21q-2 10 -2 20v21q-2 23 -3 42t-5 40z" />
<glyph unicode="&#xf9;" horiz-adv-x="1038" d="M123 315v641h145v-637q0 -66 11.5 -108.5t31.5 -65.5q23 -23 66 -34t108 -11q84 0 141.5 15.5t86.5 48.5q29 31 43 87t14 138v567h145v-956h-133v127q-31 -49 -65.5 -79t-75.5 -42q-39 -8 -86 -14t-100 -6q-86 0 -148.5 19.5t-103.5 57.5q-39 41 -59.5 103.5t-20.5 148.5 zM348 1251l72 99l270 -205l-47 -74z" />
<glyph unicode="&#xfa;" horiz-adv-x="1038" d="M123 315v641h145v-637q0 -66 11.5 -108.5t31.5 -65.5q23 -23 66 -34t108 -11q84 0 141.5 15.5t86.5 48.5q29 31 43 87t14 138v567h145v-956h-133v127q-31 -49 -65.5 -79t-75.5 -42q-39 -8 -86 -14t-100 -6q-86 0 -148.5 19.5t-103.5 57.5q-39 41 -59.5 103.5t-20.5 148.5 zM348 1145l270 205l72 -99l-293 -180z" />
<glyph unicode="&#xfb;" horiz-adv-x="1038" d="M123 315v641h145v-637q0 -66 11.5 -108.5t31.5 -65.5q23 -23 66 -34t108 -11q84 0 141.5 15.5t86.5 48.5q29 31 43 87t14 138v567h145v-956h-133v127q-31 -49 -65.5 -79t-75.5 -42q-39 -8 -86 -14t-100 -6q-86 0 -148.5 19.5t-103.5 57.5q-39 41 -59.5 103.5t-20.5 148.5 zM201 1145l321 194l314 -194l-43 -78l-271 125l-282 -125z" />
<glyph unicode="&#xfc;" horiz-adv-x="1038" d="M123 315v641h145v-637q0 -66 11.5 -108.5t31.5 -65.5q23 -23 66 -34t108 -11q84 0 141.5 15.5t86.5 48.5q29 31 43 87t14 138v567h145v-956h-133v127q-31 -49 -65.5 -79t-75.5 -42q-39 -8 -86 -14t-100 -6q-86 0 -148.5 19.5t-103.5 57.5q-39 41 -59.5 103.5t-20.5 148.5 zM256 1053v135h160v-135h-160zM618 1053v135h162v-135h-162z" />
<glyph unicode="&#xfd;" />
<glyph unicode="&#xfe;" />
<glyph unicode="&#xff;" horiz-adv-x="796" d="M-6 956h145l299 -852l217 852h148l-271 -1011q-2 -6 -4 -13.5t-4 -15.5q-2 -6 -3 -13t-3 -16q-18 -59 -42.5 -114.5t-59.5 -104.5q-33 -49 -85 -74.5t-124 -25.5h-8q-4 0 -9 2q-6 0 -10 1t-8 1q-8 2 -16.5 3t-16.5 3v117h3q1 0 3 -2h3h4h4q2 0 4 -2h2h4h3q1 0 3 -2h3h3h4 h4h2h5q37 0 64.5 15t45.5 44t33.5 60.5t23.5 66.5q4 18 9.5 34.5t7.5 33.5q2 8 4 15t4 15q0 6 2 13.5t4 13.5h-51zM137 1053v135h160v-135h-160zM500 1053v135h162v-135h-162z" />
<glyph unicode="&#x152;" horiz-adv-x="2019" d="M90 489v20v17v20q0 9 2 17v8v11v8v8v8v10v9v8v229q0 156 33 258.5t96 149.5t170 71.5t256 24.5h33h33h16h16q8 -2 18 -2h17q16 -2 32.5 -3t33.5 -3q16 -2 32.5 -3t32.5 -5q33 -8 60.5 -18.5t50.5 -26.5q23 -14 42 -37t36 -51v143h868v-139h-721v-447h690v-137h-690v-496 h721v-135h-868v135q-20 -41 -51 -67.5t-70 -42.5q-39 -14 -78 -23.5t-80 -13.5h-12q-6 0 -12 -2h-13h-12h-12q-6 0 -12 -2h-13h-12q-152 0 -268.5 17.5t-200.5 53.5q-82 37 -123 144.5t-41 283.5zM244 543q0 -88 8 -162t27 -133q18 -57 80.5 -90t168.5 -37q8 0 16.5 -1 t16.5 -1h14h17h33h32v4q115 -4 197 7t131 34t75.5 95.5t29.5 197.5v215l4 209q0 115 -19.5 188.5t-58.5 101.5q-39 29 -115 43.5t-188 14.5l-146 4q-111 -4 -178 -27.5t-92 -70.5q-27 -45 -39 -122t-12 -186v-17v-17v-19v-18v-36v-34q-2 -18 -2 -37v-37v-35v-34z" />
<glyph unicode="&#x153;" horiz-adv-x="1714" d="M94 487q0 131 18.5 223.5t55.5 145.5t125 81t227 28h23h24h13h12q6 -2 12 -2h12q10 0 20.5 -1t22.5 -4q10 -2 20.5 -3t20.5 -3q20 -4 40 -10t40 -14q16 -8 30.5 -18.5t23.5 -22.5q10 -12 17 -27.5t11 -32.5q16 37 42 61.5t59 39.5q35 14 69.5 23.5t71.5 11.5h12q6 0 14 2 h13h12h12q6 0 13 2h12h12q111 0 191 -19.5t127 -60.5q47 -39 70.5 -118t23.5 -194v-112h-676v-10v-9v-5v-7q0 -2 -1 -4l-1 -2v-4v-4v-5v-7q0 -76 9 -134.5t28 -95.5q18 -39 70.5 -57.5t138.5 -18.5l53 4q4 -2 9 -2h9q51 0 91 7.5t67 21.5q31 16 47.5 54t16.5 102l141 4 q0 -102 -24.5 -166t-71.5 -88q-49 -27 -120 -38t-165 -11h-12h-13h-12h-14h-12h-13h-12q-8 2 -14 2h-13q-39 2 -76.5 8t-72.5 18q-37 12 -64.5 37t-46.5 64q-18 -39 -44.5 -65.5t-61.5 -39.5q-35 -12 -72 -18t-76 -8h-11q-5 0 -9 -2h-11h-10h-20h-21q-74 0 -141.5 9 t-126.5 30q-59 20 -96 73.5t-51 139.5q-2 16 -4.5 31.5t-4.5 31.5q0 14 -2 30.5t-2 30.5q-2 31 -3 62.5t-1 64.5zM244 428q0 -96 9 -160.5t28 -101.5q18 -37 76.5 -54.5t154.5 -17.5l18 4q10 -4 21 -4h22q12 0 25.5 1t28.5 3q16 4 33.5 7.5t31.5 9.5q16 4 28.5 12t20.5 18 q10 12 18.5 31t14.5 43q4 25 8 50.5t6 52.5v12q0 6 3 14v12v13v24v25v76v10v14q-2 8 -3 17v16v19v18q-2 10 -2 19v18q-2 25 -6 49t-10 49t-14 43t-19 31q-8 10 -22.5 18t-30.5 12t-33.5 6.5t-36.5 4.5h-5q-3 0 -7 2h-5h-7h-12h-13l-90 4q-8 -4 -15 -4h-16h-8h-6q-4 -2 -7 -2 h-7q-20 -2 -39 -5t-35 -10q-18 -6 -30.5 -15t-22.5 -21q-8 -12 -16.5 -30t-12.5 -40q-4 -20 -7 -44t-5 -46q-2 -18 -3 -34.5t-1 -33.5v-31v-26v-17v-61zM936 578l537 4q-2 78 -13.5 133t-29.5 82q-18 29 -75 42t-149 13q-84 0 -139 -13.5t-80 -41.5q-25 -27 -38 -82 t-13 -137z" />
<glyph unicode="&#x178;" horiz-adv-x="1150" d="M-10 1366h178l405 -639l406 639h182l-516 -795v-571h-153v571zM313 1483v135h160v-135h-160zM676 1483v135h162v-135h-162z" />
<glyph unicode="&#x2c6;" horiz-adv-x="1024" d="M203 1116q12 20 28.5 43t34.5 43q18 23 44 34t57 13q18 0 35.5 -3t33.5 -9q8 -2 16.5 -6t16.5 -6q8 -4 16.5 -7.5t16.5 -7.5q16 -8 31.5 -15t31.5 -13t33.5 -9.5t36.5 -3.5q16 0 30.5 5.5t26.5 15.5t22.5 21.5t18.5 23.5l3 3l3 3q0 2 1 4t3 4v4l78 -49v-5v-1l-2 -2l-2 -2 q-14 -25 -33.5 -47.5t-42.5 -42.5t-50 -30.5t-58 -10.5q-18 0 -34.5 3t-33.5 9q-16 6 -31.5 12.5t-31.5 14.5h-3h-1q-2 0 -3 1t-1 3q-8 4 -15.5 6t-15.5 6q-8 2 -15.5 5t-15.5 5q-14 6 -29.5 9.5t-31.5 3.5q-14 0 -26.5 -5.5t-22.5 -15.5q-8 -8 -16.5 -19t-14.5 -24l-3 -3 q-1 -1 -1 -3v-1l-2 -3z" />
<glyph unicode="&#x2dc;" horiz-adv-x="1024" d="M195 1145l321 194l313 -194l-43 -78l-270 125l-283 -125z" />
<glyph unicode="&#x2000;" horiz-adv-x="874" />
<glyph unicode="&#x2001;" horiz-adv-x="1751" />
<glyph unicode="&#x2002;" horiz-adv-x="874" />
<glyph unicode="&#x2003;" horiz-adv-x="1751" />
<glyph unicode="&#x2004;" horiz-adv-x="583" />
<glyph unicode="&#x2005;" horiz-adv-x="436" />
<glyph unicode="&#x2006;" horiz-adv-x="290" />
<glyph unicode="&#x2007;" horiz-adv-x="290" />
<glyph unicode="&#x2008;" horiz-adv-x="217" />
<glyph unicode="&#x2009;" horiz-adv-x="350" />
<glyph unicode="&#x200a;" horiz-adv-x="96" />
<glyph unicode="&#x2010;" horiz-adv-x="475" d="M41 432v133h393v-133h-393z" />
<glyph unicode="&#x2011;" horiz-adv-x="475" d="M41 432v133h393v-133h-393z" />
<glyph unicode="&#x2012;" horiz-adv-x="475" d="M41 432v133h393v-133h-393z" />
<glyph unicode="&#x2013;" horiz-adv-x="1255" d="M41 432v133h1173v-133h-1173z" />
<glyph unicode="&#x2014;" horiz-adv-x="1427" d="M41 432v133h1345v-133h-1345z" />
<glyph unicode="&#x2018;" horiz-adv-x="366" d="M86 1006v200q0 39 6 72t19 59q12 25 41.5 38.5t74.5 13.5h3h3h5h3h3h1h3q2 -2 4 -3h4h7h5v-73q-27 -4 -44 -11.5t-27 -17.5q-8 -10 -13.5 -28.5t-5.5 -43.5v-3v-3v-4q0 -2 2 -2v-4v-4v-3v-3l68 4v-184h-162z" />
<glyph unicode="&#x2019;" horiz-adv-x="366" d="M86 1001v80q27 -2 45.5 4.5t26.5 16.5q10 10 14 28.5t4 45.5v7v5v3v3q-2 2 -2 3v3l-68 4v187h162v-201q0 -45 -7 -79t-19 -60q-12 -27 -41 -39.5t-74 -12.5h-5h-7h-4q-2 0 -5 2h-3h-4h-3h-3h-1h-3h-3z" />
<glyph unicode="&#x201a;" />
<glyph unicode="&#x201c;" horiz-adv-x="653" d="M86 1006v200q0 39 6 72t19 59q12 25 41.5 38.5t74.5 13.5h3h3h5h3h3h1h3q2 -2 4 -3h4h7h5v-73q-27 -4 -44 -11.5t-27 -17.5q-8 -10 -13.5 -28.5t-5.5 -43.5v-3v-3v-4q0 -2 2 -2v-4v-4v-3v-3l68 4v-184h-162zM373 1006v200q0 39 6 72t18 59q12 25 42 38.5t75 13.5h3h3h4h3 h3h1h4q2 -2 4 -3h4h7h5v-73q-27 -4 -44 -11.5t-28 -17.5q-8 -10 -13 -28.5t-5 -43.5v-3v-3v-4q0 -2 2 -2v-4v-4v-3v-3l68 4v-184h-162z" />
<glyph unicode="&#x201d;" horiz-adv-x="653" d="M86 1001v80q27 -2 45.5 4.5t26.5 16.5q10 10 14 28.5t4 45.5v7v5v3v3q-2 2 -2 3v3l-68 4v187h162v-201q0 -45 -7 -79t-19 -60q-12 -27 -41 -39.5t-74 -12.5h-5h-7h-4q-2 0 -5 2h-3h-4h-3h-3h-1h-3h-3zM373 1001v80q27 -2 45 4.5t26 16.5q10 10 14.5 28.5t4.5 45.5v7v5v3 v3q-2 2 -2 3v3l-68 4v187h162v-201q0 -45 -7 -79t-20 -60q-12 -27 -40.5 -39.5t-73.5 -12.5h-5h-8h-4q-2 0 -4 2h-3h-4h-3h-3h-1h-3h-3z" />
<glyph unicode="&#x201e;" horiz-adv-x="653" d="M98 -123q27 2 45.5 8t26.5 17q10 10 14 28.5t4 44.5v6v7v3v3q-2 2 -2 3v3h-67v186h162v-200q0 -41 -7.5 -75t-19.5 -61q-12 -25 -41 -38t-74 -13h-5h-7h-4h-4q-2 0 -3 1l-1 1h-3h-3h-4h-1h-3h-3v76zM385 -123q27 2 45.5 8t26.5 17q10 10 14 28.5t4 44.5v6v7v3v3 q-2 2 -2 3v3h-67v186h161v-200q0 -41 -7 -75t-19 -61q-12 -25 -41 -38t-74 -13h-5h-7h-4h-4q-2 0 -4 1l-1 1h-3h-3h-3h-1h-3h-3v76z" />
<glyph unicode="&#x2022;" horiz-adv-x="1228" d="M406 582v4q0 39 14 72.5t43 62.5t63.5 43t75.5 14t77 -14t64 -43q29 -29 44.5 -63.5t15.5 -75.5t-15.5 -76t-44.5 -64t-64.5 -43t-76.5 -14t-75.5 14.5t-63.5 42.5q-29 29 -43 64t-14 76z" />
<glyph unicode="&#x2026;" horiz-adv-x="1222" d="M123 0v186h162v-186h-162zM530 0v186h162v-186h-162zM938 0v186h162v-186h-162z" />
<glyph unicode="&#x202f;" horiz-adv-x="350" />
<glyph unicode="&#x2039;" horiz-adv-x="577" d="M102 526l246 521l105 -64l-215 -457l239 -460l-100 -66z" />
<glyph unicode="&#x203a;" horiz-adv-x="577" d="M102 66l238 460l-215 457l106 64l246 -521l-276 -526z" />
<glyph unicode="&#x205f;" horiz-adv-x="436" />
<glyph unicode="&#x2122;" horiz-adv-x="1814" d="M14 1268v98h662v-98h-273v-721h-112v721h-277zM780 547v819h176l293 -676l295 676h180v-819h-112v708l-307 -708h-107l-309 702v-702h-109z" />
<glyph unicode="&#xe000;" horiz-adv-x="955" d="M0 955h955v-955h-955v955z" />
<glyph unicode="&#xfb01;" horiz-adv-x="942" d="M674 0v956h145v-956h-145zM674 1208v158h145v-158h-145zM14 840v116h146v142q0 80 18.5 135t57.5 86q37 29 95 44t136 15h6h6q2 -2 5 -2h5h7h6h5h5h4h6q2 -2 5 -2h5h13h12v-114q-6 -2 -13 -2.5t-14 2.5h-14h-12h-12h-13h-14h-12q-43 0 -72 -10.5t-45 -28.5 q-14 -18 -22.5 -47t-8.5 -68v-150h252v-116h-252v-840h-145v840h-146z" />
<glyph unicode="&#xfb02;" horiz-adv-x="942" d="M674 0v1366h145v-1366h-145zM14 840v116h146v142q0 80 18.5 135t57.5 86q37 29 95 44t136 15h6h6q2 -2 5 -2h5h7h6h5h5h4h6q2 -2 5 -2h5h13h12v-114q-6 -2 -13 -2.5t-14 2.5h-14h-12h-12h-13h-14h-12q-43 0 -72 -10.5t-45 -28.5q-14 -18 -22.5 -47t-8.5 -68v-150h252 v-116h-252v-840h-145v840h-146z" />
<glyph unicode="&#xfb03;" horiz-adv-x="1492" d="M1225 0v956h145v-956h-145zM1225 1208v158h145v-158h-145zM565 840v116h146v142q0 80 18.5 135t57.5 86q37 29 95 44t136 15h6h6q2 -2 5 -2h5h7h6h5h5h4h6q2 -2 5 -2h5h13h12v-114q-6 -2 -13 -2.5t-14 2.5h-14h-12h-12h-13h-14h-12q-43 0 -72 -10.5t-45 -28.5 q-14 -18 -22.5 -47t-8.5 -68v-150h252v-116h-252v-840h-145v840h-146zM14 840v116h146v142q0 80 18.5 135t57.5 86q37 29 95 44t136 15h6h6q2 -2 5 -2h5h7h6h5h5h4h6q2 -2 5 -2h5h13h12v-114q-6 -2 -13 -2.5t-14 2.5h-14h-12h-12h-13h-14h-12q-43 0 -72 -10.5t-45 -28.5 q-14 -18 -22.5 -47t-8.5 -68v-150h252v-116h-252v-840h-145v840h-146z" />
<glyph unicode="&#xfb04;" horiz-adv-x="1492" d="M1225 0v1366h145v-1366h-145zM565 840v116h146v142q0 80 18.5 135t57.5 86q37 29 95 44t136 15h6h6q2 -2 5 -2h5h7h6h5h5h4h6q2 -2 5 -2h5h13h12v-114q-6 -2 -13 -2.5t-14 2.5h-14h-12h-12h-13h-14h-12q-43 0 -72 -10.5t-45 -28.5q-14 -18 -22.5 -47t-8.5 -68v-150h252 v-116h-252v-840h-145v840h-146zM14 840v116h146v142q0 80 18.5 135t57.5 86q37 29 95 44t136 15h6h6q2 -2 5 -2h5h7h6h5h5h4h6q2 -2 5 -2h5h13h12v-114q-6 -2 -13 -2.5t-14 2.5h-14h-12h-12h-13h-14h-12q-43 0 -72 -10.5t-45 -28.5q-14 -18 -22.5 -47t-8.5 -68v-150h252 v-116h-252v-840h-145v840h-146z" />
</font>
</defs>
</svg>
